SplineFontDB: 3.2
FontName: Kilroy4-BoldItalic
FullName: Kilroy4 Bold Italic
FamilyName: Kilroy4
Weight: Bold
Copyright: Copyright 2020 The Roboto Serif Project Authors (https://github.com/googlefonts/RobotoSerif) OFL
Version: 1.008
ItalicAngle: -10
UnderlinePosition: -200
UnderlineWidth: 100
Ascent: 800
Descent: 200
InvalidEm: 0
sfntRevision: 0x0001020c
LayerCount: 2
Layer: 0 1 "Back" 1
Layer: 1 1 "Fore" 0
XUID: [1021 1018 -1064020043 22447]
StyleMap: 0x0021
FSType: 0
OS2Version: 4
OS2_WeightWidthSlopeOnly: 0
OS2_UseTypoMetrics: 1
CreationTime: 1586439944
ModificationTime: 1751868252
PfmFamily: 81
TTFWeight: 700
TTFWidth: 5
LineGap: 0
VLineGap: 0
Panose: 0 0 0 0 0 0 0 0 0 0
OS2TypoAscent: 927
OS2TypoAOffset: 0
OS2TypoDescent: -244
OS2TypoDOffset: 0
OS2TypoLinegap: 0
OS2WinAscent: 1048
OS2WinAOffset: 0
OS2WinDescent: 251
OS2WinDOffset: 0
HheadAscent: 927
HheadAOffset: 0
HheadDescent: -244
HheadDOffset: 0
OS2SubXSize: 650
OS2SubYSize: 600
OS2SubXOff: -13
OS2SubYOff: 75
OS2SupXSize: 650
OS2SupYSize: 600
OS2SupXOff: 62
OS2SupYOff: 350
OS2StrikeYSize: 100
OS2StrikeYPos: 311
OS2CapHeight: 710
OS2XHeight: 518
OS2Vendor: 'COMM'
OS2CodePages: 20000193.00000000
OS2UnicodeRanges: a10000ef.4000267b.00000000.00000000
Lookup: 5 0 0 "'locl' Localized Forms in Latin lookup 0" { "'locl' Localized Forms in Latin lookup 0 subtable"  } ['locl' ('latn' <'AZE ' 'CRT ' 'TRK ' > ) ]
Lookup: 1 0 0 "Single Substitution lookup 1" { "Single Substitution lookup 1 subtable"  } []
Lookup: 5 0 0 "'locl' Localized Forms in Latin lookup 2" { "'locl' Localized Forms in Latin lookup 2 subtable"  } ['locl' ('latn' <'PLK ' > ) ]
Lookup: 1 0 0 "Single Substitution lookup 3" { "Single Substitution lookup 3 subtable"  } []
Lookup: 6 0 0 "'locl' Localized Forms in Latin lookup 4" { "'locl' Localized Forms in Latin lookup 4 subtable"  } ['locl' ('latn' <'CAT ' > ) ]
Lookup: 4 0 0 "Ligature Substitution lookup 5" { "Ligature Substitution lookup 5 subtable"  } []

StartChar: .notdef
Encoding: 256 -1 0
Width: 400
GlyphClass: 1
Flags: W
LayerCount: 2
Fore
SplineSet
0 0 m 1,0,-1
 0 700 l 1,1,-1
 400 700 l 1,2,-1
 400 0 l 1,3,-1
 0 0 l 1,0,-1
50 650 m 1,4,-1
 50 50 l 1,5,-1
 350 50 l 1,6,-1
 350 650 l 1,7,-1
 50 650 l 1,4,-1
EndSplineSet
EndChar

StartChar: A
Encoding: 65 65 4
Width: 761
GlyphClass: 2
Flags: W
AnchorPoint: "Anchor-2" 602 0 basechar 0
AnchorPoint: "Anchor-1" 372 0 basechar 0
AnchorPoint: "Anchor-0" 463 721 basechar 0
LayerCount: 2
Fore
SplineSet
193 296 m 1,0,-1
 462 296 l 1,1,-1
 456 200 l 1,2,-1
 164 200 l 1,3,-1
 193 296 l 1,0,-1
411 663 m 1,4,-1
 442 657 l 1,5,-1
 152 130 l 2,6,7
 151 124 151 124 154.5 118.5 c 128,-1,8
 158 113 158 113 169.5 110 c 128,-1,9
 181 107 181 107 205 107 c 2,10,-1
 211 107 l 1,11,-1
 187 0 l 1,12,-1
 -57 0 l 1,13,-1
 -33 107 l 1,14,-1
 -27 107 l 2,15,16
 -2 107 -2 107 16.5 120 c 128,-1,17
 35 133 35 133 56 171 c 2,18,-1
 363 718 l 1,19,-1
 585 718 l 1,20,-1
 614 171 l 2,21,22
 616 133 616 133 633 120 c 128,-1,23
 650 107 650 107 677 107 c 2,24,-1
 683 107 l 1,25,-1
 658 0 l 1,26,-1
 337 0 l 1,27,-1
 362 107 l 1,28,-1
 371 107 l 2,29,30
 396 107 396 107 409.5 108.5 c 128,-1,31
 423 110 423 110 429.5 112.5 c 128,-1,32
 436 115 436 115 437 118 c 2,33,-1
 411 663 l 1,4,-1
EndSplineSet
EndChar

StartChar: B
Encoding: 66 66 11
Width: 765
GlyphClass: 1
Flags: W
LayerCount: 2
Fore
SplineSet
405 322 m 2,0,-1
 296 322 l 1,1,-1
 239 104 l 1,2,-1
 367 104 l 2,3,4
 401 104 401 104 427 113.5 c 128,-1,5
 453 123 453 123 470.5 140.5 c 128,-1,6
 488 158 488 158 496.5 182 c 128,-1,7
 505 206 505 206 505 236 c 256,8,9
 505 266 505 266 494 285 c 128,-1,10
 483 304 483 304 460.5 313 c 128,-1,11
 438 322 438 322 405 322 c 2,0,-1
457 606 m 2,12,-1
 368 606 l 1,13,-1
 318 420 l 1,14,-1
 440 420 l 2,15,16
 464 420 464 420 484 426.5 c 128,-1,17
 504 433 504 433 518.5 446.5 c 128,-1,18
 533 460 533 460 541 481 c 128,-1,19
 549 502 549 502 549 532 c 0,20,21
 549 556 549 556 540.5 572.5 c 128,-1,22
 532 589 532 589 512 597.5 c 128,-1,23
 492 606 492 606 457 606 c 2,12,-1
491 369 m 1,24,-1
 510 391 l 1,25,-1
 495 337 l 1,26,-1
 491 363 l 1,27,28
 556 360 556 360 600 341.5 c 128,-1,29
 644 323 644 323 666.5 289.5 c 128,-1,30
 689 256 689 256 689 208 c 0,31,32
 689 155 689 155 670.5 116 c 128,-1,33
 652 77 652 77 616.5 51 c 128,-1,34
 581 25 581 25 528.5 12.5 c 128,-1,35
 476 0 476 0 406 0 c 2,36,-1
 -38 0 l 1,37,-1
 -12 107 l 1,38,-1
 -1 107 l 2,39,40
 26 107 26 107 44.5 114 c 128,-1,41
 63 121 63 121 68 143 c 2,42,-1
 177 567 l 2,43,44
 182 589 182 589 167.5 596 c 128,-1,45
 153 603 153 603 125 603 c 2,46,-1
 114 603 l 1,47,-1
 140 710 l 1,48,-1
 512 710 l 2,49,50
 585 710 585 710 633 691 c 128,-1,51
 681 672 681 672 705 638 c 128,-1,52
 729 604 729 604 729 556 c 0,53,54
 729 495 729 495 701 455.5 c 128,-1,55
 673 416 673 416 619.5 395 c 128,-1,56
 566 374 566 374 491 369 c 1,24,-1
EndSplineSet
EndChar

StartChar: C
Encoding: 67 67 12
Width: 779
GlyphClass: 2
Flags: W
AnchorPoint: "Anchor-1" 406 0 basechar 0
AnchorPoint: "Anchor-0" 406 741 basechar 0
LayerCount: 2
Fore
SplineSet
400 86 m 0,0,1
 440 86 440 86 472 98 c 128,-1,2
 504 110 504 110 530 131.5 c 128,-1,3
 556 153 556 153 578 183 c 128,-1,4
 600 213 600 213 619 250 c 1,5,-1
 716 203 l 1,6,7
 682 133 682 133 636 82 c 128,-1,8
 590 31 590 31 526.5 3 c 128,-1,9
 463 -25 463 -25 376 -25 c 0,10,11
 300 -25 300 -25 239 -6 c 128,-1,12
 178 13 178 13 135.5 50.5 c 128,-1,13
 93 88 93 88 70.5 143.5 c 128,-1,14
 48 199 48 199 48 273 c 0,15,16
 48 344 48 344 66 411.5 c 128,-1,17
 84 479 84 479 118 538 c 128,-1,18
 152 597 152 597 202 641 c 128,-1,19
 252 685 252 685 316.5 710 c 128,-1,20
 381 735 381 735 458 735 c 0,21,22
 517 735 517 735 559 721 c 128,-1,23
 601 707 601 707 628 679.5 c 128,-1,24
 655 652 655 652 668.5 612.5 c 128,-1,25
 682 573 682 573 684 521 c 1,26,-1
 642 539 l 1,27,-1
 708 720 l 1,28,-1
 807 720 l 1,29,-1
 742 460 l 1,30,-1
 627 460 l 1,31,32
 625 515 625 515 607.5 551.5 c 128,-1,33
 590 588 590 588 556 606 c 128,-1,34
 522 624 522 624 468 624 c 0,35,36
 419 624 419 624 381 600 c 128,-1,37
 343 576 343 576 315.5 535.5 c 128,-1,38
 288 495 288 495 271 445.5 c 128,-1,39
 254 396 254 396 245.5 346 c 128,-1,40
 237 296 237 296 237 252 c 0,41,42
 237 207 237 207 247.5 175.5 c 128,-1,43
 258 144 258 144 279 124 c 128,-1,44
 300 104 300 104 330.5 95 c 128,-1,45
 361 86 361 86 400 86 c 0,0,1
EndSplineSet
EndChar

StartChar: D
Encoding: 68 68 14
Width: 826
GlyphClass: 2
Flags: W
AnchorPoint: "Anchor-1" 413 0 basechar 0
AnchorPoint: "Anchor-0" 413 741 basechar 0
LayerCount: 2
Fore
SplineSet
140 710 m 1,0,-1
 448 710 l 2,1,2
 527 710 527 710 590.5 691 c 128,-1,3
 654 672 654 672 699 635.5 c 128,-1,4
 744 599 744 599 767.5 546 c 128,-1,5
 791 493 791 493 791 424 c 0,6,7
 791 354 791 354 773.5 290 c 128,-1,8
 756 226 756 226 721.5 173.5 c 128,-1,9
 687 121 687 121 636 82 c 128,-1,10
 585 43 585 43 517.5 21.5 c 128,-1,11
 450 0 450 0 368 0 c 2,12,-1
 -38 0 l 1,13,-1
 -12 107 l 1,14,-1
 0 107 l 2,15,16
 26 107 26 107 44.5 114 c 128,-1,17
 63 121 63 121 68 143 c 2,18,-1
 177 567 l 2,19,20
 182 589 182 589 167.5 596 c 128,-1,21
 153 603 153 603 126 603 c 2,22,-1
 114 603 l 1,23,-1
 140 710 l 1,0,-1
436 604 m 2,24,-1
 367 604 l 1,25,-1
 240 106 l 1,26,-1
 364 106 l 2,27,28
 409 106 409 106 444 120 c 128,-1,29
 479 134 479 134 506 159 c 128,-1,30
 533 184 533 184 552 217 c 128,-1,31
 571 250 571 250 583 289 c 128,-1,32
 595 328 595 328 600.5 369 c 128,-1,33
 606 410 606 410 606 451 c 0,34,35
 606 499 606 499 588 533 c 128,-1,36
 570 567 570 567 532.5 585.5 c 128,-1,37
 495 604 495 604 436 604 c 2,24,-1
EndSplineSet
EndChar

StartChar: E
Encoding: 69 69 15
Width: 708
GlyphClass: 2
Flags: W
AnchorPoint: "Anchor-2" 488 0 basechar 0
AnchorPoint: "Anchor-1" 417 0 basechar 0
AnchorPoint: "Anchor-0" 417 741 basechar 0
LayerCount: 2
Fore
SplineSet
633 225 m 1,0,-1
 579 0 l 1,1,-1
 -38 0 l 1,2,-1
 -12 107 l 1,3,-1
 -1 107 l 2,4,5
 26 107 26 107 44.5 114 c 128,-1,6
 63 121 63 121 68 143 c 2,7,-1
 177 567 l 2,8,9
 182 589 182 589 167.5 596 c 128,-1,10
 153 603 153 603 125 603 c 2,11,-1
 114 603 l 1,12,-1
 140 710 l 1,13,-1
 720 710 l 1,14,-1
 676 510 l 1,15,-1
 565 510 l 1,16,-1
 568 559 l 2,17,18
 568 578 568 578 561 587.5 c 128,-1,19
 554 597 554 597 536 600.5 c 128,-1,20
 518 604 518 604 484 604 c 2,21,-1
 367 604 l 1,22,-1
 240 106 l 1,23,-1
 366 106 l 2,24,25
 407 106 407 106 430.5 110 c 128,-1,26
 454 114 454 114 467 124 c 128,-1,27
 480 134 480 134 488 151 c 2,28,-1
 521 225 l 1,29,-1
 633 225 l 1,0,-1
301 410 m 1,30,31
 346 414 346 414 390.5 418 c 128,-1,32
 435 422 435 422 480.5 426.5 c 128,-1,33
 526 431 526 431 570 434 c 1,34,-1
 539 296 l 1,35,36
 496 301 496 301 453 305 c 128,-1,37
 410 309 410 309 367 313 c 128,-1,38
 324 317 324 317 280 321 c 1,39,-1
 301 410 l 1,30,31
EndSplineSet
Substitution2: "'ss01' Style Set 1 in Latin lookup 59 subtable" E.alt
EndChar

StartChar: F
Encoding: 70 70 20
Width: 673
GlyphClass: 1
Flags: W
LayerCount: 2
Fore
SplineSet
298 400 m 1,0,1
 344 405 344 405 389 408.5 c 128,-1,2
 434 412 434 412 479 416 c 128,-1,3
 524 420 524 420 568 423 c 1,4,-1
 537 285 l 1,5,6
 494 289 494 289 450.5 293 c 128,-1,7
 407 297 407 297 363.5 301 c 128,-1,8
 320 305 320 305 276 309 c 1,9,-1
 298 400 l 1,0,1
-38 0 m 1,10,-1
 -13 107 l 1,11,-1
 -2 107 l 2,12,13
 26 107 26 107 44 114 c 128,-1,14
 62 121 62 121 68 143 c 2,15,-1
 177 567 l 2,16,17
 183 589 183 589 168 596 c 128,-1,18
 153 603 153 603 126 603 c 2,19,-1
 115 603 l 1,20,-1
 140 710 l 1,21,-1
 723 710 l 1,22,-1
 678 510 l 1,23,-1
 568 510 l 1,24,-1
 570 559 l 2,25,26
 571 578 571 578 563.5 587.5 c 128,-1,27
 556 597 556 597 537.5 600.5 c 128,-1,28
 519 604 519 604 485 604 c 2,29,-1
 368 604 l 1,30,-1
 242 117 l 2,31,32
 241 114 241 114 251 111.5 c 128,-1,33
 261 109 261 109 278.5 108 c 128,-1,34
 296 107 296 107 315 107 c 2,35,-1
 335 107 l 1,36,-1
 310 0 l 1,37,-1
 -38 0 l 1,10,-1
EndSplineSet
Substitution2: "'ss01' Style Set 1 in Latin lookup 59 subtable" F.alt
EndChar

StartChar: G
Encoding: 71 71 21
Width: 831
GlyphClass: 2
Flags: W
AnchorPoint: "Anchor-1" 415 0 basechar 0
AnchorPoint: "Anchor-0" 415 741 basechar 0
LayerCount: 2
Fore
SplineSet
237 241 m 0,0,1
 237 274 237 274 242 314.5 c 128,-1,2
 247 355 247 355 258 398.5 c 128,-1,3
 269 442 269 442 287 482.5 c 128,-1,4
 305 523 305 523 331.5 555 c 128,-1,5
 358 587 358 587 394 605.5 c 128,-1,6
 430 624 430 624 476 624 c 0,7,8
 529 624 529 624 561 607 c 128,-1,9
 593 590 593 590 609.5 558.5 c 128,-1,10
 626 527 626 527 631 482 c 1,11,-1
 743 482 l 1,12,-1
 802 720 l 1,13,-1
 704 720 l 1,14,-1
 646 561 l 1,15,-1
 682 537 l 1,16,17
 680 583 680 583 668 620 c 128,-1,18
 656 657 656 657 631.5 683 c 128,-1,19
 607 709 607 709 566.5 722 c 128,-1,20
 526 735 526 735 467 735 c 0,21,22
 383 735 383 735 315.5 710 c 128,-1,23
 248 685 248 685 198 640.5 c 128,-1,24
 148 596 148 596 114.5 536.5 c 128,-1,25
 81 477 81 477 64.5 408 c 128,-1,26
 48 339 48 339 48 265 c 0,27,28
 48 199 48 199 70 145 c 128,-1,29
 92 91 92 91 135 53 c 128,-1,30
 178 15 178 15 240.5 -5 c 128,-1,31
 303 -25 303 -25 384 -25 c 0,32,33
 438 -25 438 -25 482 -15.5 c 128,-1,34
 526 -6 526 -6 561.5 9 c 128,-1,35
 597 24 597 24 623.5 40 c 128,-1,36
 650 56 650 56 668 71 c 1,37,-1
 704 208 l 2,38,39
 711 233 711 233 725.5 240.5 c 128,-1,40
 740 248 740 248 768 248 c 2,41,-1
 791 248 l 1,42,-1
 815 355 l 1,43,-1
 475 355 l 1,44,-1
 450 248 l 1,45,-1
 472 248 l 2,46,47
 495 248 495 248 511 244.5 c 128,-1,48
 527 241 527 241 534 232.5 c 128,-1,49
 541 224 541 224 537 209 c 2,50,-1
 514 124 l 1,51,52
 507 118 507 118 492 109 c 128,-1,53
 477 100 477 100 453.5 93 c 128,-1,54
 430 86 430 86 395 86 c 0,55,56
 361 86 361 86 332 93 c 128,-1,57
 303 100 303 100 282 117.5 c 128,-1,58
 261 135 261 135 249 165 c 128,-1,59
 237 195 237 195 237 241 c 0,0,1
EndSplineSet
EndChar

StartChar: H
Encoding: 72 72 22
Width: 858
GlyphClass: 2
Flags: W
AnchorPoint: "Anchor-1" 429 0 basechar 0
AnchorPoint: "Anchor-0" 429 741 basechar 0
LayerCount: 2
Fore
SplineSet
229 419 m 1,0,-1
 643 419 l 1,1,-1
 623 312 l 1,2,-1
 208 312 l 1,3,-1
 229 419 l 1,0,-1
-38 0 m 1,4,-1
 -13 107 l 1,5,-1
 -2 107 l 2,6,7
 26 107 26 107 44 114 c 128,-1,8
 62 121 62 121 68 143 c 2,9,-1
 177 567 l 2,10,11
 182 589 182 589 167.5 596 c 128,-1,12
 153 603 153 603 125 603 c 2,13,-1
 114 603 l 1,14,-1
 140 710 l 1,15,-1
 462 710 l 1,16,-1
 436 603 l 1,17,-1
 428 603 l 2,18,19
 415 603 415 603 400.5 602 c 128,-1,20
 386 601 386 601 376 599 c 128,-1,21
 366 597 366 597 365 593 c 2,22,-1
 242 117 l 2,23,24
 241 114 241 114 250.5 111.5 c 128,-1,25
 260 109 260 109 274 108 c 128,-1,26
 288 107 288 107 301 107 c 2,27,-1
 310 107 l 1,28,-1
 284 0 l 1,29,-1
 -38 0 l 1,4,-1
409 0 m 1,30,-1
 435 107 l 1,31,-1
 443 107 l 2,32,33
 457 107 457 107 471 108 c 128,-1,34
 485 109 485 109 495 111.5 c 128,-1,35
 505 114 505 114 506 117 c 2,36,-1
 629 593 l 2,37,38
 630 597 630 597 621 599 c 128,-1,39
 612 601 612 601 598 602 c 128,-1,40
 584 603 584 603 570 603 c 2,41,-1
 562 603 l 1,42,-1
 587 710 l 1,43,-1
 910 710 l 1,44,-1
 884 603 l 1,45,-1
 873 603 l 2,46,47
 845 603 845 603 827 596 c 128,-1,48
 809 589 809 589 803 567 c 2,49,-1
 695 143 l 2,50,51
 689 121 689 121 704 114 c 128,-1,52
 719 107 719 107 746 107 c 2,53,-1
 757 107 l 1,54,-1
 732 0 l 1,55,-1
 409 0 l 1,30,-1
EndSplineSet
EndChar

StartChar: I
Encoding: 73 73 23
Width: 435
GlyphClass: 2
Flags: W
AnchorPoint: "Anchor-2" 283 0 basechar 0
AnchorPoint: "Anchor-1" 218 0 basechar 0
AnchorPoint: "Anchor-0" 218 741 basechar 0
LayerCount: 2
Fore
SplineSet
78 143 m 2,0,-1
 187 567 l 2,1,2
 193 589 193 589 177.5 596 c 128,-1,3
 162 603 162 603 134 603 c 2,4,-1
 114 603 l 1,5,-1
 140 710 l 1,6,-1
 485 710 l 1,7,-1
 459 603 l 1,8,-1
 439 603 l 2,9,10
 412 603 412 603 393 596 c 128,-1,11
 374 589 374 589 368 567 c 2,12,-1
 260 143 l 2,13,14
 254 121 254 121 269.5 114 c 128,-1,15
 285 107 285 107 312 107 c 2,16,-1
 332 107 l 1,17,-1
 307 0 l 1,18,-1
 -38 0 l 1,19,-1
 -13 107 l 1,20,-1
 7 107 l 2,21,22
 35 107 35 107 54 114 c 128,-1,23
 73 121 73 121 78 143 c 2,0,-1
EndSplineSet
EndChar

StartChar: J
Encoding: 74 74 28
Width: 695
GlyphClass: 2
Flags: W
AnchorPoint: "Anchor-0" 465 741 basechar 0
LayerCount: 2
Fore
SplineSet
451 567 m 2,0,1
 456 589 456 589 437 596 c 128,-1,2
 418 603 418 603 390 603 c 2,3,-1
 363 603 l 1,4,-1
 389 710 l 1,5,-1
 748 710 l 1,6,-1
 721 603 l 1,7,-1
 701 603 l 2,8,9
 674 603 674 603 655.5 596 c 128,-1,10
 637 589 637 589 632 567 c 2,11,-1
 540 200 l 2,12,13
 520 119 520 119 479 69.5 c 128,-1,14
 438 20 438 20 379 -2.5 c 128,-1,15
 320 -25 320 -25 245 -25 c 0,16,17
 179 -25 179 -25 126.5 -12 c 128,-1,18
 74 1 74 1 37 20.5 c 128,-1,19
 0 40 0 40 -21 57 c 1,20,-1
 27 256 l 1,21,-1
 189 256 l 1,22,-1
 137 49 l 1,23,24
 123 54 123 54 113.5 67 c 128,-1,25
 104 80 104 80 101.5 95 c 128,-1,26
 99 110 99 110 104 120.5 c 128,-1,27
 109 131 109 131 122 131 c 1,28,29
 134 113 134 113 163 99 c 128,-1,30
 192 85 192 85 235 85 c 0,31,32
 267 85 267 85 290.5 97.5 c 128,-1,33
 314 110 314 110 331.5 138 c 128,-1,34
 349 166 349 166 362 214 c 2,35,-1
 451 567 l 2,0,1
EndSplineSet
EndChar

StartChar: K
Encoding: 75 75 29
Width: 837
GlyphClass: 2
Flags: W
AnchorPoint: "Anchor-1" 415 0 basechar 0
AnchorPoint: "Anchor-0" 415 741 basechar 0
LayerCount: 2
Fore
SplineSet
-38 0 m 1,0,-1
 -12 107 l 1,1,-1
 -2 107 l 2,2,3
 25 107 25 107 43.5 114 c 128,-1,4
 62 121 62 121 67 143 c 2,5,-1
 177 567 l 2,6,7
 182 589 182 589 167.5 596 c 128,-1,8
 153 603 153 603 125 603 c 2,9,-1
 114 603 l 1,10,-1
 140 710 l 1,11,-1
 466 710 l 1,12,-1
 440 603 l 1,13,-1
 430 603 l 2,14,15
 414 603 414 603 399.5 602 c 128,-1,16
 385 601 385 601 375.5 599 c 128,-1,17
 366 597 366 597 365 593 c 2,18,-1
 242 117 l 2,19,20
 241 114 241 114 249.5 111.5 c 128,-1,21
 258 109 258 109 271.5 108 c 128,-1,22
 285 107 285 107 296 107 c 2,23,-1
 306 107 l 1,24,-1
 279 0 l 1,25,-1
 -38 0 l 1,0,-1
401 0 m 1,26,-1
 427 107 l 1,27,-1
 433 107 l 2,28,29
 449 107 449 107 461.5 108 c 128,-1,30
 474 109 474 109 481 111.5 c 128,-1,31
 488 114 488 114 488 117 c 2,32,-1
 337 348 l 1,33,-1
 343 372 l 1,34,-1
 617 592 l 2,35,36
 618 595 618 595 615 597 c 128,-1,37
 612 599 612 599 605 600.5 c 128,-1,38
 598 602 598 602 587.5 602.5 c 128,-1,39
 577 603 577 603 563 603 c 2,40,-1
 550 603 l 1,41,-1
 576 710 l 1,42,-1
 853 710 l 1,43,-1
 827 603 l 1,44,-1
 814 603 l 2,45,46
 802 603 802 603 791 601 c 128,-1,47
 780 599 780 599 769.5 594.5 c 128,-1,48
 759 590 759 590 748 581 c 2,49,-1
 461 350 l 1,50,-1
 474 452 l 1,51,-1
 689 128 l 2,52,53
 696 119 696 119 704 114.5 c 128,-1,54
 712 110 712 110 722.5 108.5 c 128,-1,55
 733 107 733 107 744 107 c 2,56,-1
 758 107 l 1,57,-1
 733 0 l 1,58,-1
 401 0 l 1,26,-1
EndSplineSet
EndChar

StartChar: L
Encoding: 76 76 30
Width: 690
GlyphClass: 2
Flags: W
AnchorPoint: "Anchor-2" 523 710 basechar 0
AnchorPoint: "Anchor-1" 420 0 basechar 0
AnchorPoint: "Anchor-0" 420 741 basechar 0
LayerCount: 2
Fore
SplineSet
483 710 m 1,0,-1
 457 603 l 1,1,-1
 438 603 l 2,2,3
 416 603 416 603 399.5 600 c 128,-1,4
 383 597 383 597 373 589.5 c 128,-1,5
 363 582 363 582 359 567 c 2,6,-1
 241 106 l 1,7,-1
 357 106 l 2,8,9
 386 106 386 106 406 108 c 128,-1,10
 426 110 426 110 439 115 c 128,-1,11
 452 120 452 120 460.5 129 c 128,-1,12
 469 138 469 138 475 151 c 2,13,-1
 521 261 l 1,14,-1
 633 261 l 1,15,-1
 570 0 l 1,16,-1
 -38 0 l 1,17,-1
 -13 107 l 1,18,-1
 -2 107 l 2,19,20
 26 107 26 107 45 114 c 128,-1,21
 64 121 64 121 69 143 c 2,22,-1
 178 567 l 2,23,24
 184 589 184 589 168.5 596 c 128,-1,25
 153 603 153 603 125 603 c 2,26,-1
 114 603 l 1,27,-1
 140 710 l 1,28,-1
 483 710 l 1,0,-1
EndSplineSet
EndChar

StartChar: M
Encoding: 77 77 31
Width: 1021
GlyphClass: 2
Flags: W
AnchorPoint: "Anchor-1" 490 0 basechar 0
LayerCount: 2
Fore
SplineSet
-38 0 m 1,0,-1
 -14 107 l 1,1,-1
 -3 107 l 2,2,3
 13 107 13 107 24.5 110 c 128,-1,4
 36 113 36 113 43.5 121 c 128,-1,5
 51 129 51 129 55 143 c 2,6,-1
 165 567 l 2,7,8
 169 582 169 582 165.5 589.5 c 128,-1,9
 162 597 162 597 151.5 600 c 128,-1,10
 141 603 141 603 125 603 c 2,11,-1
 114 603 l 1,12,-1
 140 710 l 1,13,-1
 464 710 l 1,14,-1
 495 254 l 1,15,-1
 469 256 l 1,16,-1
 742 710 l 1,17,-1
 1072 710 l 1,18,-1
 1047 603 l 1,19,-1
 1036 603 l 2,20,21
 1008 603 1008 603 990 596 c 128,-1,22
 972 589 972 589 967 567 c 2,23,-1
 857 143 l 2,24,25
 853 129 853 129 858.5 121 c 128,-1,26
 864 113 864 113 877 110 c 128,-1,27
 890 107 890 107 908 107 c 2,28,-1
 919 107 l 1,29,-1
 894 0 l 1,30,-1
 573 0 l 1,31,-1
 598 107 l 1,32,-1
 606 107 l 2,33,34
 616 107 616 107 630.5 108 c 128,-1,35
 645 109 645 109 656.5 111.5 c 128,-1,36
 668 114 668 114 669 117 c 2,37,-1
 813 679 l 1,38,-1
 826 662 l 1,39,-1
 426 -6 l 1,40,-1
 334 -6 l 1,41,-1
 285 683 l 1,42,-1
 306 689 l 1,43,-1
 160 117 l 2,44,45
 159 114 159 114 167 111.5 c 128,-1,46
 175 109 175 109 185.5 108 c 128,-1,47
 196 107 196 107 202 107 c 2,48,-1
 208 107 l 1,49,-1
 184 0 l 1,50,-1
 -38 0 l 1,0,-1
EndSplineSet
EndChar

StartChar: N
Encoding: 78 78 32
Width: 824
GlyphClass: 2
Flags: W
AnchorPoint: "Anchor-1" 420 0 basechar 0
AnchorPoint: "Anchor-0" 420 741 basechar 0
LayerCount: 2
Fore
SplineSet
-38 0 m 1,0,-1
 -13 107 l 1,1,-1
 -2 107 l 2,2,3
 15 107 15 107 28.5 110 c 128,-1,4
 42 113 42 113 51.5 121 c 128,-1,5
 61 129 61 129 64 143 c 2,6,-1
 173 567 l 2,7,8
 177 582 177 582 171 589.5 c 128,-1,9
 165 597 165 597 153 600 c 128,-1,10
 141 603 141 603 125 603 c 2,11,-1
 114 603 l 1,12,-1
 140 710 l 1,13,-1
 437 710 l 1,14,-1
 582 152 l 1,15,-1
 558 152 l 1,16,-1
 671 593 l 2,17,18
 671 597 671 597 665 599 c 128,-1,19
 659 601 659 601 649 602 c 128,-1,20
 639 603 639 603 628 603 c 2,21,-1
 614 603 l 1,22,-1
 640 710 l 1,23,-1
 876 710 l 1,24,-1
 850 603 l 1,25,-1
 840 603 l 2,26,27
 816 603 816 603 799 597.5 c 128,-1,28
 782 592 782 592 777 570 c 2,29,-1
 632 0 l 1,30,-1
 440 0 l 1,31,-1
 266 662 l 1,32,-1
 304 651 l 1,33,-1
 169 117 l 2,34,35
 168 114 168 114 174 111.5 c 128,-1,36
 180 109 180 109 190.5 108 c 128,-1,37
 201 107 201 107 211 107 c 2,38,-1
 224 107 l 1,39,-1
 198 0 l 1,40,-1
 -38 0 l 1,0,-1
EndSplineSet
EndChar

StartChar: O
Encoding: 79 79 34
Width: 826
GlyphClass: 2
Flags: W
AnchorPoint: "Anchor-2" 434 0 basechar 0
AnchorPoint: "Anchor-1" 413 0 basechar 0
AnchorPoint: "Anchor-0" 413 741 basechar 0
LayerCount: 2
Fore
SplineSet
368 -25 m 0,0,1
 291 -25 291 -25 232 -3.5 c 128,-1,2
 173 18 173 18 132 56.5 c 128,-1,3
 91 95 91 95 70 147 c 128,-1,4
 49 199 49 199 49 261 c 256,5,6
 49 323 49 323 63.5 389.5 c 128,-1,7
 78 456 78 456 109 517.5 c 128,-1,8
 140 579 140 579 189 628 c 128,-1,9
 238 677 238 677 308 706 c 128,-1,10
 378 735 378 735 471 735 c 0,11,12
 548 735 548 735 607.5 713.5 c 128,-1,13
 667 692 667 692 708 653.5 c 128,-1,14
 749 615 749 615 769.5 563 c 128,-1,15
 790 511 790 511 790 449 c 256,16,17
 790 387 790 387 775.5 320.5 c 128,-1,18
 761 254 761 254 730 192.5 c 128,-1,19
 699 131 699 131 650 82 c 128,-1,20
 601 33 601 33 531 4 c 128,-1,21
 461 -25 461 -25 368 -25 c 0,0,1
467 623 m 0,22,23
 426 623 426 623 394 610 c 128,-1,24
 362 597 362 597 336.5 569 c 128,-1,25
 311 541 311 541 290.5 496 c 128,-1,26
 270 451 270 451 253 386 c 0,27,28
 243 350 243 350 237 321.5 c 128,-1,29
 231 293 231 293 229 269.5 c 128,-1,30
 227 246 227 246 227 225 c 0,31,32
 227 193 227 193 236 167 c 128,-1,33
 245 141 245 141 263 123.5 c 128,-1,34
 281 106 281 106 308.5 96.5 c 128,-1,35
 336 87 336 87 373 87 c 0,36,37
 413 87 413 87 445 100 c 128,-1,38
 477 113 477 113 502.5 141 c 128,-1,39
 528 169 528 169 548.5 214 c 128,-1,40
 569 259 569 259 587 324 c 0,41,42
 597 360 597 360 602.5 389.5 c 128,-1,43
 608 419 608 419 610 443 c 128,-1,44
 612 467 612 467 612 488 c 0,45,46
 612 520 612 520 603 545 c 128,-1,47
 594 570 594 570 576 587 c 128,-1,48
 558 604 558 604 530.5 613.5 c 128,-1,49
 503 623 503 623 467 623 c 0,22,23
EndSplineSet
EndChar

StartChar: P
Encoding: 80 80 40
Width: 736
GlyphClass: 1
Flags: W
LayerCount: 2
Fore
SplineSet
332 107 m 1,0,-1
 307 0 l 1,1,-1
 -38 0 l 1,2,-1
 -13 105 l 1,3,-1
 -3 105 l 2,4,5
 25 105 25 105 44 112.5 c 128,-1,6
 63 120 63 120 68 142 c 2,7,-1
 178 569 l 2,8,9
 182 584 182 584 176 591.5 c 128,-1,10
 170 599 170 599 157 602 c 128,-1,11
 144 605 144 605 125 605 c 2,12,-1
 115 605 l 1,13,-1
 140 710 l 1,14,-1
 489 710 l 2,15,16
 571 710 571 710 626 687 c 128,-1,17
 681 664 681 664 709 621.5 c 128,-1,18
 737 579 737 579 737 519 c 0,19,20
 737 460 737 460 715 413.5 c 128,-1,21
 693 367 693 367 653.5 335 c 128,-1,22
 614 303 614 303 560 286.5 c 128,-1,23
 506 270 506 270 441 270 c 2,24,-1
 284 270 l 1,25,-1
 244 117 l 2,26,27
 243 114 243 114 251.5 111.5 c 128,-1,28
 260 109 260 109 275 108 c 128,-1,29
 290 107 290 107 309 107 c 2,30,-1
 332 107 l 1,0,-1
558 518 m 0,31,32
 558 547 558 547 548 566 c 128,-1,33
 538 585 538 585 517.5 594.5 c 128,-1,34
 497 604 497 604 464 604 c 2,35,-1
 369 604 l 1,36,-1
 308 376 l 1,37,-1
 428 376 l 2,38,39
 461 376 461 376 485 387.5 c 128,-1,40
 509 399 509 399 525 419.5 c 128,-1,41
 541 440 541 440 549.5 465.5 c 128,-1,42
 558 491 558 491 558 518 c 0,31,32
EndSplineSet
EndChar

StartChar: Q
Encoding: 81 81 41
Width: 826
GlyphClass: 1
Flags: W
LayerCount: 2
Fore
SplineSet
790 449 m 256,0,1
 790 387 790 387 775.5 320.5 c 128,-1,2
 761 254 761 254 730 192.5 c 128,-1,3
 699 131 699 131 650 82 c 128,-1,4
 601 33 601 33 531 4 c 128,-1,5
 461 -25 461 -25 368 -25 c 0,6,7
 291 -25 291 -25 232 -3.5 c 128,-1,8
 173 18 173 18 132 56.5 c 128,-1,9
 91 95 91 95 70 147 c 128,-1,10
 49 199 49 199 49 261 c 256,11,12
 49 323 49 323 63.5 389.5 c 128,-1,13
 78 456 78 456 109 517.5 c 128,-1,14
 140 579 140 579 189 628 c 128,-1,15
 238 677 238 677 308 706 c 128,-1,16
 378 735 378 735 471 735 c 0,17,18
 548 735 548 735 607.5 713.5 c 128,-1,19
 667 692 667 692 708 653.5 c 128,-1,20
 749 615 749 615 769.5 563 c 128,-1,21
 790 511 790 511 790 449 c 256,0,1
373 87 m 0,22,23
 413 87 413 87 445 100 c 128,-1,24
 477 113 477 113 502.5 141 c 128,-1,25
 528 169 528 169 548.5 214 c 128,-1,26
 569 259 569 259 587 324 c 0,27,28
 597 360 597 360 602.5 389.5 c 128,-1,29
 608 419 608 419 610 444.5 c 128,-1,30
 612 470 612 470 612 493 c 0,31,32
 612 521 612 521 603 544.5 c 128,-1,33
 594 568 594 568 576 585.5 c 128,-1,34
 558 603 558 603 530.5 613 c 128,-1,35
 503 623 503 623 467 623 c 0,36,37
 426 623 426 623 394 610 c 128,-1,38
 362 597 362 597 336.5 569 c 128,-1,39
 311 541 311 541 290.5 496 c 128,-1,40
 270 451 270 451 253 386 c 0,41,42
 243 350 243 350 237 321.5 c 128,-1,43
 231 293 231 293 229 268 c 128,-1,44
 227 243 227 243 227 221 c 0,45,46
 227 191 227 191 236 166.5 c 128,-1,47
 245 142 245 142 263 124.5 c 128,-1,48
 281 107 281 107 308.5 97 c 128,-1,49
 336 87 336 87 373 87 c 0,22,23
511 -267 m 0,50,51
 460 -267 460 -267 418.5 -257 c 128,-1,52
 377 -247 377 -247 347 -227 c 128,-1,53
 317 -207 317 -207 301 -178 c 128,-1,54
 285 -149 285 -149 285 -111 c 0,55,56
 285 -82 285 -82 291 -53.5 c 128,-1,57
 297 -25 297 -25 306 2 c 1,58,-1
 423 10 l 1,59,60
 418 -5 418 -5 415.5 -20 c 128,-1,61
 413 -35 413 -35 413 -53 c 0,62,63
 413 -78 413 -78 426.5 -95.5 c 128,-1,64
 440 -113 440 -113 466.5 -122.5 c 128,-1,65
 493 -132 493 -132 532 -132 c 0,66,67
 564 -132 564 -132 595 -128 c 128,-1,68
 626 -124 626 -124 654 -117.5 c 128,-1,69
 682 -111 682 -111 705 -103 c 1,70,-1
 669 -247 l 1,71,72
 643 -254 643 -254 602 -260.5 c 128,-1,73
 561 -267 561 -267 511 -267 c 0,50,51
EndSplineSet
EndChar

StartChar: R
Encoding: 82 82 42
Width: 798
GlyphClass: 2
Flags: W
AnchorPoint: "Anchor-1" 439 0 basechar 0
AnchorPoint: "Anchor-0" 439 741 basechar 0
LayerCount: 2
Fore
SplineSet
398 320 m 1,0,-1
 558 374 l 1,1,-1
 625 168 l 2,2,3
 634 143 634 143 645.5 129.5 c 128,-1,4
 657 116 657 116 671.5 111.5 c 128,-1,5
 686 107 686 107 705 107 c 2,6,-1
 720 107 l 1,7,-1
 695 0 l 1,8,-1
 493 0 l 1,9,-1
 398 320 l 1,0,-1
325 107 m 1,10,-1
 300 0 l 1,11,-1
 -38 0 l 1,12,-1
 -13 107 l 1,13,-1
 -2 107 l 2,14,15
 25 107 25 107 43.5 114 c 128,-1,16
 62 121 62 121 67 143 c 2,17,-1
 177 567 l 2,18,19
 182 589 182 589 167.5 596 c 128,-1,20
 153 603 153 603 125 603 c 2,21,-1
 114 603 l 1,22,-1
 140 710 l 1,23,-1
 516 710 l 2,24,25
 590 710 590 710 642 689 c 128,-1,26
 694 668 694 668 721 628 c 128,-1,27
 748 588 748 588 748 532 c 0,28,29
 748 482 748 482 730.5 444 c 128,-1,30
 713 406 713 406 682 378.5 c 128,-1,31
 651 351 651 351 611 334.5 c 128,-1,32
 571 318 571 318 525 311 c 0,33,34
 500 306 500 306 486 299 c 128,-1,35
 472 292 472 292 461 287 c 128,-1,36
 450 282 450 282 434 281 c 2,37,-1
 285 281 l 1,38,-1
 242 117 l 2,39,40
 241 114 241 114 250 111.5 c 128,-1,41
 259 109 259 109 274.5 108 c 128,-1,42
 290 107 290 107 309 107 c 2,43,-1
 325 107 l 1,10,-1
460 607 m 2,44,-1
 367 607 l 1,45,-1
 309 384 l 1,46,-1
 440 384 l 2,47,48
 468 384 468 384 490 394.5 c 128,-1,49
 512 405 512 405 528 423.5 c 128,-1,50
 544 442 544 442 552.5 466.5 c 128,-1,51
 561 491 561 491 561 519 c 0,52,53
 561 549 561 549 550 568 c 128,-1,54
 539 587 539 587 517 597 c 128,-1,55
 495 607 495 607 460 607 c 2,44,-1
EndSplineSet
EndChar

StartChar: S
Encoding: 83 83 43
Width: 682
GlyphClass: 2
Flags: W
AnchorPoint: "Anchor-1" 368 0 basechar 0
AnchorPoint: "Anchor-0" 368 741 basechar 0
LayerCount: 2
Fore
SplineSet
339 -25 m 0,0,1
 284 -25 284 -25 241 -15 c 128,-1,2
 198 -5 198 -5 167.5 15.5 c 128,-1,3
 137 36 137 36 119 68 c 128,-1,4
 101 100 101 100 95 144 c 0,5,6
 96 155 96 155 102 161.5 c 128,-1,7
 108 168 108 168 115 165 c 128,-1,8
 122 162 122 162 122 144 c 1,9,-1
 66 -4 l 1,10,-1
 -27 -4 l 1,11,-1
 33 236 l 1,12,-1
 147 236 l 1,13,14
 150 190 150 190 163.5 158.5 c 128,-1,15
 177 127 177 127 200 107.5 c 128,-1,16
 223 88 223 88 255.5 79 c 128,-1,17
 288 70 288 70 329 70 c 0,18,19
 376 70 376 70 402.5 82.5 c 128,-1,20
 429 95 429 95 440 116 c 128,-1,21
 451 137 451 137 451 164 c 0,22,23
 451 189 451 189 439 207 c 128,-1,24
 427 225 427 225 404.5 240 c 128,-1,25
 382 255 382 255 350 269 c 128,-1,26
 318 283 318 283 278 301 c 0,27,28
 231 321 231 321 193.5 346 c 128,-1,29
 156 371 156 371 133.5 408.5 c 128,-1,30
 111 446 111 446 111 503 c 0,31,32
 111 572 111 572 140.5 624.5 c 128,-1,33
 170 677 170 677 229 706 c 128,-1,34
 288 735 288 735 377 735 c 0,35,36
 439 735 439 735 478.5 719.5 c 128,-1,37
 518 704 518 704 540.5 671 c 128,-1,38
 563 638 563 638 570 585 c 1,39,40
 565 573 565 573 557.5 569 c 128,-1,41
 550 565 550 565 545.5 571 c 128,-1,42
 541 577 541 577 543 594 c 1,43,-1
 593 722 l 1,44,-1
 684 722 l 1,45,-1
 630 502 l 1,46,-1
 521 502 l 1,47,48
 518 553 518 553 502.5 583 c 128,-1,49
 487 613 487 613 458 627 c 128,-1,50
 429 641 429 641 383 641 c 0,51,52
 344 641 344 641 319.5 631.5 c 128,-1,53
 295 622 295 622 283.5 603.5 c 128,-1,54
 272 585 272 585 272 558 c 0,55,56
 272 537 272 537 280 522 c 128,-1,57
 288 507 288 507 305.5 495 c 128,-1,58
 323 483 323 483 350 471 c 128,-1,59
 377 459 377 459 415 443 c 0,60,61
 454 427 454 427 489.5 408 c 128,-1,62
 525 389 525 389 553 364 c 128,-1,63
 581 339 581 339 597.5 305 c 128,-1,64
 614 271 614 271 614 224 c 0,65,66
 614 172 614 172 598 126.5 c 128,-1,67
 582 81 582 81 549 47 c 128,-1,68
 516 13 516 13 464 -6 c 128,-1,69
 412 -25 412 -25 339 -25 c 0,0,1
EndSplineSet
EndChar

StartChar: Scaron
Encoding: 138 352 44
Width: 682
GlyphClass: 1
Flags: W
LayerCount: 2
Fore
SplineSet
343 787 m 1,0,-1
 463 787 l 1,1,-1
 647 944 l 1,2,-1
 658 991 l 1,3,-1
 577 991 l 1,4,-1
 391 887 l 1,5,-1
 455 887 l 1,6,-1
 319 991 l 1,7,-1
 249 991 l 1,8,-1
 238 944 l 1,9,-1
 343 787 l 1,0,-1
339 -25 m 0,10,11
 284 -25 284 -25 241 -15 c 128,-1,12
 198 -5 198 -5 167.5 15.5 c 128,-1,13
 137 36 137 36 119 68 c 128,-1,14
 101 100 101 100 95 144 c 0,15,16
 96 155 96 155 102 161.5 c 128,-1,17
 108 168 108 168 115 165 c 128,-1,18
 122 162 122 162 122 144 c 1,19,-1
 66 -4 l 1,20,-1
 -27 -4 l 1,21,-1
 33 236 l 1,22,-1
 147 236 l 1,23,24
 150 190 150 190 163.5 158.5 c 128,-1,25
 177 127 177 127 200 107.5 c 128,-1,26
 223 88 223 88 255.5 79 c 128,-1,27
 288 70 288 70 329 70 c 0,28,29
 376 70 376 70 402.5 82.5 c 128,-1,30
 429 95 429 95 440 116 c 128,-1,31
 451 137 451 137 451 164 c 0,32,33
 451 189 451 189 439 207 c 128,-1,34
 427 225 427 225 404.5 240 c 128,-1,35
 382 255 382 255 350 269 c 128,-1,36
 318 283 318 283 278 301 c 0,37,38
 231 321 231 321 193.5 346 c 128,-1,39
 156 371 156 371 133.5 408.5 c 128,-1,40
 111 446 111 446 111 503 c 0,41,42
 111 572 111 572 140.5 624.5 c 128,-1,43
 170 677 170 677 229 706 c 128,-1,44
 288 735 288 735 377 735 c 0,45,46
 439 735 439 735 478.5 719.5 c 128,-1,47
 518 704 518 704 540.5 671 c 128,-1,48
 563 638 563 638 570 585 c 1,49,50
 565 573 565 573 557.5 569 c 128,-1,51
 550 565 550 565 545.5 571 c 128,-1,52
 541 577 541 577 543 594 c 1,53,-1
 593 722 l 1,54,-1
 684 722 l 1,55,-1
 630 502 l 1,56,-1
 521 502 l 1,57,58
 518 553 518 553 502.5 583 c 128,-1,59
 487 613 487 613 458 627 c 128,-1,60
 429 641 429 641 383 641 c 0,61,62
 344 641 344 641 319.5 631.5 c 128,-1,63
 295 622 295 622 283.5 603.5 c 128,-1,64
 272 585 272 585 272 558 c 0,65,66
 272 537 272 537 280 522 c 128,-1,67
 288 507 288 507 305.5 495 c 128,-1,68
 323 483 323 483 350 471 c 128,-1,69
 377 459 377 459 415 443 c 0,70,71
 454 427 454 427 489.5 408 c 128,-1,72
 525 389 525 389 553 364 c 128,-1,73
 581 339 581 339 597.5 305 c 128,-1,74
 614 271 614 271 614 224 c 0,75,76
 614 172 614 172 598 126.5 c 128,-1,77
 582 81 582 81 549 47 c 128,-1,78
 516 13 516 13 464 -6 c 128,-1,79
 412 -25 412 -25 339 -25 c 0,10,11
EndSplineSet
EndChar

StartChar: T
Encoding: 84 84 45
Width: 765
GlyphClass: 2
Flags: W
AnchorPoint: "Anchor-1" 382 0 basechar 0
AnchorPoint: "Anchor-0" 382 741 basechar 0
LayerCount: 2
Fore
SplineSet
241 143 m 2,0,-1
 359 603 l 1,1,-1
 330 603 l 2,2,3
 292 603 292 603 269 597.5 c 128,-1,4
 246 592 246 592 234 580.5 c 128,-1,5
 222 569 222 569 215 550 c 2,6,-1
 170 430 l 1,7,-1
 63 430 l 1,8,-1
 134 710 l 1,9,-1
 816 710 l 1,10,-1
 746 430 l 1,11,-1
 638 430 l 1,12,-1
 660 550 l 2,13,14
 663 568 663 568 656.5 580 c 128,-1,15
 650 592 650 592 629.5 597.5 c 128,-1,16
 609 603 609 603 572 603 c 2,17,-1
 540 603 l 1,18,-1
 422 143 l 2,19,20
 417 121 417 121 434.5 114 c 128,-1,21
 452 107 452 107 480 107 c 2,22,-1
 499 107 l 1,23,-1
 474 0 l 1,24,-1
 121 0 l 1,25,-1
 146 107 l 1,26,-1
 165 107 l 2,27,28
 193 107 193 107 214.5 114 c 128,-1,29
 236 121 236 121 241 143 c 2,0,-1
EndSplineSet
EndChar

StartChar: U
Encoding: 85 85 46
Width: 778
GlyphClass: 2
Flags: W
AnchorPoint: "Anchor-2" 443 0 basechar 0
AnchorPoint: "Anchor-1" 389 0 basechar 0
AnchorPoint: "Anchor-0" 389 741 basechar 0
LayerCount: 2
Fore
SplineSet
284 338 m 2,0,1
 275 303 275 303 270 279 c 128,-1,2
 265 255 265 255 263.5 237.5 c 128,-1,3
 262 220 262 220 262 203 c 0,4,5
 262 180 262 180 269 160.5 c 128,-1,6
 276 141 276 141 290.5 127 c 128,-1,7
 305 113 305 113 329 105.5 c 128,-1,8
 353 98 353 98 387 98 c 0,9,10
 433 98 433 98 466.5 116 c 128,-1,11
 500 134 500 134 524 174 c 128,-1,12
 548 214 548 214 564 281 c 2,13,-1
 643 585 l 2,14,15
 645 591 645 591 637.5 595.5 c 128,-1,16
 630 600 630 600 616.5 601.5 c 128,-1,17
 603 603 603 603 587 603 c 2,18,-1
 572 603 l 1,19,-1
 598 710 l 1,20,-1
 841 710 l 1,21,-1
 815 603 l 1,22,-1
 805 603 l 2,23,24
 779 603 779 603 765.5 595.5 c 128,-1,25
 752 588 752 588 746 564 c 2,26,-1
 665 244 l 2,27,28
 641 147 641 147 598.5 87.5 c 128,-1,29
 556 28 556 28 496.5 1.5 c 128,-1,30
 437 -25 437 -25 361 -25 c 0,31,32
 299 -25 299 -25 247.5 -11 c 128,-1,33
 196 3 196 3 159 31 c 128,-1,34
 122 59 122 59 101.5 99.5 c 128,-1,35
 81 140 81 140 81 193 c 0,36,37
 81 212 81 212 83.5 233 c 128,-1,38
 86 254 86 254 91.5 282 c 128,-1,39
 97 310 97 310 105 346 c 2,40,-1
 162 567 l 2,41,42
 167 589 167 589 151 596 c 128,-1,43
 135 603 135 603 107 603 c 2,44,-1
 96 603 l 1,45,-1
 122 710 l 1,46,-1
 450 710 l 1,47,-1
 424 603 l 1,48,-1
 413 603 l 2,49,50
 400 603 400 603 385.5 602 c 128,-1,51
 371 601 371 601 361 599 c 128,-1,52
 351 597 351 597 350 593 c 2,53,-1
 284 338 l 2,0,1
EndSplineSet
EndChar

StartChar: V
Encoding: 86 86 51
Width: 742
GlyphClass: 1
Flags: W
LayerCount: 2
Fore
SplineSet
363 62 m 1,0,-1
 326 64 l 1,1,-1
 615 580 l 2,2,3
 616 587 616 587 612 592 c 128,-1,4
 608 597 608 597 595.5 600 c 128,-1,5
 583 603 583 603 559 603 c 2,6,-1
 550 603 l 1,7,-1
 576 710 l 1,8,-1
 826 710 l 1,9,-1
 800 603 l 1,10,-1
 794 603 l 2,11,12
 773 603 773 603 750.5 590 c 128,-1,13
 728 577 728 577 706 539 c 2,14,-1
 401 -5 l 1,15,-1
 191 -5 l 1,16,-1
 162 539 l 2,17,18
 160 578 160 578 141.5 590.5 c 128,-1,19
 123 603 123 603 96 603 c 2,20,-1
 91 603 l 1,21,-1
 116 710 l 1,22,-1
 439 710 l 1,23,-1
 414 603 l 1,24,-1
 405 603 l 2,25,26
 380 603 380 603 366.5 601.5 c 128,-1,27
 353 600 353 600 347.5 598 c 128,-1,28
 342 596 342 596 341 592 c 2,29,-1
 363 62 l 1,0,-1
EndSplineSet
EndChar

StartChar: W
Encoding: 87 87 52
Width: 1076
GlyphClass: 2
Flags: W
AnchorPoint: "Anchor-0" 549 741 basechar 0
LayerCount: 2
Fore
SplineSet
117 710 m 1,0,-1
 427 710 l 1,1,-1
 401 603 l 1,2,-1
 389 603 l 2,3,4
 374 603 374 603 362 601.5 c 128,-1,5
 350 600 350 600 342 598 c 128,-1,6
 334 596 334 596 333 592 c 2,7,-1
 318 108 l 1,8,-1
 280 120 l 1,9,-1
 587 710 l 1,10,-1
 776 710 l 1,11,-1
 764 112 l 1,12,-1
 720 102 l 1,13,-1
 964 583 l 2,14,15
 965 589 965 589 961 593 c 128,-1,16
 957 597 957 597 948.5 600 c 128,-1,17
 940 603 940 603 926 603 c 2,18,-1
 915 603 l 1,19,-1
 941 710 l 1,20,-1
 1155 710 l 1,21,-1
 1129 603 l 1,22,-1
 1122 603 l 2,23,24
 1101 603 1101 603 1087 594 c 128,-1,25
 1073 585 1073 585 1064 566 c 2,26,-1
 777 0 l 1,27,-1
 593 0 l 1,28,-1
 604 588 l 1,29,-1
 632 586 l 1,30,-1
 329 0 l 1,31,-1
 138 0 l 1,32,-1
 147 575 l 2,33,34
 148 594 148 594 135 598.5 c 128,-1,35
 122 603 122 603 98 603 c 2,36,-1
 91 603 l 1,37,-1
 117 710 l 1,0,-1
EndSplineSet
EndChar

StartChar: X
Encoding: 88 88 53
Width: 765
GlyphClass: 1
Flags: W
LayerCount: 2
Fore
SplineSet
104 603 m 1,0,-1
 127 710 l 1,1,-1
 452 710 l 1,2,-1
 428 603 l 1,3,-1
 413 603 l 2,4,5
 399 603 399 603 386.5 602 c 128,-1,6
 374 601 374 601 367 599.5 c 128,-1,7
 360 598 360 598 360 595 c 2,8,-1
 461 396 l 1,9,-1
 472 388 l 1,10,-1
 601 141 l 2,11,12
 608 127 608 127 616.5 119.5 c 128,-1,13
 625 112 625 112 636.5 109.5 c 128,-1,14
 648 107 648 107 662 107 c 2,15,-1
 682 107 l 1,16,-1
 658 0 l 1,17,-1
 325 0 l 1,18,-1
 349 107 l 1,19,-1
 366 107 l 2,20,21
 379 107 379 107 390.5 108 c 128,-1,22
 402 109 402 109 409 111.5 c 128,-1,23
 416 114 416 114 416 117 c 2,24,-1
 306 332 l 1,25,-1
 296 338 l 1,26,-1
 177 569 l 2,27,28
 170 583 170 583 162 590.5 c 128,-1,29
 154 598 154 598 143 600.5 c 128,-1,30
 132 603 132 603 112 603 c 2,31,-1
 104 603 l 1,0,-1
-55 0 m 1,32,-1
 -31 107 l 1,33,-1
 -18 107 l 2,34,35
 -3 107 -3 107 8 111 c 128,-1,36
 19 115 19 115 31 125 c 128,-1,37
 43 135 43 135 59 153 c 2,38,-1
 301 395 l 1,39,-1
 390 352 l 1,40,-1
 168 121 l 2,41,42
 167 117 167 117 172.5 114 c 128,-1,43
 178 111 178 111 189.5 109 c 128,-1,44
 201 107 201 107 214 107 c 2,45,-1
 230 107 l 1,46,-1
 206 0 l 1,47,-1
 -55 0 l 1,32,-1
436 294 m 1,48,-1
 384 380 l 1,49,-1
 594 591 l 2,50,51
 595 595 595 595 589 597.5 c 128,-1,52
 583 600 583 600 572 601.5 c 128,-1,53
 561 603 561 603 548 603 c 2,54,-1
 535 603 l 1,55,-1
 559 710 l 1,56,-1
 805 710 l 1,57,-1
 782 603 l 1,58,-1
 773 603 l 2,59,60
 758 603 758 603 747 599 c 128,-1,61
 736 595 736 595 724.5 585 c 128,-1,62
 713 575 713 575 696 558 c 2,63,-1
 436 294 l 1,48,-1
EndSplineSet
EndChar

StartChar: Y
Encoding: 89 89 54
Width: 715
GlyphClass: 2
Flags: W
AnchorPoint: "Anchor-1" 361 0 basechar 0
AnchorPoint: "Anchor-0" 419 741 basechar 0
LayerCount: 2
Fore
SplineSet
104 0 m 1,0,-1
 130 107 l 1,1,-1
 149 107 l 2,2,3
 178 107 178 107 199 114 c 128,-1,4
 220 121 220 121 226 143 c 2,5,-1
 265 293 l 1,6,-1
 265 245 l 1,7,-1
 153 551 l 2,8,9
 146 570 146 570 139.5 581.5 c 128,-1,10
 133 593 133 593 122.5 598 c 128,-1,11
 112 603 112 603 95 603 c 2,12,-1
 87 603 l 1,13,-1
 113 710 l 1,14,-1
 424 710 l 1,15,-1
 397 603 l 1,16,-1
 385 603 l 2,17,18
 366 603 366 603 352.5 601.5 c 128,-1,19
 339 600 339 600 332 598 c 128,-1,20
 325 596 325 596 324 592 c 2,21,-1
 423 302 l 1,22,-1
 336 298 l 1,23,-1
 588 585 l 2,24,25
 589 591 589 591 584 595 c 128,-1,26
 579 599 579 599 569 601 c 128,-1,27
 559 603 559 603 544 603 c 2,28,-1
 535 603 l 1,29,-1
 561 710 l 1,30,-1
 794 710 l 1,31,-1
 768 603 l 1,32,-1
 759 603 l 2,33,34
 746 603 746 603 735.5 597.5 c 128,-1,35
 725 592 725 592 714 581 c 128,-1,36
 703 570 703 570 687 551 c 2,37,-1
 408 233 l 1,38,-1
 444 293 l 1,39,-1
 405 143 l 2,40,41
 402 129 402 129 408.5 121 c 128,-1,42
 415 113 415 113 429.5 110 c 128,-1,43
 444 107 444 107 462 107 c 2,44,-1
 482 107 l 1,45,-1
 456 0 l 1,46,-1
 104 0 l 1,0,-1
EndSplineSet
EndChar

StartChar: Z
Encoding: 90 90 57
Width: 685
GlyphClass: 2
Flags: W
AnchorPoint: "Anchor-1" 355 0 basechar 0
AnchorPoint: "Anchor-0" 355 741 basechar 0
LayerCount: 2
Fore
SplineSet
108 106 m 1,0,-1
 350 106 l 2,1,2
 381 106 381 106 401.5 108 c 128,-1,3
 422 110 422 110 436 115 c 128,-1,4
 450 120 450 120 458.5 128.5 c 128,-1,5
 467 137 467 137 472 150 c 2,6,-1
 515 259 l 1,7,-1
 625 259 l 1,8,-1
 561 0 l 1,9,-1
 -40 0 l 1,10,-1
 -7 133 l 1,11,-1
 539 657 l 1,12,-1
 556 604 l 1,13,-1
 336 604 l 2,14,15
 311 604 311 604 293.5 602 c 128,-1,16
 276 600 276 600 264.5 595.5 c 128,-1,17
 253 591 253 591 246 582.5 c 128,-1,18
 239 574 239 574 233 560 c 2,19,-1
 202 481 l 1,20,-1
 94 481 l 1,21,-1
 151 710 l 1,22,-1
 717 710 l 1,23,-1
 685 580 l 1,24,-1
 123 40 l 1,25,-1
 108 106 l 1,0,-1
EndSplineSet
EndChar

StartChar: Zcaron
Encoding: 142 381 58
Width: 685
GlyphClass: 1
Flags: W
LayerCount: 2
Fore
SplineSet
374 787 m 1,0,-1
 494 787 l 1,1,-1
 678 944 l 1,2,-1
 689 991 l 1,3,-1
 608 991 l 1,4,-1
 422 887 l 1,5,-1
 487 887 l 1,6,-1
 350 991 l 1,7,-1
 280 991 l 1,8,-1
 269 944 l 1,9,-1
 374 787 l 1,0,-1
108 106 m 1,10,-1
 350 106 l 2,11,12
 381 106 381 106 401.5 108 c 128,-1,13
 422 110 422 110 436 115 c 128,-1,14
 450 120 450 120 458.5 128.5 c 128,-1,15
 467 137 467 137 472 150 c 2,16,-1
 515 259 l 1,17,-1
 625 259 l 1,18,-1
 561 0 l 1,19,-1
 -40 0 l 1,20,-1
 -7 133 l 1,21,-1
 539 657 l 1,22,-1
 556 604 l 1,23,-1
 336 604 l 2,24,25
 311 604 311 604 293.5 602 c 128,-1,26
 276 600 276 600 264.5 595.5 c 128,-1,27
 253 591 253 591 246 582.5 c 128,-1,28
 239 574 239 574 233 560 c 2,29,-1
 202 481 l 1,30,-1
 94 481 l 1,31,-1
 151 710 l 1,32,-1
 717 710 l 1,33,-1
 685 580 l 1,34,-1
 123 40 l 1,35,-1
 108 106 l 1,10,-1
EndSplineSet
EndChar

StartChar: AE
Encoding: 198 198 59
Width: 1139
GlyphClass: 2
Flags: W
AnchorPoint: "Anchor-0" 792 711 basechar 0
LayerCount: 2
Fore
SplineSet
-23 107 m 1,0,-1
 -17 107 l 2,1,2
 7 107 7 107 30 120.5 c 128,-1,3
 53 134 53 134 83 171 c 2,4,-1
 431 593 l 1,5,6
 433 603 433 603 426.5 609 c 128,-1,7
 420 615 420 615 407.5 618 c 128,-1,8
 395 621 395 621 377 621 c 2,9,-1
 365 621 l 1,10,-1
 387 710 l 1,11,-1
 1151 710 l 1,12,-1
 1107 509 l 1,13,-1
 996 509 l 1,14,-1
 999 559 l 2,15,16
 999 577 999 577 992 586.5 c 128,-1,17
 985 596 985 596 967 600 c 128,-1,18
 949 604 949 604 915 604 c 2,19,-1
 791 604 l 1,20,-1
 663 106 l 1,21,-1
 789 106 l 2,22,23
 829 106 829 106 853 110 c 128,-1,24
 877 114 877 114 890 124 c 128,-1,25
 903 134 903 134 910 151 c 2,26,-1
 944 226 l 1,27,-1
 1056 226 l 1,28,-1
 1002 0 l 1,29,-1
 385 0 l 1,30,-1
 411 107 l 1,31,-1
 422 107 l 2,32,33
 449 107 449 107 467.5 114 c 128,-1,34
 486 121 486 121 491 143 c 2,35,-1
 610 619 l 1,36,-1
 575 619 l 1,37,-1
 173 130 l 2,38,39
 172 124 172 124 175 118.5 c 128,-1,40
 178 113 178 113 188 110 c 128,-1,41
 198 107 198 107 217 107 c 2,42,-1
 226 107 l 1,43,-1
 201 0 l 1,44,-1
 -48 0 l 1,45,-1
 -23 107 l 1,0,-1
240 302 m 1,46,-1
 559 302 l 1,47,-1
 545 206 l 1,48,-1
 198 206 l 1,49,-1
 240 302 l 1,46,-1
723 410 m 1,50,51
 768 414 768 414 813 418 c 128,-1,52
 858 422 858 422 903 426.5 c 128,-1,53
 948 431 948 431 993 434 c 1,54,-1
 961 296 l 1,55,56
 919 301 919 301 876 305 c 128,-1,57
 833 309 833 309 789.5 313 c 128,-1,58
 746 317 746 317 702 321 c 1,59,-1
 723 410 l 1,50,51
EndSplineSet
EndChar

StartChar: Eth
Encoding: 208 208 60
Width: 826
GlyphClass: 1
Flags: W
LayerCount: 2
Fore
SplineSet
29 310 m 1,0,-1
 54 416 l 1,1,-1
 468 416 l 1,2,-1
 443 310 l 1,3,-1
 29 310 l 1,0,-1
140 710 m 1,4,-1
 448 710 l 2,5,6
 527 710 527 710 590.5 691 c 128,-1,7
 654 672 654 672 699 635.5 c 128,-1,8
 744 599 744 599 767.5 546 c 128,-1,9
 791 493 791 493 791 424 c 0,10,11
 791 354 791 354 773.5 290 c 128,-1,12
 756 226 756 226 721.5 173.5 c 128,-1,13
 687 121 687 121 636 82 c 128,-1,14
 585 43 585 43 517.5 21.5 c 128,-1,15
 450 0 450 0 368 0 c 2,16,-1
 -38 0 l 1,17,-1
 -12 107 l 1,18,-1
 0 107 l 2,19,20
 26 107 26 107 44.5 114 c 128,-1,21
 63 121 63 121 68 143 c 2,22,-1
 177 567 l 2,23,24
 182 589 182 589 167.5 596 c 128,-1,25
 153 603 153 603 126 603 c 2,26,-1
 114 603 l 1,27,-1
 140 710 l 1,4,-1
436 604 m 2,28,-1
 367 604 l 1,29,-1
 240 106 l 1,30,-1
 364 106 l 2,31,32
 409 106 409 106 444 120 c 128,-1,33
 479 134 479 134 506 159 c 128,-1,34
 533 184 533 184 552 217 c 128,-1,35
 571 250 571 250 583 289 c 128,-1,36
 595 328 595 328 600.5 369 c 128,-1,37
 606 410 606 410 606 451 c 0,38,39
 606 499 606 499 588 533 c 128,-1,40
 570 567 570 567 532.5 585.5 c 128,-1,41
 495 604 495 604 436 604 c 2,28,-1
EndSplineSet
EndChar

StartChar: Oslash
Encoding: 216 216 61
Width: 826
GlyphClass: 2
Flags: W
AnchorPoint: "Anchor-0" 405 731 basechar 0
LayerCount: 2
Fore
SplineSet
368 -25 m 0,0,1
 291 -25 291 -25 232 -3.5 c 128,-1,2
 173 18 173 18 132 56.5 c 128,-1,3
 91 95 91 95 70 147 c 128,-1,4
 49 199 49 199 49 261 c 256,5,6
 49 323 49 323 63.5 389.5 c 128,-1,7
 78 456 78 456 109 517.5 c 128,-1,8
 140 579 140 579 189 628 c 128,-1,9
 238 677 238 677 308 706 c 128,-1,10
 378 735 378 735 471 735 c 0,11,12
 548 735 548 735 607.5 713.5 c 128,-1,13
 667 692 667 692 708 653.5 c 128,-1,14
 749 615 749 615 769.5 563 c 128,-1,15
 790 511 790 511 790 449 c 256,16,17
 790 387 790 387 775.5 320.5 c 128,-1,18
 761 254 761 254 730 192.5 c 128,-1,19
 699 131 699 131 650 82 c 128,-1,20
 601 33 601 33 531 4 c 128,-1,21
 461 -25 461 -25 368 -25 c 0,0,1
373 87 m 0,22,23
 416 87 416 87 449.5 100 c 128,-1,24
 483 113 483 113 509 141 c 128,-1,25
 535 169 535 169 555.5 214 c 128,-1,26
 576 259 576 259 594 324 c 0,27,28
 604 360 604 360 609.5 389.5 c 128,-1,29
 615 419 615 419 617 443 c 128,-1,30
 619 467 619 467 619 488 c 0,31,32
 619 520 619 520 610.5 545 c 128,-1,33
 602 570 602 570 583 587.5 c 128,-1,34
 564 605 564 605 535.5 614 c 128,-1,35
 507 623 507 623 467 623 c 0,36,37
 423 623 423 623 389.5 610 c 128,-1,38
 356 597 356 597 330 569 c 128,-1,39
 304 541 304 541 283.5 496 c 128,-1,40
 263 451 263 451 245 386 c 0,41,42
 236 350 236 350 230 321.5 c 128,-1,43
 224 293 224 293 221.5 269.5 c 128,-1,44
 219 246 219 246 219 225 c 0,45,46
 219 192 219 192 228 166 c 128,-1,47
 237 140 237 140 256 122.5 c 128,-1,48
 275 105 275 105 304 96 c 128,-1,49
 333 87 333 87 373 87 c 0,22,23
-74 -25 m 1,50,-1
 775 735 l 1,51,-1
 901 735 l 1,52,-1
 52 -25 l 1,53,-1
 -74 -25 l 1,50,-1
EndSplineSet
EndChar

StartChar: Thorn
Encoding: 222 222 62
Width: 743
GlyphClass: 1
Flags: W
LayerCount: 2
Fore
SplineSet
364 593 m 2,0,-1
 242 117 l 2,1,2
 241 114 241 114 250 111.5 c 128,-1,3
 259 109 259 109 274.5 108 c 128,-1,4
 290 107 290 107 309 107 c 2,5,-1
 332 107 l 1,6,-1
 307 0 l 1,7,-1
 -38 0 l 1,8,-1
 -13 105 l 1,9,-1
 -3 105 l 2,10,11
 25 105 25 105 43 112 c 128,-1,12
 61 119 61 119 66 141 c 2,13,-1
 177 569 l 2,14,15
 183 591 183 591 168.5 598 c 128,-1,16
 154 605 154 605 126 605 c 2,17,-1
 115 605 l 1,18,-1
 140 710 l 1,19,-1
 462 710 l 1,20,-1
 436 603 l 1,21,-1
 428 603 l 2,22,23
 415 603 415 603 400.5 602 c 128,-1,24
 386 601 386 601 375.5 599 c 128,-1,25
 365 597 365 597 364 593 c 2,0,-1
223 176 m 1,26,-1
 244 272 l 1,27,-1
 408 272 l 2,28,29
 442 272 442 272 466.5 280 c 128,-1,30
 491 288 491 288 506 303 c 128,-1,31
 521 318 521 318 528 338.5 c 128,-1,32
 535 359 535 359 535 383 c 0,33,34
 535 402 535 402 526 416.5 c 128,-1,35
 517 431 517 431 497.5 439 c 128,-1,36
 478 447 478 447 447 447 c 2,37,-1
 292 447 l 1,38,-1
 298 545 l 1,39,-1
 471 545 l 2,40,41
 552 545 552 545 606.5 526 c 128,-1,42
 661 507 661 507 689 471.5 c 128,-1,43
 717 436 717 436 717 387 c 0,44,45
 717 319 717 319 682.5 272 c 128,-1,46
 648 225 648 225 585 200.5 c 128,-1,47
 522 176 522 176 435 176 c 2,48,-1
 223 176 l 1,26,-1
EndSplineSet
EndChar

StartChar: OE
Encoding: 140 338 63
Width: 1115
GlyphClass: 1
Flags: W
LayerCount: 2
Fore
SplineSet
707 410 m 1,0,1
 753 414 753 414 798 418 c 128,-1,2
 843 422 843 422 887.5 426.5 c 128,-1,3
 932 431 932 431 977 434 c 1,4,-1
 946 296 l 1,5,6
 903 301 903 301 860 305 c 128,-1,7
 817 309 817 309 774 313 c 128,-1,8
 731 317 731 317 687 321 c 1,9,-1
 707 410 l 1,0,1
485 710 m 2,10,-1
 1127 710 l 1,11,-1
 1083 509 l 1,12,-1
 972 509 l 1,13,-1
 975 559 l 2,14,15
 975 577 975 577 968 586.5 c 128,-1,16
 961 596 961 596 943 600 c 128,-1,17
 925 604 925 604 891 604 c 2,18,-1
 777 604 l 1,19,-1
 650 106 l 1,20,-1
 773 106 l 2,21,22
 814 106 814 106 837.5 110 c 128,-1,23
 861 114 861 114 874 124 c 128,-1,24
 887 134 887 134 895 151 c 2,25,-1
 928 226 l 1,26,-1
 1040 226 l 1,27,-1
 986 0 l 1,28,-1
 389 0 l 2,29,30
 310 0 310 0 246.5 19 c 128,-1,31
 183 38 183 38 139 75.5 c 128,-1,32
 95 113 95 113 71.5 168 c 128,-1,33
 48 223 48 223 48 295 c 0,34,35
 48 363 48 363 66 425 c 128,-1,36
 84 487 84 487 120 539 c 128,-1,37
 156 591 156 591 208.5 629.5 c 128,-1,38
 261 668 261 668 330 689 c 128,-1,39
 399 710 399 710 485 710 c 2,10,-1
400 107 m 2,40,-1
 469 107 l 1,41,-1
 596 603 l 1,42,-1
 491 603 l 2,43,44
 447 603 447 603 410 589.5 c 128,-1,45
 373 576 373 576 344.5 552 c 128,-1,46
 316 528 316 528 295 496 c 128,-1,47
 274 464 274 464 260 426.5 c 128,-1,48
 246 389 246 389 239.5 349 c 128,-1,49
 233 309 233 309 233 270 c 0,50,51
 233 220 233 220 250 183.5 c 128,-1,52
 267 147 267 147 304 127 c 128,-1,53
 341 107 341 107 400 107 c 2,40,-1
EndSplineSet
EndChar

StartChar: Ereversedcyr
Encoding: 492 1069 64
Width: 736
GlyphClass: 2
Flags: W
AnchorPoint: "Anchor-1" 353 0 basechar 0
AnchorPoint: "Anchor-0" 353 741 basechar 0
LayerCount: 2
Fore
SplineSet
592 400 m 1,0,-1
 579 329 l 1,1,2
 539 327 539 327 498 325 c 128,-1,3
 457 323 457 323 415.5 321 c 128,-1,4
 374 319 374 319 332.5 317 c 128,-1,5
 291 315 291 315 249 313 c 1,6,-1
 273 416 l 1,7,8
 313 414 313 414 353 411.5 c 128,-1,9
 393 409 393 409 433 407 c 128,-1,10
 473 405 473 405 512.5 403.5 c 128,-1,11
 552 402 552 402 592 400 c 1,0,-1
322 -17 m 0,12,13
 269 -17 269 -17 227.5 -5 c 128,-1,14
 186 7 186 7 157 31 c 128,-1,15
 128 55 128 55 109.5 90 c 128,-1,16
 91 125 91 125 82 171 c 1,17,-1
 126 157 l 1,18,-1
 73 -5 l 1,19,-1
 -9 -5 l 1,20,-1
 44 237 l 1,21,-1
 141 237 l 1,22,23
 145 187 145 187 162.5 148.5 c 128,-1,24
 180 110 180 110 213 89 c 128,-1,25
 246 68 246 68 294 68 c 0,26,27
 338 68 338 68 372.5 88 c 128,-1,28
 407 108 407 108 433 144.5 c 128,-1,29
 459 181 459 181 476 230.5 c 128,-1,30
 493 280 493 280 501.5 339.5 c 128,-1,31
 510 399 510 399 510 464 c 0,32,33
 510 508 510 508 501.5 541.5 c 128,-1,34
 493 575 493 575 476 597.5 c 128,-1,35
 459 620 459 620 434 631.5 c 128,-1,36
 409 643 409 643 377 643 c 0,37,38
 333 643 333 643 298 621.5 c 128,-1,39
 263 600 263 600 236 563 c 128,-1,40
 209 526 209 526 189 478 c 1,41,-1
 96 478 l 1,42,-1
 147 715 l 1,43,-1
 231 715 l 1,44,-1
 213 576 l 1,45,-1
 173 545 l 1,46,47
 194 598 194 598 228 639 c 128,-1,48
 262 680 262 680 311 704 c 128,-1,49
 360 728 360 728 426 728 c 0,50,51
 488 728 488 728 539 706.5 c 128,-1,52
 590 685 590 685 627 645 c 128,-1,53
 664 605 664 605 684 548.5 c 128,-1,54
 704 492 704 492 704 422 c 0,55,56
 704 345 704 345 687 278 c 128,-1,57
 670 211 670 211 637 156.5 c 128,-1,58
 604 102 604 102 557.5 63 c 128,-1,59
 511 24 511 24 451.5 3.5 c 128,-1,60
 392 -17 392 -17 322 -17 c 0,12,13
EndSplineSet
EndChar

StartChar: a
Encoding: 97 97 65
Width: 718
GlyphClass: 2
Flags: W
AnchorPoint: "Anchor-2" 538 -10 basechar 0
AnchorPoint: "Anchor-1" 365 0 basechar 0
AnchorPoint: "Anchor-0" 329 553 basechar 0
LayerCount: 2
Fore
SplineSet
507 367 m 1,0,-1
 502 328 l 1,1,2
 487 363 487 363 472 390.5 c 128,-1,3
 457 418 457 418 434.5 434 c 128,-1,4
 412 450 412 450 374 450 c 0,5,6
 343 450 343 450 317.5 435 c 128,-1,7
 292 420 292 420 272 394 c 128,-1,8
 252 368 252 368 238 335.5 c 128,-1,9
 224 303 224 303 216.5 268.5 c 128,-1,10
 209 234 209 234 209 201 c 0,11,12
 209 173 209 173 217 153.5 c 128,-1,13
 225 134 225 134 241.5 123.5 c 128,-1,14
 258 113 258 113 284 113 c 0,15,16
 313 113 313 113 340 128 c 128,-1,17
 367 143 367 143 398.5 174.5 c 128,-1,18
 430 206 430 206 469 255 c 1,19,-1
 466 197 l 1,20,21
 428 131 428 131 389.5 84.5 c 128,-1,22
 351 38 351 38 308.5 13 c 128,-1,23
 266 -12 266 -12 214 -12 c 0,24,25
 155 -12 155 -12 116.5 12.5 c 128,-1,26
 78 37 78 37 58.5 83 c 128,-1,27
 39 129 39 129 39 193 c 0,28,29
 39 246 39 246 52 300 c 128,-1,30
 65 354 65 354 90 404 c 128,-1,31
 115 454 115 454 151 493.5 c 128,-1,32
 187 533 187 533 232.5 556 c 128,-1,33
 278 579 278 579 333 579 c 0,34,35
 393 579 393 579 429 553.5 c 128,-1,36
 465 528 465 528 483 481 c 128,-1,37
 501 434 501 434 507 367 c 1,0,-1
691 569 m 1,38,-1
 612 255 l 2,39,40
 600 210 600 210 593 183 c 128,-1,41
 586 156 586 156 583 142.5 c 128,-1,42
 580 129 580 129 580 124 c 0,43,44
 580 113 580 113 586 109 c 128,-1,45
 592 105 592 105 605 105 c 0,46,47
 620 105 620 105 635 105 c 128,-1,48
 650 105 650 105 666 105 c 1,49,-1
 644 0 l 1,50,51
 623 0 623 0 601 0 c 128,-1,52
 579 0 579 0 557.5 0 c 128,-1,53
 536 0 536 0 514 0 c 0,54,55
 485 0 485 0 463.5 9 c 128,-1,56
 442 18 442 18 431.5 35 c 128,-1,57
 421 52 421 52 421 77 c 0,58,59
 421 85 421 85 421.5 104.5 c 128,-1,60
 422 124 422 124 424 153 c 1,61,-1
 417 161 l 1,62,-1
 477 402 l 1,63,-1
 483 417 l 1,64,-1
 575 569 l 1,65,-1
 691 569 l 1,38,-1
EndSplineSet
EndChar

StartChar: b
Encoding: 98 98 72
Width: 700
GlyphClass: 1
Flags: W
LayerCount: 2
Fore
SplineSet
330 116 m 0,0,1
 363 116 363 116 389 132 c 128,-1,2
 415 148 415 148 434 174.5 c 128,-1,3
 453 201 453 201 465 233.5 c 128,-1,4
 477 266 477 266 483 301.5 c 128,-1,5
 489 337 489 337 489 369 c 0,6,7
 489 396 489 396 481 415.5 c 128,-1,8
 473 435 473 435 456.5 446 c 128,-1,9
 440 457 440 457 412 457 c 0,10,11
 382 457 382 457 355 443 c 128,-1,12
 328 429 328 429 298.5 400.5 c 128,-1,13
 269 372 269 372 229 328 c 1,14,-1
 231 365 l 1,15,16
 269 433 269 433 308 480.5 c 128,-1,17
 347 528 347 528 391 553.5 c 128,-1,18
 435 579 435 579 487 579 c 0,19,20
 545 579 545 579 584 554.5 c 128,-1,21
 623 530 623 530 643 484 c 128,-1,22
 663 438 663 438 663 375 c 0,23,24
 663 322 663 322 650.5 267.5 c 128,-1,25
 638 213 638 213 612 163 c 128,-1,26
 586 113 586 113 546 73 c 128,-1,27
 506 33 506 33 450.5 10.5 c 128,-1,28
 395 -12 395 -12 324 -12 c 0,29,30
 256 -12 256 -12 200 6.5 c 128,-1,31
 144 25 144 25 102 54.5 c 128,-1,32
 60 84 60 84 33 116 c 1,33,-1
 166 644 l 2,34,35
 168 651 168 651 161.5 656.5 c 128,-1,36
 155 662 155 662 141.5 667 c 128,-1,37
 128 672 128 672 110 676 c 2,38,-1
 102 678 l 1,39,-1
 125 780 l 1,40,-1
 369 780 l 1,41,-1
 197 84 l 1,42,43
 194 93 194 93 191.5 108 c 128,-1,44
 189 123 189 123 188 138.5 c 128,-1,45
 187 154 187 154 187 167 c 128,-1,46
 187 180 187 180 189 187 c 1,47,48
 205 171 205 171 223.5 154.5 c 128,-1,49
 242 138 242 138 267.5 127 c 128,-1,50
 293 116 293 116 330 116 c 0,0,1
EndSplineSet
EndChar

StartChar: c
Encoding: 99 99 73
Width: 610
GlyphClass: 2
Flags: W
AnchorPoint: "Anchor-1" 335 0 basechar 0
AnchorPoint: "Anchor-0" 323 551 basechar 0
LayerCount: 2
Fore
SplineSet
324 102 m 0,0,1
 361 102 361 102 387.5 112.5 c 128,-1,2
 414 123 414 123 434 141.5 c 128,-1,3
 454 160 454 160 471 183 c 1,4,-1
 555 131 l 1,5,6
 529 88 529 88 493.5 55.5 c 128,-1,7
 458 23 458 23 412.5 5.5 c 128,-1,8
 367 -12 367 -12 307 -12 c 0,9,10
 248 -12 248 -12 198.5 3.5 c 128,-1,11
 149 19 149 19 113.5 49.5 c 128,-1,12
 78 80 78 80 58.5 124 c 128,-1,13
 39 168 39 168 39 223 c 0,14,15
 39 295 39 295 61.5 359 c 128,-1,16
 84 423 84 423 128 473 c 128,-1,17
 172 523 172 523 238 551 c 128,-1,18
 304 579 304 579 391 579 c 0,19,20
 447 579 447 579 490.5 571 c 128,-1,21
 534 563 534 563 564.5 551.5 c 128,-1,22
 595 540 595 540 613 531 c 1,23,-1
 567 355 l 1,24,-1
 428 355 l 1,25,-1
 472 523 l 1,26,27
 486 522 486 522 493 512 c 128,-1,28
 500 502 500 502 502.5 487.5 c 128,-1,29
 505 473 505 473 504.5 458.5 c 128,-1,30
 504 444 504 444 503 434 c 1,31,32
 493 444 493 444 476.5 451.5 c 128,-1,33
 460 459 460 459 438.5 463.5 c 128,-1,34
 417 468 417 468 391 468 c 0,35,36
 350 468 350 468 319.5 451 c 128,-1,37
 289 434 289 434 269 405 c 128,-1,38
 249 376 249 376 237 341.5 c 128,-1,39
 225 307 225 307 220 271.5 c 128,-1,40
 215 236 215 236 215 205 c 0,41,42
 215 169 215 169 226.5 146 c 128,-1,43
 238 123 238 123 262 112.5 c 128,-1,44
 286 102 286 102 324 102 c 0,0,1
EndSplineSet
EndChar

StartChar: d
Encoding: 100 100 75
Width: 733
GlyphClass: 2
Flags: W
AnchorPoint: "Anchor-2" 688 735 basechar 0
AnchorPoint: "Anchor-1" 337 0 basechar 0
LayerCount: 2
Fore
SplineSet
218 -12 m 0,0,1
 158 -12 158 -12 117.5 12.5 c 128,-1,2
 77 37 77 37 57.5 83 c 128,-1,3
 38 129 38 129 38 192 c 0,4,5
 38 245 38 245 50.5 299.5 c 128,-1,6
 63 354 63 354 87.5 404 c 128,-1,7
 112 454 112 454 146.5 493.5 c 128,-1,8
 181 533 181 533 225 556 c 128,-1,9
 269 579 269 579 320 579 c 0,10,11
 381 579 381 579 419 554.5 c 128,-1,12
 457 530 457 530 477.5 484 c 128,-1,13
 498 438 498 438 504 374 c 2,14,-1
 506 336 l 1,15,16
 487 371 487 371 468 396.5 c 128,-1,17
 449 422 449 422 424.5 436 c 128,-1,18
 400 450 400 450 364 450 c 0,19,20
 333 450 333 450 309 435 c 128,-1,21
 285 420 285 420 266.5 394 c 128,-1,22
 248 368 248 368 236 335.5 c 128,-1,23
 224 303 224 303 217.5 269 c 128,-1,24
 211 235 211 235 211 204 c 0,25,26
 211 175 211 175 218.5 154 c 128,-1,27
 226 133 226 133 242.5 122.5 c 128,-1,28
 259 112 259 112 286 112 c 0,29,30
 311 112 311 112 331.5 119 c 128,-1,31
 352 126 352 126 373 141 c 128,-1,32
 394 156 394 156 419 179 c 128,-1,33
 444 202 444 202 475 234 c 1,34,-1
 477 194 l 1,35,36
 436 128 436 128 396.5 82 c 128,-1,37
 357 36 357 36 314 12 c 128,-1,38
 271 -12 271 -12 218 -12 c 0,0,1
526 0 m 0,39,40
 481 0 481 0 457 19.5 c 128,-1,41
 433 39 433 39 433 77 c 0,42,43
 433 83 433 83 433.5 93.5 c 128,-1,44
 434 104 434 104 434.5 119 c 128,-1,45
 435 134 435 134 436 153 c 1,46,-1
 428 161 l 1,47,-1
 551 644 l 2,48,49
 554 653 554 653 548 658.5 c 128,-1,50
 542 664 542 664 529.5 668 c 128,-1,51
 517 672 517 672 499 676 c 2,52,-1
 490 678 l 1,53,-1
 514 780 l 1,54,-1
 754 780 l 1,55,-1
 625 268 l 2,56,57
 614 223 614 223 606.5 193.5 c 128,-1,58
 599 164 599 164 595.5 148.5 c 128,-1,59
 592 133 592 133 592 126 c 0,60,61
 592 115 592 115 597.5 110 c 128,-1,62
 603 105 603 105 616 105 c 0,63,64
 632 105 632 105 646.5 105 c 128,-1,65
 661 105 661 105 677 105 c 1,66,-1
 655 0 l 1,67,68
 634 0 634 0 612.5 0 c 128,-1,69
 591 0 591 0 569.5 0 c 128,-1,70
 548 0 548 0 526 0 c 0,39,40
EndSplineSet
EndChar

StartChar: e
Encoding: 101 101 76
Width: 627
GlyphClass: 2
Flags: W
AnchorPoint: "Anchor-2" 496 1 basechar 0
AnchorPoint: "Anchor-1" 339 0 basechar 0
AnchorPoint: "Anchor-0" 321 551 basechar 0
LayerCount: 2
Fore
SplineSet
303 -14 m 0,0,1
 222 -14 222 -14 162.5 13 c 128,-1,2
 103 40 103 40 71 91 c 128,-1,3
 39 142 39 142 39 212 c 0,4,5
 39 289 39 289 63.5 355.5 c 128,-1,6
 88 422 88 422 134 472.5 c 128,-1,7
 180 523 180 523 245 551.5 c 128,-1,8
 310 580 310 580 391 580 c 0,9,10
 463 580 463 580 508 559.5 c 128,-1,11
 553 539 553 539 575 505 c 128,-1,12
 597 471 597 471 597 430 c 0,13,14
 597 376 597 376 568 336.5 c 128,-1,15
 539 297 539 297 484 271.5 c 128,-1,16
 429 246 429 246 350.5 232.5 c 128,-1,17
 272 219 272 219 171 217 c 1,18,-1
 170 297 l 1,19,20
 242 299 242 299 294 306.5 c 128,-1,21
 346 314 346 314 379.5 328 c 128,-1,22
 413 342 413 342 429 364 c 128,-1,23
 445 386 445 386 445 415 c 0,24,25
 445 438 445 438 436.5 453 c 128,-1,26
 428 468 428 468 412 475.5 c 128,-1,27
 396 483 396 483 372 483 c 0,28,29
 331 483 331 483 299.5 462.5 c 128,-1,30
 268 442 268 442 247.5 407 c 128,-1,31
 227 372 227 372 216.5 327.5 c 128,-1,32
 206 283 206 283 206 235 c 256,33,34
 206 187 206 187 220 158.5 c 128,-1,35
 234 130 234 130 262 117.5 c 128,-1,36
 290 105 290 105 332 105 c 0,37,38
 370 105 370 105 398.5 117.5 c 128,-1,39
 427 130 427 130 449.5 149 c 128,-1,40
 472 168 472 168 489 187 c 1,41,-1
 568 129 l 1,42,43
 539 84 539 84 501 52 c 128,-1,44
 463 20 463 20 414 3 c 128,-1,45
 365 -14 365 -14 303 -14 c 0,0,1
EndSplineSet
EndChar

StartChar: f
Encoding: 102 102 81
Width: 470
GlyphClass: 1
Flags: W
LayerCount: 2
Fore
SplineSet
66 569 m 1,0,-1
 495 569 l 1,1,-1
 471 463 l 1,2,-1
 42 463 l 1,3,-1
 66 569 l 1,0,-1
440 683 m 0,4,5
 411 683 411 683 393.5 675.5 c 128,-1,6
 376 668 376 668 366.5 650.5 c 128,-1,7
 357 633 357 633 350 604 c 2,8,-1
 169 -239 l 1,9,-1
 30 -239 l 1,10,-1
 178 620 l 2,11,12
 189 681 189 681 218.5 717.5 c 128,-1,13
 248 754 248 754 298 770.5 c 128,-1,14
 348 787 348 787 419 787 c 0,15,16
 452 787 452 787 480.5 784 c 128,-1,17
 509 781 509 781 530 777 c 128,-1,18
 551 773 551 773 563 769 c 1,19,-1
 539 666 l 1,20,21
 528 669 528 669 501.5 676 c 128,-1,22
 475 683 475 683 440 683 c 0,4,5
EndSplineSet
Substitution2: "'ss04' Style Set 4 in Latin lookup 61 subtable" f.alt
EndChar

StartChar: g
Encoding: 103 103 82
Width: 706
GlyphClass: 2
Flags: W
AnchorPoint: "Anchor-0" 332 545 basechar 0
LayerCount: 2
Fore
SplineSet
377 -42 m 2,0,-1
 483 387 l 1,1,-1
 487 392 l 1,2,-1
 592 571 l 1,3,-1
 700 571 l 1,4,-1
 556 -13 l 2,5,6
 536 -98 536 -98 497 -151 c 128,-1,7
 458 -204 458 -204 391.5 -229 c 128,-1,8
 325 -254 325 -254 222 -254 c 0,9,10
 160 -254 160 -254 110 -245 c 128,-1,11
 60 -236 60 -236 25.5 -223 c 128,-1,12
 -9 -210 -9 -210 -28 -200 c 1,13,-1
 1 -65 l 1,14,-1
 141 -65 l 1,15,-1
 111 -202 l 1,16,17
 101 -198 101 -198 93.5 -185 c 128,-1,18
 86 -172 86 -172 81 -156.5 c 128,-1,19
 76 -141 76 -141 74.5 -128 c 128,-1,20
 73 -115 73 -115 77 -111 c 1,21,22
 88 -118 88 -118 105.5 -127.5 c 128,-1,23
 123 -137 123 -137 153 -143.5 c 128,-1,24
 183 -150 183 -150 228 -150 c 0,25,26
 275 -150 275 -150 304.5 -138.5 c 128,-1,27
 334 -127 334 -127 351 -103 c 128,-1,28
 368 -79 368 -79 377 -42 c 2,0,-1
514 365 m 1,29,-1
 499 337 l 1,30,31
 481 369 481 369 463 394.5 c 128,-1,32
 445 420 445 420 421.5 435 c 128,-1,33
 398 450 398 450 362 450 c 0,34,35
 334 450 334 450 310.5 435.5 c 128,-1,36
 287 421 287 421 269 396.5 c 128,-1,37
 251 372 251 372 238.5 341.5 c 128,-1,38
 226 311 226 311 219.5 279 c 128,-1,39
 213 247 213 247 213 217 c 0,40,41
 213 188 213 188 220.5 168.5 c 128,-1,42
 228 149 228 149 245 139 c 128,-1,43
 262 129 262 129 290 129 c 0,44,45
 323 129 323 129 350 142 c 128,-1,46
 377 155 377 155 407.5 183 c 128,-1,47
 438 211 438 211 481 255 c 1,48,-1
 483 227 l 1,49,50
 442 160 442 160 402.5 112 c 128,-1,51
 363 64 363 64 320.5 38 c 128,-1,52
 278 12 278 12 224 12 c 0,53,54
 163 12 163 12 121.5 35.5 c 128,-1,55
 80 59 80 59 59.5 102.5 c 128,-1,56
 39 146 39 146 39 207 c 0,57,58
 39 257 39 257 52 309 c 128,-1,59
 65 361 65 361 90 409.5 c 128,-1,60
 115 458 115 458 150.5 496 c 128,-1,61
 186 534 186 534 230.5 556.5 c 128,-1,62
 275 579 275 579 328 579 c 0,63,64
 376 579 376 579 409.5 564 c 128,-1,65
 443 549 443 549 464.5 520 c 128,-1,66
 486 491 486 491 498 452 c 128,-1,67
 510 413 510 413 514 365 c 1,29,-1
EndSplineSet
Substitution2: "'ss03' Style Set 3 in Latin lookup 60 subtable" g.alt
EndChar

StartChar: h
Encoding: 104 104 83
Width: 720
GlyphClass: 2
Flags: W
AnchorPoint: "Anchor-1" 362 0 basechar 0
AnchorPoint: "Anchor-0" 377 755 basechar 0
LayerCount: 2
Fore
SplineSet
25 0 m 1,0,-1
 197 0 l 1,1,-1
 391 780 l 1,2,-1
 147 780 l 1,3,-1
 123 678 l 1,4,-1
 132 676 l 2,5,6
 150 672 150 672 163 667 c 128,-1,7
 176 662 176 662 182.5 656.5 c 128,-1,8
 189 651 189 651 187 644 c 2,9,-1
 25 0 l 1,0,-1
614 258 m 2,10,-1
 649 391 l 2,11,12
 655 415 655 415 659.5 441 c 128,-1,13
 664 467 664 467 664 489 c 0,14,15
 664 517 664 517 651 537.5 c 128,-1,16
 638 558 638 558 612 569 c 128,-1,17
 586 580 586 580 547 580 c 0,18,19
 488 580 488 580 439 555.5 c 128,-1,20
 390 531 390 531 347 487 c 128,-1,21
 304 443 304 443 261 383 c 1,22,-1
 254 309 l 1,23,24
 290 352 290 352 322 384 c 128,-1,25
 354 416 354 416 384 433 c 128,-1,26
 414 450 414 450 443 450 c 0,27,28
 464 450 464 450 473 442 c 128,-1,29
 482 434 482 434 482 419 c 0,30,31
 482 408 482 408 479.5 398 c 128,-1,32
 477 388 477 388 473 373 c 2,33,-1
 439 245 l 2,34,35
 426 193 426 193 417.5 161.5 c 128,-1,36
 409 130 409 130 405.5 110.5 c 128,-1,37
 402 91 402 91 402 76 c 0,38,39
 402 51 402 51 414 34 c 128,-1,40
 426 17 426 17 449.5 8.5 c 128,-1,41
 473 0 473 0 505 0 c 0,42,43
 528 0 528 0 551 0 c 128,-1,44
 574 0 574 0 597.5 0 c 128,-1,45
 621 0 621 0 644 0 c 1,46,-1
 666 105 l 1,47,48
 656 105 656 105 646 105 c 128,-1,49
 636 105 636 105 626 105 c 128,-1,50
 616 105 616 105 606 105 c 0,51,52
 593 105 593 105 587 109.5 c 128,-1,53
 581 114 581 114 581 125 c 0,54,55
 581 131 581 131 584.5 145 c 128,-1,56
 588 159 588 159 595 186 c 128,-1,57
 602 213 602 213 614 258 c 2,10,-1
EndSplineSet
EndChar

StartChar: i
Encoding: 105 105 84
Width: 377
GlyphClass: 2
Flags: W
AnchorPoint: "Anchor-2" 253 -10 basechar 0
AnchorPoint: "Anchor-1" 197 -10 basechar 0
LayerCount: 2
Fore
SplineSet
50 76 m 0,0,1
 50 91 50 91 53.5 110.5 c 128,-1,2
 57 130 57 130 65 161.5 c 128,-1,3
 73 193 73 193 86 245 c 2,4,-1
 135 433 l 2,5,6
 137 440 137 440 129.5 445.5 c 128,-1,7
 122 451 122 451 108 455.5 c 128,-1,8
 94 460 94 460 76 464 c 2,9,-1
 67 466 l 1,10,-1
 91 569 l 1,11,-1
 337 569 l 1,12,-1
 257 250 l 2,13,14
 246 205 246 205 239.5 180 c 128,-1,15
 233 155 233 155 230.5 143 c 128,-1,16
 228 131 228 131 228 124 c 0,17,18
 228 114 228 114 234 109.5 c 128,-1,19
 240 105 240 105 253 105 c 0,20,21
 264 105 264 105 273.5 105 c 128,-1,22
 283 105 283 105 292.5 105 c 128,-1,23
 302 105 302 105 313 105 c 1,24,-1
 291 0 l 1,25,26
 268 0 268 0 244.5 0 c 128,-1,27
 221 0 221 0 198 0 c 128,-1,28
 175 0 175 0 152 0 c 0,29,30
 120 0 120 0 97 8.5 c 128,-1,31
 74 17 74 17 62 34 c 128,-1,32
 50 51 50 51 50 76 c 0,0,1
157 721 m 0,33,34
 157 769 157 769 186 793 c 128,-1,35
 215 817 215 817 263 817 c 256,36,37
 311 817 311 817 338 795 c 128,-1,38
 365 773 365 773 365 726 c 0,39,40
 365 677 365 677 336 653.5 c 128,-1,41
 307 630 307 630 258 630 c 0,42,43
 211 630 211 630 184 652 c 128,-1,44
 157 674 157 674 157 721 c 0,33,34
EndSplineSet
Substitution2: "Single Substitution lookup 1 subtable" idotaccent
EndChar

StartChar: icircumflex
Encoding: 238 238 87
Width: 377
GlyphClass: 1
Flags: W
LayerCount: 2
Fore
SplineSet
342 860 m 1,0,-1
 229 860 l 1,1,-1
 55 677 l 1,2,-1
 44 635 l 1,3,-1
 123 635 l 1,4,-1
 285 753 l 1,5,-1
 220 764 l 1,6,-1
 352 635 l 1,7,-1
 417 635 l 1,8,-1
 427 677 l 1,9,-1
 342 860 l 1,0,-1
151 0 m 0,10,11
 119 0 119 0 96 8.5 c 128,-1,12
 73 17 73 17 60.5 34 c 128,-1,13
 48 51 48 51 48 76 c 0,14,15
 48 91 48 91 51.5 110.5 c 128,-1,16
 55 130 55 130 63 161.5 c 128,-1,17
 71 193 71 193 85 245 c 2,18,-1
 134 433 l 2,19,20
 136 440 136 440 128 445.5 c 128,-1,21
 120 451 120 451 106.5 455.5 c 128,-1,22
 93 460 93 460 74 464 c 2,23,-1
 66 466 l 1,24,-1
 89 569 l 1,25,-1
 335 569 l 1,26,-1
 256 250 l 2,27,28
 244 205 244 205 238 180 c 128,-1,29
 232 155 232 155 229.5 143 c 128,-1,30
 227 131 227 131 227 124 c 0,31,32
 227 114 227 114 233 109.5 c 128,-1,33
 239 105 239 105 252 105 c 0,34,35
 262 105 262 105 271.5 105 c 128,-1,36
 281 105 281 105 291 105 c 128,-1,37
 301 105 301 105 311 105 c 1,38,-1
 289 0 l 1,39,40
 266 0 266 0 243 0 c 128,-1,41
 220 0 220 0 197 0 c 128,-1,42
 174 0 174 0 151 0 c 0,10,11
EndSplineSet
EndChar

StartChar: idieresis
Encoding: 239 239 88
Width: 377
GlyphClass: 1
Flags: W
LayerCount: 2
Fore
SplineSet
114 632 m 0,0,1
 162 632 162 632 190.5 654.5 c 128,-1,2
 219 677 219 677 219 724 c 0,3,4
 219 770 219 770 190.5 793 c 128,-1,5
 162 816 162 816 114 816 c 0,6,7
 65 816 65 816 36.5 793 c 128,-1,8
 8 770 8 770 8 724 c 0,9,10
 8 677 8 677 36.5 654.5 c 128,-1,11
 65 632 65 632 114 632 c 0,0,1
389 632 m 0,12,13
 437 632 437 632 465.5 654.5 c 128,-1,14
 494 677 494 677 494 724 c 0,15,16
 494 770 494 770 465.5 793 c 128,-1,17
 437 816 437 816 389 816 c 0,18,19
 340 816 340 816 312 793 c 128,-1,20
 284 770 284 770 284 724 c 0,21,22
 284 677 284 677 312 654.5 c 128,-1,23
 340 632 340 632 389 632 c 0,12,13
149 0 m 0,24,25
 117 0 117 0 94 8.5 c 128,-1,26
 71 17 71 17 59 34 c 128,-1,27
 47 51 47 51 47 76 c 0,28,29
 47 91 47 91 50.5 110.5 c 128,-1,30
 54 130 54 130 62 161.5 c 128,-1,31
 70 193 70 193 83 245 c 2,32,-1
 132 433 l 2,33,34
 134 440 134 440 126.5 445.5 c 128,-1,35
 119 451 119 451 105 455.5 c 128,-1,36
 91 460 91 460 73 464 c 2,37,-1
 64 466 l 1,38,-1
 88 569 l 1,39,-1
 334 569 l 1,40,-1
 254 250 l 2,41,42
 243 205 243 205 236.5 180 c 128,-1,43
 230 155 230 155 227.5 143 c 128,-1,44
 225 131 225 131 225 124 c 0,45,46
 225 114 225 114 231 109.5 c 128,-1,47
 237 105 237 105 250 105 c 0,48,49
 261 105 261 105 270.5 105 c 128,-1,50
 280 105 280 105 289.5 105 c 128,-1,51
 299 105 299 105 310 105 c 1,52,-1
 288 0 l 1,53,54
 265 0 265 0 241.5 0 c 128,-1,55
 218 0 218 0 195 0 c 128,-1,56
 172 0 172 0 149 0 c 0,24,25
EndSplineSet
EndChar

StartChar: j
Encoding: 106 106 89
Width: 382
GlyphClass: 1
Flags: W
LayerCount: 2
Fore
SplineSet
284 630 m 0,0,1
 237 630 237 630 210.5 652 c 128,-1,2
 184 674 184 674 184 721 c 0,3,4
 184 769 184 769 212.5 793 c 128,-1,5
 241 817 241 817 290 817 c 0,6,7
 337 817 337 817 364.5 795 c 128,-1,8
 392 773 392 773 392 726 c 0,9,10
 392 677 392 677 363 653.5 c 128,-1,11
 334 630 334 630 284 630 c 0,0,1
-188 -224 m 1,12,-1
 -162 -121 l 1,13,14
 -145 -128 -145 -128 -119 -135 c 128,-1,15
 -93 -142 -93 -142 -61 -142 c 0,16,17
 -33 -142 -33 -142 -14.5 -133.5 c 128,-1,18
 4 -125 4 -125 15.5 -106 c 128,-1,19
 27 -87 27 -87 34 -59 c 2,20,-1
 157 428 l 2,21,22
 159 436 159 436 152 442.5 c 128,-1,23
 145 449 145 449 131.5 453.5 c 128,-1,24
 118 458 118 458 100 461 c 2,25,-1
 89 463 l 1,26,-1
 114 569 l 1,27,-1
 360 569 l 1,28,-1
 203 -65 l 2,29,30
 187 -131 187 -131 153.5 -172 c 128,-1,31
 120 -213 120 -213 71 -231.5 c 128,-1,32
 22 -250 22 -250 -42 -250 c 0,33,34
 -101 -250 -101 -250 -138 -240.5 c 128,-1,35
 -175 -231 -175 -231 -188 -224 c 1,12,-1
EndSplineSet
EndChar

StartChar: k
Encoding: 107 107 90
Width: 698
GlyphClass: 2
Flags: W
AnchorPoint: "Anchor-1" 350 0 basechar 0
LayerCount: 2
Fore
SplineSet
541 144 m 2,0,-1
 441 376 l 1,1,-1
 410 311 l 1,2,3
 460 349 460 349 512 388.5 c 128,-1,4
 564 428 564 428 617 468.5 c 128,-1,5
 670 509 670 509 723 549 c 1,6,-1
 723 569 l 1,7,-1
 537 569 l 1,8,9
 499 528 499 528 460 486 c 128,-1,10
 421 444 421 444 382.5 402 c 128,-1,11
 344 360 344 360 305 318 c 1,12,-1
 299 292 l 1,13,-1
 392 61 l 2,14,15
 402 36 402 36 413 22.5 c 128,-1,16
 424 9 424 9 443 4.5 c 128,-1,17
 462 0 462 0 493 0 c 0,18,19
 515 0 515 0 537 0 c 128,-1,20
 559 0 559 0 581.5 0 c 128,-1,21
 604 0 604 0 627 0 c 1,22,-1
 649 105 l 1,23,24
 641 105 641 105 632.5 105 c 128,-1,25
 624 105 624 105 615 105 c 128,-1,26
 606 105 606 105 597 105 c 0,27,28
 585 105 585 105 576.5 106.5 c 128,-1,29
 568 108 568 108 562 112.5 c 128,-1,30
 556 117 556 117 551 125 c 128,-1,31
 546 133 546 133 541 144 c 2,0,-1
26 0 m 1,32,-1
 197 0 l 1,33,-1
 391 780 l 1,34,-1
 147 780 l 1,35,-1
 123 673 l 1,36,-1
 132 671 l 2,37,38
 150 667 150 667 163 662.5 c 128,-1,39
 176 658 176 658 182.5 652.5 c 128,-1,40
 189 647 189 647 187 640 c 2,41,-1
 26 0 l 1,32,-1
EndSplineSet
EndChar

StartChar: l
Encoding: 108 108 91
Width: 381
GlyphClass: 2
Flags: W
AnchorPoint: "Anchor-2" 331 735 basechar 0
AnchorPoint: "Anchor-1" 202 0 basechar 0
AnchorPoint: "Anchor-0" 198 746 basechar 0
LayerCount: 2
Fore
SplineSet
182 644 m 2,0,1
 184 651 184 651 176.5 656.5 c 128,-1,2
 169 662 169 662 155 667 c 128,-1,3
 141 672 141 672 123 676 c 2,4,-1
 114 678 l 1,5,-1
 138 780 l 1,6,-1
 383 780 l 1,7,-1
 253 250 l 2,8,9
 242 205 242 205 235.5 180 c 128,-1,10
 229 155 229 155 226.5 143 c 128,-1,11
 224 131 224 131 224 125 c 0,12,13
 224 114 224 114 230.5 109.5 c 128,-1,14
 237 105 237 105 249 105 c 0,15,16
 260 105 260 105 269 105 c 128,-1,17
 278 105 278 105 288 105 c 128,-1,18
 298 105 298 105 308 105 c 1,19,-1
 286 0 l 1,20,21
 263 0 263 0 240 0 c 128,-1,22
 217 0 217 0 193.5 0 c 128,-1,23
 170 0 170 0 147 0 c 0,24,25
 116 0 116 0 93 9 c 128,-1,26
 70 18 70 18 57.5 36 c 128,-1,27
 45 54 45 54 45 79 c 0,28,29
 45 94 45 94 48.5 112.5 c 128,-1,30
 52 131 52 131 60 162 c 128,-1,31
 68 193 68 193 81 245 c 2,32,-1
 182 644 l 2,0,1
EndSplineSet
EndChar

StartChar: m
Encoding: 109 109 92
Width: 1045
GlyphClass: 2
Flags: W
AnchorPoint: "Anchor-1" 523 -10 basechar 0
LayerCount: 2
Fore
SplineSet
27 0 m 1,0,-1
 199 0 l 1,1,-1
 296 391 l 1,2,-1
 290 406 l 1,3,-1
 301 569 l 1,4,-1
 95 569 l 1,5,-1
 71 466 l 1,6,-1
 80 464 l 2,7,8
 98 460 98 460 111.5 455.5 c 128,-1,9
 125 451 125 451 132 445.5 c 128,-1,10
 139 440 139 440 137 433 c 2,11,-1
 27 0 l 1,0,-1
934 250 m 2,12,-1
 971 391 l 2,13,14
 978 416 978 416 982 441 c 128,-1,15
 986 466 986 466 986 490 c 0,16,17
 986 518 986 518 973.5 538 c 128,-1,18
 961 558 961 558 936.5 569 c 128,-1,19
 912 580 912 580 874 580 c 0,20,21
 815 580 815 580 768 555 c 128,-1,22
 721 530 721 530 680 485.5 c 128,-1,23
 639 441 639 441 598 383 c 1,24,-1
 591 305 l 1,25,26
 627 352 627 352 657 384.5 c 128,-1,27
 687 417 687 417 714 433.5 c 128,-1,28
 741 450 741 450 769 450 c 0,29,30
 789 450 789 450 797 442 c 128,-1,31
 805 434 805 434 805 419 c 0,32,33
 805 409 805 409 801.5 393 c 128,-1,34
 798 377 798 377 792 357 c 2,35,-1
 761 245 l 2,36,37
 747 193 747 193 738.5 161 c 128,-1,38
 730 129 730 129 726.5 109.5 c 128,-1,39
 723 90 723 90 723 75 c 0,40,41
 723 50 723 50 735 33 c 128,-1,42
 747 16 747 16 770.5 8 c 128,-1,43
 794 0 794 0 826 0 c 0,44,45
 849 0 849 0 873 0 c 128,-1,46
 897 0 897 0 921 0 c 128,-1,47
 945 0 945 0 968 0 c 1,48,-1
 990 105 l 1,49,50
 980 105 980 105 969.5 105 c 128,-1,51
 959 105 959 105 948.5 105 c 128,-1,52
 938 105 938 105 929 105 c 0,53,54
 916 105 916 105 910 109.5 c 128,-1,55
 904 114 904 114 904 124 c 0,56,57
 904 131 904 131 906.5 143 c 128,-1,58
 909 155 909 155 916 180 c 128,-1,59
 923 205 923 205 934 250 c 2,12,-1
363 0 m 1,60,-1
 536 0 l 1,61,-1
 630 374 l 2,62,63
 630 375 630 375 630 392.5 c 128,-1,64
 630 410 630 410 630 433.5 c 128,-1,65
 630 457 630 457 630 475.5 c 128,-1,66
 630 494 630 494 630 497 c 0,67,68
 630 523 630 523 619.5 541.5 c 128,-1,69
 609 560 609 560 587 570 c 128,-1,70
 565 580 565 580 531 580 c 0,71,72
 473 580 473 580 426.5 555.5 c 128,-1,73
 380 531 380 531 340 486.5 c 128,-1,74
 300 442 300 442 259 383 c 1,75,-1
 252 305 l 1,76,77
 289 352 289 352 318.5 384.5 c 128,-1,78
 348 417 348 417 376 433.5 c 128,-1,79
 404 450 404 450 433 450 c 0,80,81
 453 450 453 450 460.5 443 c 128,-1,82
 468 436 468 436 468 422 c 0,83,84
 468 411 468 411 465 396 c 128,-1,85
 462 381 462 381 456 360 c 2,86,-1
 363 0 l 1,60,-1
EndSplineSet
EndChar

StartChar: n
Encoding: 110 110 93
Width: 720
GlyphClass: 2
Flags: W
AnchorPoint: "Anchor-1" 363 0 basechar 0
AnchorPoint: "Anchor-0" 355 551 basechar 0
LayerCount: 2
Fore
SplineSet
25 0 m 1,0,-1
 197 0 l 1,1,-1
 294 391 l 1,2,-1
 290 406 l 1,3,-1
 301 569 l 1,4,-1
 95 569 l 1,5,-1
 71 466 l 1,6,-1
 79 464 l 2,7,8
 98 460 98 460 111 455.5 c 128,-1,9
 124 451 124 451 130.5 445.5 c 128,-1,10
 137 440 137 440 135 433 c 2,11,-1
 25 0 l 1,0,-1
614 258 m 2,12,-1
 649 391 l 2,13,14
 655 415 655 415 659.5 441 c 128,-1,15
 664 467 664 467 664 489 c 0,16,17
 664 531 664 531 634.5 555.5 c 128,-1,18
 605 580 605 580 547 580 c 0,19,20
 488 580 488 580 439 555.5 c 128,-1,21
 390 531 390 531 347 487 c 128,-1,22
 304 443 304 443 261 383 c 1,23,-1
 254 311 l 1,24,25
 292 354 292 354 323.5 385.5 c 128,-1,26
 355 417 355 417 384.5 433.5 c 128,-1,27
 414 450 414 450 444 450 c 0,28,29
 464 450 464 450 473 441.5 c 128,-1,30
 482 433 482 433 482 418 c 0,31,32
 482 407 482 407 479 393 c 128,-1,33
 476 379 476 379 471 363 c 2,34,-1
 439 245 l 2,35,36
 426 195 426 195 417.5 163 c 128,-1,37
 409 131 409 131 405.5 111 c 128,-1,38
 402 91 402 91 402 77 c 0,39,40
 402 51 402 51 414.5 34 c 128,-1,41
 427 17 427 17 450 8.5 c 128,-1,42
 473 0 473 0 505 0 c 0,43,44
 528 0 528 0 551 0 c 128,-1,45
 574 0 574 0 597.5 0 c 128,-1,46
 621 0 621 0 644 0 c 1,47,-1
 666 105 l 1,48,49
 656 105 656 105 646 105 c 128,-1,50
 636 105 636 105 626 105 c 128,-1,51
 616 105 616 105 606 105 c 0,52,53
 593 105 593 105 587 109.5 c 128,-1,54
 581 114 581 114 581 125 c 0,55,56
 581 131 581 131 584.5 145 c 128,-1,57
 588 159 588 159 595 185.5 c 128,-1,58
 602 212 602 212 614 258 c 2,12,-1
EndSplineSet
EndChar

StartChar: o
Encoding: 111 111 95
Width: 682
GlyphClass: 2
Flags: W
AnchorPoint: "Anchor-2" 452 0 basechar 0
AnchorPoint: "Anchor-1" 340 0 basechar 0
AnchorPoint: "Anchor-0" 340 551 basechar 0
LayerCount: 2
Fore
SplineSet
453 246 m 0,0,1
 461 269 461 269 466 291 c 128,-1,2
 471 313 471 313 473.5 334 c 128,-1,3
 476 355 476 355 476 376 c 0,4,5
 476 403 476 403 466.5 424.5 c 128,-1,6
 457 446 457 446 435 458.5 c 128,-1,7
 413 471 413 471 375 471 c 0,8,9
 343 471 343 471 320 459.5 c 128,-1,10
 297 448 297 448 280.5 427.5 c 128,-1,11
 264 407 264 407 252 380.5 c 128,-1,12
 240 354 240 354 230 322 c 0,13,14
 223 299 223 299 217.5 277 c 128,-1,15
 212 255 212 255 209.5 233.5 c 128,-1,16
 207 212 207 212 207 191 c 0,17,18
 207 163 207 163 217 141 c 128,-1,19
 227 119 227 119 249.5 107 c 128,-1,20
 272 95 272 95 310 95 c 0,21,22
 342 95 342 95 365 107 c 128,-1,23
 388 119 388 119 404 139.5 c 128,-1,24
 420 160 420 160 431.5 187.5 c 128,-1,25
 443 215 443 215 453 246 c 0,0,1
39 215 m 0,26,27
 39 267 39 267 51.5 318.5 c 128,-1,28
 64 370 64 370 89 417 c 128,-1,29
 114 464 114 464 154 500.5 c 128,-1,30
 194 537 194 537 250 558.5 c 128,-1,31
 306 580 306 580 380 580 c 0,32,33
 460 580 460 580 519.5 553 c 128,-1,34
 579 526 579 526 611 474.5 c 128,-1,35
 643 423 643 423 643 351 c 0,36,37
 643 299 643 299 631 247 c 128,-1,38
 619 195 619 195 593.5 148 c 128,-1,39
 568 101 568 101 528 64.5 c 128,-1,40
 488 28 488 28 432 7 c 128,-1,41
 376 -14 376 -14 302 -14 c 0,42,43
 222 -14 222 -14 163 13 c 128,-1,44
 104 40 104 40 71.5 91 c 128,-1,45
 39 142 39 142 39 215 c 0,26,27
EndSplineSet
EndChar

StartChar: p
Encoding: 112 112 101
Width: 727
GlyphClass: 1
Flags: W
LayerCount: 2
Fore
SplineSet
-92 -223 m 1,0,-1
 -71 -130 l 1,1,-1
 -67 -130 l 2,2,3
 -38 -130 -38 -130 -20.5 -116 c 128,-1,4
 -3 -102 -3 -102 7 -60 c 2,5,-1
 135 433 l 2,6,7
 137 440 137 440 130 445.5 c 128,-1,8
 123 451 123 451 110 455.5 c 128,-1,9
 97 460 97 460 79 464 c 2,10,-1
 71 466 l 1,11,-1
 94 569 l 1,12,-1
 300 569 l 1,13,-1
 289 406 l 1,14,-1
 298 408 l 1,15,-1
 163 -121 l 2,16,17
 162 -124 162 -124 168 -125.5 c 128,-1,18
 174 -127 174 -127 184 -128 c 128,-1,19
 194 -129 194 -129 207 -129.5 c 128,-1,20
 220 -130 220 -130 235 -130 c 2,21,-1
 248 -130 l 1,22,-1
 227 -223 l 1,23,-1
 -92 -223 l 1,0,-1
219 194 m 1,24,-1
 225 239 l 1,25,26
 245 200 245 200 264 172.5 c 128,-1,27
 283 145 283 145 308 130.5 c 128,-1,28
 333 116 333 116 367 116 c 0,29,30
 397 116 397 116 420.5 132.5 c 128,-1,31
 444 149 444 149 462 176 c 128,-1,32
 480 203 480 203 491.5 236.5 c 128,-1,33
 503 270 503 270 508.5 305.5 c 128,-1,34
 514 341 514 341 514 372 c 0,35,36
 514 398 514 398 506.5 417 c 128,-1,37
 499 436 499 436 483 446.5 c 128,-1,38
 467 457 467 457 441 457 c 0,39,40
 409 457 409 457 381 444 c 128,-1,41
 353 431 353 431 321.5 401.5 c 128,-1,42
 290 372 290 372 245 321 c 1,43,-1
 248 373 l 1,44,45
 289 439 289 439 328 485 c 128,-1,46
 367 531 367 531 410.5 555 c 128,-1,47
 454 579 454 579 507 579 c 0,48,49
 566 579 566 579 606.5 554.5 c 128,-1,50
 647 530 647 530 667 484 c 128,-1,51
 687 438 687 438 687 375 c 0,52,53
 687 322 687 322 675.5 267.5 c 128,-1,54
 664 213 664 213 640.5 163 c 128,-1,55
 617 113 617 113 583 73 c 128,-1,56
 549 33 549 33 505 10.5 c 128,-1,57
 461 -12 461 -12 408 -12 c 0,58,59
 346 -12 346 -12 306.5 12.5 c 128,-1,60
 267 37 267 37 246.5 83.5 c 128,-1,61
 226 130 226 130 219 194 c 1,24,-1
EndSplineSet
EndChar

StartChar: q
Encoding: 113 113 102
Width: 705
GlyphClass: 1
Flags: W
LayerCount: 2
Fore
SplineSet
248 -223 m 1,0,-1
 269 -126 l 1,1,-1
 282 -126 l 2,2,3
 302 -126 302 -126 317.5 -125 c 128,-1,4
 333 -124 333 -124 343 -122 c 128,-1,5
 353 -120 353 -120 354 -117 c 2,6,-1
 489 412 l 1,7,-1
 499 418 l 1,8,-1
 600 575 l 1,9,-1
 701 575 l 1,10,-1
 541 -56 l 2,11,12
 535 -83 535 -83 537.5 -98.5 c 128,-1,13
 540 -114 540 -114 552.5 -120 c 128,-1,14
 565 -126 565 -126 584 -126 c 2,15,-1
 588 -126 l 1,16,-1
 566 -223 l 1,17,-1
 248 -223 l 1,0,-1
524 374 m 1,18,-1
 507 332 l 1,19,20
 492 366 492 366 474.5 392.5 c 128,-1,21
 457 419 457 419 432 434.5 c 128,-1,22
 407 450 407 450 369 450 c 0,23,24
 338 450 338 450 313.5 435 c 128,-1,25
 289 420 289 420 270 393.5 c 128,-1,26
 251 367 251 367 238.5 334.5 c 128,-1,27
 226 302 226 302 219 266.5 c 128,-1,28
 212 231 212 231 212 198 c 0,29,30
 212 170 212 170 220.5 150.5 c 128,-1,31
 229 131 229 131 246 121.5 c 128,-1,32
 263 112 263 112 288 112 c 0,33,34
 320 112 320 112 346.5 125 c 128,-1,35
 373 138 373 138 402.5 165.5 c 128,-1,36
 432 193 432 193 472 236 c 1,37,-1
 479 200 l 1,38,39
 438 134 438 134 398.5 86.5 c 128,-1,40
 359 39 359 39 316 13.5 c 128,-1,41
 273 -12 273 -12 220 -12 c 0,42,43
 160 -12 160 -12 119.5 12.5 c 128,-1,44
 79 37 79 37 59 83 c 128,-1,45
 39 129 39 129 39 192 c 0,46,47
 39 245 39 245 52.5 299.5 c 128,-1,48
 66 354 66 354 91 404 c 128,-1,49
 116 454 116 454 152.5 493.5 c 128,-1,50
 189 533 189 533 235 556 c 128,-1,51
 281 579 281 579 335 579 c 0,52,53
 399 579 399 579 438.5 554.5 c 128,-1,54
 478 530 478 530 498.5 484 c 128,-1,55
 519 438 519 438 524 374 c 1,18,-1
EndSplineSet
EndChar

StartChar: r
Encoding: 114 114 103
Width: 532
GlyphClass: 2
Flags: W
AnchorPoint: "Anchor-1" 214 0 basechar 0
AnchorPoint: "Anchor-0" 281 545 basechar 0
LayerCount: 2
Fore
SplineSet
27 0 m 1,0,-1
 199 0 l 1,1,-1
 296 391 l 1,2,-1
 289 397 l 1,3,-1
 301 569 l 1,4,-1
 95 569 l 1,5,-1
 72 466 l 1,6,-1
 80 464 l 2,7,8
 98 460 98 460 111.5 455.5 c 128,-1,9
 125 451 125 451 132 445.5 c 128,-1,10
 139 440 139 440 137 433 c 2,11,-1
 27 0 l 1,0,-1
549 571 m 2,12,13
 546 574 546 574 531.5 577.5 c 128,-1,14
 517 581 517 581 494 581 c 0,15,16
 461 581 461 581 432.5 567 c 128,-1,17
 404 553 404 553 378 526 c 128,-1,18
 352 499 352 499 324 460 c 128,-1,19
 296 421 296 421 264 372 c 1,20,-1
 270 342 l 1,21,22
 286 356 286 356 303 366.5 c 128,-1,23
 320 377 320 377 339 384.5 c 128,-1,24
 358 392 358 392 379 395.5 c 128,-1,25
 400 399 400 399 423 399 c 0,26,27
 451 399 451 399 472 397 c 128,-1,28
 493 395 493 395 510 393 c 1,29,-1
 549 571 l 2,12,13
EndSplineSet
EndChar

StartChar: s
Encoding: 115 115 104
Width: 588
GlyphClass: 2
Flags: W
AnchorPoint: "Anchor-1" 293 0 basechar 0
AnchorPoint: "Anchor-0" 293 546 basechar 0
LayerCount: 2
Fore
SplineSet
260 -12 m 0,0,1
 200 -12 200 -12 149 -4 c 128,-1,2
 98 4 98 4 61.5 15.5 c 128,-1,3
 25 27 25 27 8 37 c 1,4,-1
 42 181 l 1,5,-1
 174 181 l 1,6,-1
 140 43 l 1,7,8
 116 50 116 50 109 64.5 c 128,-1,9
 102 79 102 79 106 93 c 128,-1,10
 110 107 110 107 118 114 c 1,11,12
 129 107 129 107 149.5 99.5 c 128,-1,13
 170 92 170 92 198 87 c 128,-1,14
 226 82 226 82 259 82 c 0,15,16
 291 82 291 82 314 88 c 128,-1,17
 337 94 337 94 349.5 108.5 c 128,-1,18
 362 123 362 123 362 149 c 0,19,20
 362 167 362 167 351.5 180 c 128,-1,21
 341 193 341 193 323 203 c 128,-1,22
 305 213 305 213 283.5 222 c 128,-1,23
 262 231 262 231 239 240 c 0,24,25
 201 256 201 256 167 273.5 c 128,-1,26
 133 291 133 291 112 320.5 c 128,-1,27
 91 350 91 350 91 400 c 0,28,29
 91 457 91 457 118 498.5 c 128,-1,30
 145 540 145 540 203.5 563 c 128,-1,31
 262 586 262 586 355 586 c 0,32,33
 407 586 407 586 451 578.5 c 128,-1,34
 495 571 495 571 526 562 c 128,-1,35
 557 553 557 553 568 547 c 1,36,-1
 537 416 l 1,37,-1
 407 416 l 1,38,-1
 432 519 l 1,39,40
 451 521 451 521 462 510 c 128,-1,41
 473 499 473 499 477.5 485.5 c 128,-1,42
 482 472 482 472 479 462 c 1,43,44
 465 469 465 469 448 475.5 c 128,-1,45
 431 482 431 482 407 487 c 128,-1,46
 383 492 383 492 348 492 c 0,47,48
 294 492 294 492 273 477 c 128,-1,49
 252 462 252 462 252 433 c 0,50,51
 252 414 252 414 266.5 400.5 c 128,-1,52
 281 387 281 387 307 375.5 c 128,-1,53
 333 364 333 364 365 350 c 0,54,55
 407 333 407 333 444 314 c 128,-1,56
 481 295 481 295 504.5 264.5 c 128,-1,57
 528 234 528 234 528 183 c 0,58,59
 528 115 528 115 496.5 72 c 128,-1,60
 465 29 465 29 405 8.5 c 128,-1,61
 345 -12 345 -12 260 -12 c 0,0,1
EndSplineSet
EndChar

StartChar: scaron
Encoding: 154 353 105
Width: 588
GlyphClass: 1
Flags: W
LayerCount: 2
Fore
SplineSet
298 633 m 1,0,-1
 410 633 l 1,1,-1
 601 819 l 1,2,-1
 612 861 l 1,3,-1
 534 861 l 1,4,-1
 352 746 l 1,5,-1
 407 744 l 1,6,-1
 276 861 l 1,7,-1
 208 861 l 1,8,-1
 197 819 l 1,9,-1
 298 633 l 1,0,-1
260 -12 m 0,10,11
 200 -12 200 -12 149 -4 c 128,-1,12
 98 4 98 4 61.5 15.5 c 128,-1,13
 25 27 25 27 8 37 c 1,14,-1
 42 181 l 1,15,-1
 174 181 l 1,16,-1
 140 43 l 1,17,18
 116 50 116 50 109 64.5 c 128,-1,19
 102 79 102 79 106 93 c 128,-1,20
 110 107 110 107 118 114 c 1,21,22
 129 107 129 107 149.5 99.5 c 128,-1,23
 170 92 170 92 198 87 c 128,-1,24
 226 82 226 82 259 82 c 0,25,26
 291 82 291 82 314 88 c 128,-1,27
 337 94 337 94 349.5 108.5 c 128,-1,28
 362 123 362 123 362 149 c 0,29,30
 362 167 362 167 351.5 180 c 128,-1,31
 341 193 341 193 323 203 c 128,-1,32
 305 213 305 213 283.5 222 c 128,-1,33
 262 231 262 231 239 240 c 0,34,35
 201 256 201 256 167 273.5 c 128,-1,36
 133 291 133 291 112 320.5 c 128,-1,37
 91 350 91 350 91 400 c 0,38,39
 91 457 91 457 118 498.5 c 128,-1,40
 145 540 145 540 203.5 563 c 128,-1,41
 262 586 262 586 355 586 c 0,42,43
 407 586 407 586 451 578.5 c 128,-1,44
 495 571 495 571 526 562 c 128,-1,45
 557 553 557 553 568 547 c 1,46,-1
 537 416 l 1,47,-1
 407 416 l 1,48,-1
 432 519 l 1,49,50
 451 521 451 521 462 510 c 128,-1,51
 473 499 473 499 477.5 485.5 c 128,-1,52
 482 472 482 472 479 462 c 1,53,54
 465 469 465 469 448 475.5 c 128,-1,55
 431 482 431 482 407 487 c 128,-1,56
 383 492 383 492 348 492 c 0,57,58
 294 492 294 492 273 477 c 128,-1,59
 252 462 252 462 252 433 c 0,60,61
 252 414 252 414 266.5 400.5 c 128,-1,62
 281 387 281 387 307 375.5 c 128,-1,63
 333 364 333 364 365 350 c 0,64,65
 407 333 407 333 444 314 c 128,-1,66
 481 295 481 295 504.5 264.5 c 128,-1,67
 528 234 528 234 528 183 c 0,68,69
 528 115 528 115 496.5 72 c 128,-1,70
 465 29 465 29 405 8.5 c 128,-1,71
 345 -12 345 -12 260 -12 c 0,10,11
EndSplineSet
EndChar

StartChar: t
Encoding: 116 116 106
Width: 486
GlyphClass: 2
Flags: W
AnchorPoint: "Anchor-2" 383 681 basechar 0
AnchorPoint: "Anchor-1" 319 0 basechar 0
AnchorPoint: "Anchor-0" 203 675 basechar 0
LayerCount: 2
Fore
SplineSet
212 0 m 0,0,1
 168 0 168 0 137.5 11 c 128,-1,2
 107 22 107 22 92.5 45 c 128,-1,3
 78 68 78 68 78 104 c 0,4,5
 78 119 78 119 80.5 136.5 c 128,-1,6
 83 154 83 154 87 172.5 c 128,-1,7
 91 191 91 191 96 209 c 2,8,-1
 180 552 l 1,9,-1
 291 569 l 1,10,-1
 517 569 l 1,11,-1
 491 457 l 1,12,-1
 58 457 l 1,13,-1
 83 564 l 1,14,-1
 96 564 l 2,15,16
 126 564 126 564 148 568 c 128,-1,17
 170 572 170 572 185.5 588 c 128,-1,18
 201 604 201 604 208 636 c 2,19,-1
 233 734 l 1,20,-1
 396 734 l 1,21,-1
 266 208 l 2,22,23
 264 199 264 199 261.5 189 c 128,-1,24
 259 179 259 179 257.5 170 c 128,-1,25
 256 161 256 161 256 154 c 0,26,27
 256 136 256 136 267 128.5 c 128,-1,28
 278 121 278 121 298 121 c 0,29,30
 317 121 317 121 338 121 c 128,-1,31
 359 121 359 121 377.5 121 c 128,-1,32
 396 121 396 121 408 121 c 1,33,-1
 381 0 l 1,34,35
 354 0 354 0 313.5 0 c 128,-1,36
 273 0 273 0 212 0 c 0,0,1
EndSplineSet
EndChar

StartChar: u
Encoding: 117 117 107
Width: 711
GlyphClass: 2
Flags: W
AnchorPoint: "Anchor-2" 512 0 basechar 0
AnchorPoint: "Anchor-1" 328 0 basechar 0
AnchorPoint: "Anchor-0" 328 551 basechar 0
LayerCount: 2
Fore
SplineSet
250 215 m 2,0,1
 244 195 244 195 241 181 c 128,-1,2
 238 167 238 167 238 155 c 0,3,4
 238 144 238 144 242.5 136.5 c 128,-1,5
 247 129 247 129 256 125.5 c 128,-1,6
 265 122 265 122 279 122 c 0,7,8
 305 122 305 122 331 136 c 128,-1,9
 357 150 357 150 388.5 180 c 128,-1,10
 420 210 420 210 458 256 c 1,11,-1
 450 181 l 1,12,13
 409 125 409 125 368 81.5 c 128,-1,14
 327 38 327 38 279 13.5 c 128,-1,15
 231 -11 231 -11 171 -11 c 0,16,17
 115 -11 115 -11 86 15 c 128,-1,18
 57 41 57 41 57 83 c 0,19,20
 57 106 57 106 61 129.5 c 128,-1,21
 65 153 65 153 71 178 c 2,22,-1
 137 433 l 2,23,24
 139 440 139 440 132 445.5 c 128,-1,25
 125 451 125 451 111.5 455.5 c 128,-1,26
 98 460 98 460 79 464 c 2,27,-1
 71 466 l 1,28,-1
 94 569 l 1,29,-1
 340 569 l 1,30,-1
 250 215 l 2,0,1
604 256 m 2,31,32
 593 211 593 211 586.5 185 c 128,-1,33
 580 159 580 159 577 146.5 c 128,-1,34
 574 134 574 134 574 127 c 0,35,36
 574 117 574 117 580 111.5 c 128,-1,37
 586 106 586 106 600 106 c 0,38,39
 615 106 615 106 629.5 106 c 128,-1,40
 644 106 644 106 660 106 c 1,41,-1
 638 0 l 1,42,43
 617 0 617 0 595.5 0 c 128,-1,44
 574 0 574 0 553.5 0 c 128,-1,45
 533 0 533 0 511 0 c 0,46,47
 466 0 466 0 442 19.5 c 128,-1,48
 418 39 418 39 418 77 c 0,49,50
 418 83 418 83 418 95 c 128,-1,51
 418 107 418 107 419 124.5 c 128,-1,52
 420 142 420 142 421 163 c 1,53,-1
 409 161 l 1,54,-1
 510 569 l 1,55,-1
 682 569 l 1,56,-1
 604 256 l 2,31,32
EndSplineSet
EndChar

StartChar: v
Encoding: 118 118 112
Width: 617
GlyphClass: 1
Flags: W
LayerCount: 2
Fore
SplineSet
280 569 m 1,0,-1
 69 569 l 1,1,-1
 47 469 l 1,2,-1
 59 467 l 2,3,4
 77 463 77 463 91 458.5 c 128,-1,5
 105 454 105 454 113 448.5 c 128,-1,6
 121 443 121 443 122 436 c 2,7,-1
 154 0 l 1,8,-1
 325 0 l 1,9,10
 365 69 365 69 404.5 139 c 128,-1,11
 444 209 444 209 483.5 278 c 128,-1,12
 523 347 523 347 562.5 417 c 128,-1,13
 602 487 602 487 642 556 c 1,14,-1
 642 569 l 1,15,-1
 507 569 l 1,16,17
 480 509 480 509 452 450 c 128,-1,18
 424 391 424 391 396.5 331.5 c 128,-1,19
 369 272 369 272 341 213 c 128,-1,20
 313 154 313 154 285 94 c 1,21,-1
 313 52 l 1,22,-1
 280 569 l 1,0,-1
EndSplineSet
EndChar

StartChar: w
Encoding: 119 119 113
Width: 943
GlyphClass: 1
Flags: W
LayerCount: 2
Fore
SplineSet
308 0 m 1,0,-1
 138 0 l 1,1,-1
 120 436 l 2,2,3
 120 443 120 443 112 448.5 c 128,-1,4
 104 454 104 454 90.5 458.5 c 128,-1,5
 77 463 77 463 59 467 c 2,6,-1
 47 469 l 1,7,-1
 69 569 l 1,8,-1
 278 569 l 1,9,-1
 295 52 l 1,10,-1
 268 96 l 1,11,12
 295 155 295 155 321 214 c 128,-1,13
 347 273 347 273 373 332 c 128,-1,14
 399 391 399 391 425.5 450.5 c 128,-1,15
 452 510 452 510 478 569 c 1,16,-1
 633 569 l 1,17,-1
 654 52 l 1,18,-1
 632 94 l 1,19,20
 657 154 657 154 682.5 213 c 128,-1,21
 708 272 708 272 733.5 331 c 128,-1,22
 759 390 759 390 784.5 449.5 c 128,-1,23
 810 509 810 509 835 569 c 1,24,-1
 968 569 l 1,25,-1
 968 556 l 1,26,27
 931 487 931 487 893.5 417 c 128,-1,28
 856 347 856 347 818.5 278 c 128,-1,29
 781 209 781 209 743.5 139 c 128,-1,30
 706 69 706 69 668 0 c 1,31,-1
 502 0 l 1,32,-1
 486 458 l 1,33,-1
 528 453 l 1,34,35
 492 378 492 378 455 302.5 c 128,-1,36
 418 227 418 227 381.5 151.5 c 128,-1,37
 345 76 345 76 308 0 c 1,0,-1
EndSplineSet
EndChar

StartChar: x
Encoding: 120 120 114
Width: 621
GlyphClass: 1
Flags: W
LayerCount: 2
Fore
SplineSet
392 268 m 1,0,-1
 343 325 l 1,1,-1
 487 569 l 1,2,-1
 636 569 l 1,3,-1
 636 553 l 1,4,-1
 392 268 l 1,0,-1
-17 0 m 1,5,-1
 -16 15 l 1,6,-1
 236 303 l 1,7,-1
 288 248 l 1,8,-1
 133 0 l 1,9,-1
 -17 0 l 1,5,-1
419 0 m 0,10,11
 390 0 390 0 370.5 7.5 c 128,-1,12
 351 15 351 15 338 31.5 c 128,-1,13
 325 48 325 48 313 76 c 2,14,-1
 168 432 l 2,15,16
 165 441 165 441 153.5 447.5 c 128,-1,17
 142 454 142 454 126.5 458.5 c 128,-1,18
 111 463 111 463 93 466 c 2,19,-1
 79 468 l 1,20,-1
 102 569 l 1,21,-1
 290 569 l 1,22,-1
 465 135 l 2,23,24
 470 123 470 123 475.5 116 c 128,-1,25
 481 109 481 109 489 107 c 128,-1,26
 497 105 497 105 511 105 c 256,27,28
 525 105 525 105 538 105 c 128,-1,29
 551 105 551 105 567 105 c 1,30,-1
 546 0 l 1,31,32
 514 0 514 0 484.5 0 c 128,-1,33
 455 0 455 0 419 0 c 0,10,11
EndSplineSet
EndChar

StartChar: y
Encoding: 121 121 115
Width: 628
GlyphClass: 1
Flags: W
LayerCount: 2
Fore
SplineSet
217 -32 m 1,0,-1
 334 51 l 1,1,-1
 357 114 l 1,2,-1
 274 569 l 1,3,-1
 73 569 l 1,4,-1
 48 468 l 1,5,-1
 59 466 l 2,6,7
 77 462 77 462 91.5 457.5 c 128,-1,8
 106 453 106 453 114.5 447.5 c 128,-1,9
 123 442 123 442 124 435 c 2,10,-1
 217 -32 l 1,0,-1
304 121 m 1,11,-1
 249 54 l 1,12,13
 224 3 224 3 200 -32.5 c 128,-1,14
 176 -68 176 -68 150.5 -90 c 128,-1,15
 125 -112 125 -112 97 -121.5 c 128,-1,16
 69 -131 69 -131 38 -131 c 0,17,18
 -1 -131 -1 -131 -29 -122.5 c 128,-1,19
 -57 -114 -57 -114 -68 -109 c 1,20,-1
 -96 -221 l 1,21,22
 -83 -228 -83 -228 -54 -236 c 128,-1,23
 -25 -244 -25 -244 14 -244 c 0,24,25
 65 -244 65 -244 106 -231.5 c 128,-1,26
 147 -219 147 -219 183.5 -190.5 c 128,-1,27
 220 -162 220 -162 257 -113 c 128,-1,28
 294 -64 294 -64 337 9 c 0,29,30
 364 55 364 55 394 107 c 128,-1,31
 424 159 424 159 456 215 c 128,-1,32
 488 271 488 271 521.5 328.5 c 128,-1,33
 555 386 555 386 588.5 443.5 c 128,-1,34
 622 501 622 501 654 556 c 1,35,-1
 654 569 l 1,36,-1
 516 569 l 1,37,38
 489 513 489 513 462.5 457 c 128,-1,39
 436 401 436 401 410 345 c 128,-1,40
 384 289 384 289 357.5 233 c 128,-1,41
 331 177 331 177 304 121 c 1,11,-1
EndSplineSet
EndChar

StartChar: z
Encoding: 122 122 118
Width: 635
GlyphClass: 2
Flags: W
AnchorPoint: "Anchor-1" 344 0 basechar 0
AnchorPoint: "Anchor-0" 319 551 basechar 0
LayerCount: 2
Fore
SplineSet
411 -12 m 0,0,1
 370 -12 370 -12 339 1 c 128,-1,2
 308 14 308 14 283 37 c 128,-1,3
 258 60 258 60 236.5 90.5 c 128,-1,4
 215 121 215 121 192 155 c 1,5,-1
 237 194 l 1,6,7
 258 177 258 177 278 163.5 c 128,-1,8
 298 150 298 150 325.5 143 c 128,-1,9
 353 136 353 136 395 136 c 0,10,11
 426 136 426 136 448.5 145 c 128,-1,12
 471 154 471 154 487 179.5 c 128,-1,13
 503 205 503 205 515 254 c 1,14,-1
 588 241 l 1,15,16
 591 180 591 180 581 132.5 c 128,-1,17
 571 85 571 85 548.5 52.5 c 128,-1,18
 526 20 526 20 491 4 c 128,-1,19
 456 -12 456 -12 411 -12 c 0,0,1
97 0 m 1,20,-1
 -3 0 l 1,21,-1
 10 70 l 1,22,-1
 464 479 l 1,23,-1
 480 440 l 1,24,-1
 308 440 l 2,25,26
 263 440 263 440 238.5 435.5 c 128,-1,27
 214 431 214 431 201.5 421 c 128,-1,28
 189 411 189 411 181 392 c 2,29,-1
 158 335 l 1,30,-1
 61 335 l 1,31,-1
 118 569 l 1,32,-1
 611 569 l 1,33,-1
 584 449 l 1,34,-1
 97 0 l 1,20,-1
EndSplineSet
EndChar

StartChar: zcaron
Encoding: 158 382 119
Width: 635
GlyphClass: 1
Flags: W
LayerCount: 2
Fore
SplineSet
302 633 m 1,0,-1
 415 633 l 1,1,-1
 605 819 l 1,2,-1
 616 861 l 1,3,-1
 538 861 l 1,4,-1
 356 746 l 1,5,-1
 411 744 l 1,6,-1
 281 861 l 1,7,-1
 212 861 l 1,8,-1
 201 819 l 1,9,-1
 302 633 l 1,0,-1
411 -12 m 0,10,11
 370 -12 370 -12 339 1 c 128,-1,12
 308 14 308 14 283 37 c 128,-1,13
 258 60 258 60 236.5 90.5 c 128,-1,14
 215 121 215 121 192 155 c 1,15,-1
 237 194 l 1,16,17
 258 177 258 177 278 163.5 c 128,-1,18
 298 150 298 150 325.5 143 c 128,-1,19
 353 136 353 136 395 136 c 0,20,21
 426 136 426 136 448.5 145 c 128,-1,22
 471 154 471 154 487 179.5 c 128,-1,23
 503 205 503 205 515 254 c 1,24,-1
 588 241 l 1,25,26
 591 180 591 180 581 132.5 c 128,-1,27
 571 85 571 85 548.5 52.5 c 128,-1,28
 526 20 526 20 491 4 c 128,-1,29
 456 -12 456 -12 411 -12 c 0,10,11
97 0 m 1,30,-1
 -3 0 l 1,31,-1
 10 70 l 1,32,-1
 464 479 l 1,33,-1
 480 440 l 1,34,-1
 308 440 l 2,35,36
 263 440 263 440 238.5 435.5 c 128,-1,37
 214 431 214 431 201.5 421 c 128,-1,38
 189 411 189 411 181 392 c 2,39,-1
 158 335 l 1,40,-1
 61 335 l 1,41,-1
 118 569 l 1,42,-1
 611 569 l 1,43,-1
 584 449 l 1,44,-1
 97 0 l 1,30,-1
EndSplineSet
EndChar

StartChar: germandbls
Encoding: 223 223 120
Width: 731
GlyphClass: 1
Flags: W
LayerCount: 2
Fore
SplineSet
67 569 m 1,0,-1
 235 569 l 1,1,-1
 211 463 l 1,2,-1
 43 463 l 1,3,-1
 67 569 l 1,0,-1
26 -239 m 1,4,-1
 172 611 l 2,5,6
 183 674 183 674 220 712.5 c 128,-1,7
 257 751 257 751 317 769 c 128,-1,8
 377 787 377 787 454 787 c 0,9,10
 533 787 533 787 587.5 767 c 128,-1,11
 642 747 642 747 670.5 711 c 128,-1,12
 699 675 699 675 699 628 c 0,13,14
 699 577 699 577 680.5 540 c 128,-1,15
 662 503 662 503 628.5 479 c 128,-1,16
 595 455 595 455 550.5 443 c 128,-1,17
 506 431 506 431 453 430 c 1,18,-1
 493 458 l 1,19,-1
 480 405 l 1,20,-1
 463 430 l 1,21,22
 521 423 521 423 571 402.5 c 128,-1,23
 621 382 621 382 651 343.5 c 128,-1,24
 681 305 681 305 681 242 c 0,25,26
 681 183 681 183 663 136.5 c 128,-1,27
 645 90 645 90 610.5 57 c 128,-1,28
 576 24 576 24 528 7 c 128,-1,29
 480 -10 480 -10 420 -10 c 0,30,31
 381 -10 381 -10 349 -3.5 c 128,-1,32
 317 3 317 3 299 12 c 1,33,-1
 324 123 l 1,34,35
 328 122 328 122 338 118 c 128,-1,36
 348 114 348 114 363 110 c 128,-1,37
 378 106 378 106 396 106 c 0,38,39
 424 106 424 106 444 119.5 c 128,-1,40
 464 133 464 133 477 156.5 c 128,-1,41
 490 180 490 180 496.5 209 c 128,-1,42
 503 238 503 238 503 268 c 0,43,44
 503 299 503 299 495 318.5 c 128,-1,45
 487 338 487 338 471.5 349 c 128,-1,46
 456 360 456 360 433 365 c 128,-1,47
 410 370 410 370 380 372 c 1,48,-1
 407 491 l 1,49,50
 439 492 439 492 462 499.5 c 128,-1,51
 485 507 485 507 500 521 c 128,-1,52
 515 535 515 535 521.5 557 c 128,-1,53
 528 579 528 579 528 608 c 0,54,55
 528 635 528 635 519.5 650.5 c 128,-1,56
 511 666 511 666 493 672.5 c 128,-1,57
 475 679 475 679 447 679 c 0,58,59
 414 679 414 679 393.5 669.5 c 128,-1,60
 373 660 373 660 360 637 c 128,-1,61
 347 614 347 614 337 570 c 2,62,-1
 159 -239 l 1,63,-1
 26 -239 l 1,4,-1
EndSplineSet
EndChar

StartChar: ae
Encoding: 230 230 121
Width: 974
GlyphClass: 2
Flags: W
AnchorPoint: "Anchor-0" 548 517 basechar 0
LayerCount: 2
Fore
SplineSet
334 472 m 0,0,1
 306 472 306 472 280.5 467 c 128,-1,2
 255 462 255 462 237.5 456.5 c 128,-1,3
 220 451 220 451 213 447 c 1,4,5
 213 452 213 452 217 462.5 c 128,-1,6
 221 473 221 473 228 483.5 c 128,-1,7
 235 494 235 494 245.5 501 c 128,-1,8
 256 508 256 508 270 507 c 1,9,-1
 237 376 l 1,10,-1
 94 376 l 1,11,-1
 133 532 l 1,12,13
 150 540 150 540 181 551.5 c 128,-1,14
 212 563 212 563 254.5 571.5 c 128,-1,15
 297 580 297 580 346 580 c 0,16,17
 408 580 408 580 455 564.5 c 128,-1,18
 502 549 502 549 528.5 518.5 c 128,-1,19
 555 488 555 488 555 444 c 2,20,-1
 555 388 l 1,21,-1
 397 305 l 1,22,-1
 415 370 l 2,23,24
 421 392 421 392 422 402.5 c 128,-1,25
 423 413 423 413 423 422 c 0,26,27
 423 437 423 437 415 448 c 128,-1,28
 407 459 407 459 387.5 465.5 c 128,-1,29
 368 472 368 472 334 472 c 0,0,1
209 -12 m 0,30,31
 150 -12 150 -12 110 6 c 128,-1,32
 70 24 70 24 49.5 57 c 128,-1,33
 29 90 29 90 29 135 c 0,34,35
 29 178 29 178 47 215 c 128,-1,36
 65 252 65 252 110 280.5 c 128,-1,37
 155 309 155 309 236.5 326.5 c 128,-1,38
 318 344 318 344 445 350 c 1,39,-1
 428 263 l 1,40,41
 359 258 359 258 314 250 c 128,-1,42
 269 242 269 242 242.5 232 c 128,-1,43
 216 222 216 222 203.5 209 c 128,-1,44
 191 196 191 196 187.5 181.5 c 128,-1,45
 184 167 184 167 184 151 c 0,46,47
 184 126 184 126 199.5 109.5 c 128,-1,48
 215 93 215 93 254 93 c 0,49,50
 283 93 283 93 306 100.5 c 128,-1,51
 329 108 329 108 355 128 c 128,-1,52
 381 148 381 148 416 185 c 1,53,-1
 448 133 l 1,54,55
 409 82 409 82 375.5 50 c 128,-1,56
 342 18 342 18 303.5 3 c 128,-1,57
 265 -12 265 -12 209 -12 c 0,30,31
645 -14 m 0,58,59
 564 -14 564 -14 506 13 c 128,-1,60
 448 40 448 40 417.5 90.5 c 128,-1,61
 387 141 387 141 387 212 c 0,62,63
 387 251 387 251 392.5 282 c 128,-1,64
 398 313 398 313 409.5 339.5 c 128,-1,65
 421 366 421 366 437.5 388.5 c 128,-1,66
 454 411 454 411 476 429 c 1,67,68
 494 465 494 465 520.5 493 c 128,-1,69
 547 521 547 521 579.5 540.5 c 128,-1,70
 612 560 612 560 651 570 c 128,-1,71
 690 580 690 580 734 580 c 0,72,73
 809 580 809 580 855.5 559 c 128,-1,74
 902 538 902 538 924 504 c 128,-1,75
 946 470 946 470 946 429 c 0,76,77
 946 375 946 375 916.5 335.5 c 128,-1,78
 887 296 887 296 831 271 c 128,-1,79
 775 246 775 246 696.5 233 c 128,-1,80
 618 220 618 220 518 216 c 1,81,-1
 515 293 l 1,82,83
 585 296 585 296 637.5 303.5 c 128,-1,84
 690 311 690 311 724.5 325 c 128,-1,85
 759 339 759 339 776.5 361.5 c 128,-1,86
 794 384 794 384 794 415 c 0,87,88
 794 449 794 449 775 466 c 128,-1,89
 756 483 756 483 721 483 c 0,90,91
 680 483 680 483 648.5 461.5 c 128,-1,92
 617 440 617 440 596 403.5 c 128,-1,93
 575 367 575 367 564 319.5 c 128,-1,94
 553 272 553 272 553 220 c 0,95,96
 553 179 553 179 566 153.5 c 128,-1,97
 579 128 579 128 606.5 116 c 128,-1,98
 634 104 634 104 677 104 c 0,99,100
 715 104 715 104 744 117 c 128,-1,101
 773 130 773 130 795.5 151 c 128,-1,102
 818 172 818 172 834 196 c 1,103,-1
 916 139 l 1,104,105
 889 91 889 91 849 56.5 c 128,-1,106
 809 22 809 22 758 4 c 128,-1,107
 707 -14 707 -14 645 -14 c 0,58,59
EndSplineSet
EndChar

StartChar: eth
Encoding: 240 240 122
Width: 695
GlyphClass: 1
Flags: W
LayerCount: 2
Fore
SplineSet
170 658 m 1,0,-1
 697 779 l 1,1,-1
 712 692 l 1,2,-1
 186 573 l 1,3,-1
 170 658 l 1,0,-1
507 412 m 1,4,-1
 491 328 l 1,5,6
 482 361 482 361 465.5 386.5 c 128,-1,7
 449 412 449 412 422.5 427 c 128,-1,8
 396 442 396 442 356 442 c 0,9,10
 325 442 325 442 301.5 429.5 c 128,-1,11
 278 417 278 417 261 393.5 c 128,-1,12
 244 370 244 370 232.5 337.5 c 128,-1,13
 221 305 221 305 212 264 c 0,14,15
 210 250 210 250 208 237 c 128,-1,16
 206 224 206 224 205 211.5 c 128,-1,17
 204 199 204 199 204 187 c 0,18,19
 204 164 204 164 210 147 c 128,-1,20
 216 130 216 130 229 119 c 128,-1,21
 242 108 242 108 261 102.5 c 128,-1,22
 280 97 280 97 306 97 c 0,23,24
 338 97 338 97 361 106 c 128,-1,25
 384 115 384 115 400.5 136 c 128,-1,26
 417 157 417 157 430.5 192.5 c 128,-1,27
 444 228 444 228 459 281 c 0,28,29
 469 321 469 321 476.5 358 c 128,-1,30
 484 395 484 395 487.5 430.5 c 128,-1,31
 491 466 491 466 491 496 c 0,32,33
 491 548 491 548 479 584.5 c 128,-1,34
 467 621 467 621 439 649 c 128,-1,35
 411 677 411 677 364 699.5 c 128,-1,36
 317 722 317 722 248 746 c 1,37,-1
 296 829 l 1,38,39
 394 803 394 803 463.5 765.5 c 128,-1,40
 533 728 533 728 576.5 679 c 128,-1,41
 620 630 620 630 640 569.5 c 128,-1,42
 660 509 660 509 660 438 c 0,43,44
 660 366 660 366 647 299.5 c 128,-1,45
 634 233 634 233 607 176 c 128,-1,46
 580 119 580 119 538.5 76.5 c 128,-1,47
 497 34 497 34 440.5 10 c 128,-1,48
 384 -14 384 -14 311 -14 c 0,49,50
 220 -14 220 -14 159.5 15.5 c 128,-1,51
 99 45 99 45 69 97 c 128,-1,52
 39 149 39 149 39 216 c 0,53,54
 39 286 39 286 59 347 c 128,-1,55
 79 408 79 408 116.5 454 c 128,-1,56
 154 500 154 500 207.5 526 c 128,-1,57
 261 552 261 552 329 552 c 0,58,59
 371 552 371 552 401 542.5 c 128,-1,60
 431 533 431 533 452 514.5 c 128,-1,61
 473 496 473 496 486 470.5 c 128,-1,62
 499 445 499 445 507 412 c 1,4,-1
EndSplineSet
EndChar

StartChar: oslash
Encoding: 248 248 123
Width: 691
GlyphClass: 2
Flags: W
AnchorPoint: "Anchor-0" 345 551 basechar 0
LayerCount: 2
Fore
SplineSet
314 88 m 0,0,1
 349 88 349 88 374 100.5 c 128,-1,2
 399 113 399 113 416.5 135 c 128,-1,3
 434 157 434 157 446 185.5 c 128,-1,4
 458 214 458 214 468 246 c 0,5,6
 476 270 476 270 481 292 c 128,-1,7
 486 314 486 314 488.5 336.5 c 128,-1,8
 491 359 491 359 491 383 c 0,9,10
 491 410 491 410 481.5 431.5 c 128,-1,11
 472 453 472 453 448 465.5 c 128,-1,12
 424 478 424 478 382 478 c 0,13,14
 348 478 348 478 322.5 466 c 128,-1,15
 297 454 297 454 279.5 433 c 128,-1,16
 262 412 262 412 249 383.5 c 128,-1,17
 236 355 236 355 226 323 c 0,18,19
 219 299 219 299 213.5 276.5 c 128,-1,20
 208 254 208 254 205 231.5 c 128,-1,21
 202 209 202 209 202 184 c 0,22,23
 202 157 202 157 212.5 134.5 c 128,-1,24
 223 112 223 112 247.5 100 c 128,-1,25
 272 88 272 88 314 88 c 0,0,1
307 -14 m 0,26,27
 227 -14 227 -14 168 14 c 128,-1,28
 109 42 109 42 77 93.5 c 128,-1,29
 45 145 45 145 45 216 c 0,30,31
 45 267 45 267 57 319 c 128,-1,32
 69 371 69 371 94.5 417.5 c 128,-1,33
 120 464 120 464 160 500.5 c 128,-1,34
 200 537 200 537 256 558.5 c 128,-1,35
 312 580 312 580 386 580 c 0,36,37
 466 580 466 580 525 552 c 128,-1,38
 584 524 584 524 616.5 472 c 128,-1,39
 649 420 649 420 649 350 c 0,40,41
 649 298 649 298 636.5 246.5 c 128,-1,42
 624 195 624 195 599 148 c 128,-1,43
 574 101 574 101 533.5 64.5 c 128,-1,44
 493 28 493 28 437.5 7 c 128,-1,45
 382 -14 382 -14 307 -14 c 0,26,27
-43 -14 m 1,46,-1
 611 580 l 1,47,-1
 733 580 l 1,48,-1
 80 -14 l 1,49,-1
 -43 -14 l 1,46,-1
EndSplineSet
EndChar

StartChar: thorn
Encoding: 254 254 124
Width: 727
GlyphClass: 1
Flags: W
LayerCount: 2
Fore
SplineSet
367 116 m 0,0,1
 397 116 397 116 420.5 132.5 c 128,-1,2
 444 149 444 149 461.5 176 c 128,-1,3
 479 203 479 203 490.5 236.5 c 128,-1,4
 502 270 502 270 508 305.5 c 128,-1,5
 514 341 514 341 514 372 c 0,6,7
 514 398 514 398 506.5 417 c 128,-1,8
 499 436 499 436 483.5 446.5 c 128,-1,9
 468 457 468 457 442 457 c 0,10,11
 410 457 410 457 381.5 444 c 128,-1,12
 353 431 353 431 321 401.5 c 128,-1,13
 289 372 289 372 244 321 c 1,14,-1
 247 373 l 1,15,16
 288 439 288 439 327.5 485 c 128,-1,17
 367 531 367 531 410.5 555 c 128,-1,18
 454 579 454 579 507 579 c 0,19,20
 567 579 567 579 607 554.5 c 128,-1,21
 647 530 647 530 667 484 c 128,-1,22
 687 438 687 438 687 375 c 0,23,24
 687 322 687 322 675 267.5 c 128,-1,25
 663 213 663 213 639.5 163 c 128,-1,26
 616 113 616 113 582.5 73 c 128,-1,27
 549 33 549 33 504.5 10.5 c 128,-1,28
 460 -12 460 -12 406 -12 c 0,29,30
 349 -12 349 -12 309.5 10.5 c 128,-1,31
 270 33 270 33 247.5 79 c 128,-1,32
 225 125 225 125 218 194 c 1,33,-1
 225 239 l 1,34,35
 244 200 244 200 263 172.5 c 128,-1,36
 282 145 282 145 307 130.5 c 128,-1,37
 332 116 332 116 367 116 c 0,0,1
227 -223 m 1,38,-1
 -92 -223 l 1,39,-1
 -71 -130 l 1,40,-1
 -67 -130 l 2,41,42
 -37 -130 -37 -130 -20 -116 c 128,-1,43
 -3 -102 -3 -102 7 -60 c 2,44,-1
 187 644 l 2,45,46
 190 651 190 651 183 656.5 c 128,-1,47
 176 662 176 662 162.5 667 c 128,-1,48
 149 672 149 672 131 676 c 2,49,-1
 123 678 l 1,50,-1
 146 780 l 1,51,-1
 389 780 l 1,52,-1
 164 -121 l 2,53,54
 163 -124 163 -124 169 -125.5 c 128,-1,55
 175 -127 175 -127 185 -128 c 128,-1,56
 195 -129 195 -129 208 -129.5 c 128,-1,57
 221 -130 221 -130 235 -130 c 2,58,-1
 248 -130 l 1,59,-1
 227 -223 l 1,38,-1
EndSplineSet
EndChar

StartChar: dotlessi
Encoding: 679 305 125
Width: 354
GlyphClass: 2
Flags: W
AnchorPoint: "Anchor-0" 187 530 basechar 0
LayerCount: 2
Fore
SplineSet
164 -5 m 0,0,1
 129 -5 129 -5 103 6 c 128,-1,2
 77 17 77 17 62.5 38.5 c 128,-1,3
 48 60 48 60 48 91 c 0,4,5
 48 105 48 105 51 122 c 128,-1,6
 54 139 54 139 59.5 165 c 128,-1,7
 65 191 65 191 74 232 c 2,8,-1
 118 433 l 2,9,10
 120 442 120 442 114 448 c 128,-1,11
 108 454 108 454 96 458.5 c 128,-1,12
 84 463 84 463 67 466 c 2,13,-1
 57 468 l 1,14,-1
 73 540 l 1,15,-1
 315 540 l 1,16,-1
 247 222 l 2,17,18
 240 188 240 188 234.5 165.5 c 128,-1,19
 229 143 229 143 226.5 129 c 128,-1,20
 224 115 224 115 224 108 c 0,21,22
 224 96 224 96 230.5 91 c 128,-1,23
 237 86 237 86 251 86 c 0,24,25
 262 86 262 86 272 87 c 128,-1,26
 282 88 282 88 291.5 89.5 c 128,-1,27
 301 91 301 91 308 91 c 1,28,-1
 291 10 l 1,29,30
 274 6 274 6 254 3 c 128,-1,31
 234 0 234 0 211 -2.5 c 128,-1,32
 188 -5 188 -5 164 -5 c 0,0,1
EndSplineSet
EndChar

StartChar: oe
Encoding: 156 339 126
Width: 1051
GlyphClass: 1
Flags: W
LayerCount: 2
Fore
SplineSet
718 -14 m 0,0,1
 653 -14 653 -14 608.5 6 c 128,-1,2
 564 26 564 26 537 59.5 c 128,-1,3
 510 93 510 93 498 132.5 c 128,-1,4
 486 172 486 172 486 212 c 0,5,6
 486 267 486 267 498.5 320 c 128,-1,7
 511 373 511 373 536 420 c 128,-1,8
 561 467 561 467 599 503 c 128,-1,9
 637 539 637 539 688.5 559.5 c 128,-1,10
 740 580 740 580 804 580 c 0,11,12
 881 580 881 580 928.5 559.5 c 128,-1,13
 976 539 976 539 997.5 505.5 c 128,-1,14
 1019 472 1019 472 1019 431 c 0,15,16
 1019 377 1019 377 990 337.5 c 128,-1,17
 961 298 961 298 905.5 272 c 128,-1,18
 850 246 850 246 770.5 232.5 c 128,-1,19
 691 219 691 219 590 216 c 1,20,-1
 589 296 l 1,21,22
 661 299 661 299 714 307 c 128,-1,23
 767 315 767 315 801 329.5 c 128,-1,24
 835 344 835 344 851.5 366 c 128,-1,25
 868 388 868 388 868 417 c 0,26,27
 868 440 868 440 859.5 454 c 128,-1,28
 851 468 851 468 835 475.5 c 128,-1,29
 819 483 819 483 796 483 c 0,30,31
 754 483 754 483 722 461.5 c 128,-1,32
 690 440 690 440 668 404.5 c 128,-1,33
 646 369 646 369 635 325 c 128,-1,34
 624 281 624 281 624 234 c 0,35,36
 624 186 624 186 637.5 158 c 128,-1,37
 651 130 651 130 680 117.5 c 128,-1,38
 709 105 709 105 753 105 c 0,39,40
 789 105 789 105 817 118 c 128,-1,41
 845 131 845 131 866 152 c 128,-1,42
 887 173 887 173 903 197 c 1,43,-1
 986 139 l 1,44,45
 959 90 959 90 920 56 c 128,-1,46
 881 22 881 22 830.5 4 c 128,-1,47
 780 -14 780 -14 718 -14 c 0,0,1
379 580 m 0,48,49
 444 580 444 580 489 561.5 c 128,-1,50
 534 543 534 543 562.5 511.5 c 128,-1,51
 591 480 591 480 604.5 438.5 c 128,-1,52
 618 397 618 397 618 350 c 0,53,54
 618 309 618 309 609.5 260 c 128,-1,55
 601 211 601 211 580.5 163 c 128,-1,56
 560 115 560 115 524.5 74.5 c 128,-1,57
 489 34 489 34 434.5 10 c 128,-1,58
 380 -14 380 -14 303 -14 c 0,59,60
 223 -14 223 -14 163.5 12.5 c 128,-1,61
 104 39 104 39 71.5 89.5 c 128,-1,62
 39 140 39 140 39 213 c 0,63,64
 39 265 39 265 51 317 c 128,-1,65
 63 369 63 369 88.5 416 c 128,-1,66
 114 463 114 463 154 500 c 128,-1,67
 194 537 194 537 249.5 558.5 c 128,-1,68
 305 580 305 580 379 580 c 0,48,49
222 276 m 0,69,70
 218 249 218 249 218 224.5 c 128,-1,71
 218 200 218 200 224.5 181.5 c 128,-1,72
 231 163 231 163 246 151 c 0,73,74
 260 134 260 134 276.5 127 c 128,-1,75
 293 120 293 120 314.5 122.5 c 128,-1,76
 336 125 336 125 365 138 c 1,77,78
 386 143 386 143 401 157.5 c 128,-1,79
 416 172 416 172 426.5 192.5 c 128,-1,80
 437 213 437 213 444 238.5 c 128,-1,81
 451 264 451 264 457 291 c 0,82,83
 462 320 462 320 461.5 343.5 c 128,-1,84
 461 367 461 367 454.5 386 c 128,-1,85
 448 405 448 405 433 416 c 1,86,87
 419 432 419 432 402.5 438.5 c 128,-1,88
 386 445 386 445 365.5 442.5 c 128,-1,89
 345 440 345 440 316 428 c 0,90,91
 295 422 295 422 279.5 408.5 c 128,-1,92
 264 395 264 395 254 375 c 128,-1,93
 244 355 244 355 236.5 330 c 128,-1,94
 229 305 229 305 222 276 c 0,69,70
EndSplineSet
EndChar

StartChar: dotlessj
Encoding: 689 567 127
Width: 357
GlyphClass: 2
Flags: W
AnchorPoint: "Anchor-0" 180 521 basechar 0
LayerCount: 2
Fore
SplineSet
-171 -220 m 1,0,-1
 -151 -138 l 1,1,2
 -139 -143 -139 -143 -116 -150.5 c 128,-1,3
 -93 -158 -93 -158 -66 -158 c 0,4,5
 -37 -158 -37 -158 -18 -146 c 128,-1,6
 1 -134 1 -134 14.5 -105.5 c 128,-1,7
 28 -77 28 -77 37 -31 c 2,8,-1
 138 431 l 2,9,10
 140 440 140 440 134 446.5 c 128,-1,11
 128 453 128 453 115.5 457 c 128,-1,12
 103 461 103 461 86 464 c 2,13,-1
 74 466 l 1,14,-1
 90 540 l 1,15,-1
 335 540 l 1,16,-1
 211 -36 l 2,17,18
 195 -113 195 -113 162.5 -158.5 c 128,-1,19
 130 -204 130 -204 81 -223.5 c 128,-1,20
 32 -243 32 -243 -34 -243 c 0,21,22
 -67 -243 -67 -243 -94.5 -239.5 c 128,-1,23
 -122 -236 -122 -236 -141 -230.5 c 128,-1,24
 -160 -225 -160 -225 -171 -220 c 1,0,-1
EndSplineSet
EndChar

StartChar: mu
Encoding: 693 956 128
Width: 728
GlyphClass: 1
Flags: W
LayerCount: 2
Fore
SplineSet
214 -12 m 256,0,1
 184 -12 184 -12 162.5 -3 c 128,-1,2
 141 6 141 6 127 24.5 c 128,-1,3
 113 43 113 43 106 70 c 128,-1,4
 99 97 99 97 98 134 c 1,5,-1
 112 160 l 1,6,7
 105 103 105 103 108 57.5 c 128,-1,8
 111 12 111 12 119 -26.5 c 128,-1,9
 127 -65 127 -65 134.5 -100.5 c 128,-1,10
 142 -136 142 -136 144.5 -172.5 c 128,-1,11
 147 -209 147 -209 138 -250 c 1,12,-1
 -37 -250 l 1,13,-1
 139 540 l 1,14,-1
 313 540 l 1,15,-1
 238 197 l 2,16,17
 234 177 234 177 231 162.5 c 128,-1,18
 228 148 228 148 228 135 c 0,19,20
 228 115 228 115 239 103 c 128,-1,21
 250 91 250 91 273 91 c 0,22,23
 290 91 290 91 308 100.5 c 128,-1,24
 326 110 326 110 345 128 c 128,-1,25
 364 146 364 146 384.5 171.5 c 128,-1,26
 405 197 405 197 427 228 c 1,27,-1
 429 174 l 1,28,29
 404 136 404 136 378.5 102 c 128,-1,30
 353 68 353 68 326.5 42.5 c 128,-1,31
 300 17 300 17 272 2.5 c 128,-1,32
 244 -12 244 -12 214 -12 c 256,0,1
530 -10 m 0,33,34
 483 -10 483 -10 452 4.5 c 128,-1,35
 421 19 421 19 406.5 47 c 128,-1,36
 392 75 392 75 394 116 c 0,37,38
 394 123 394 123 394.5 129.5 c 128,-1,39
 395 136 395 136 396 142.5 c 128,-1,40
 397 149 397 149 398 153 c 1,41,-1
 389 146 l 1,42,-1
 474 540 l 1,43,-1
 650 540 l 1,44,-1
 570 169 l 2,45,46
 566 154 566 154 563.5 143 c 128,-1,47
 561 132 561 132 559.5 125 c 128,-1,48
 558 118 558 118 558 111 c 0,49,50
 558 98 558 98 565.5 92 c 128,-1,51
 573 86 573 86 586 86 c 0,52,53
 600 86 600 86 610 93 c 128,-1,54
 620 100 620 100 629.5 113.5 c 128,-1,55
 639 127 639 127 649 146 c 1,56,-1
 707 111 l 1,57,58
 688 75 688 75 663.5 47.5 c 128,-1,59
 639 20 639 20 606.5 5 c 128,-1,60
 574 -10 574 -10 530 -10 c 0,33,34
EndSplineSet
EndChar

StartChar: ereversedcyr
Encoding: 740 1101 129
Width: 603
GlyphClass: 2
Flags: W
AnchorPoint: "Anchor-1" 265 0 basechar 0
AnchorPoint: "Anchor-0" 278 551 basechar 0
LayerCount: 2
Fore
SplineSet
463 318 m 1,0,-1
 449 240 l 1,1,-1
 198 240 l 1,2,-1
 214 318 l 1,3,-1
 463 318 l 1,0,-1
286 469 m 0,4,5
 251 469 251 469 224 457 c 128,-1,6
 197 445 197 445 177 424 c 128,-1,7
 157 403 157 403 140 377 c 1,8,-1
 75 421 l 1,9,10
 99 461 99 461 132 489.5 c 128,-1,11
 165 518 165 518 210 533.5 c 128,-1,12
 255 549 255 549 313 549 c 0,13,14
 372 549 372 549 418.5 533.5 c 128,-1,15
 465 518 465 518 499 487.5 c 128,-1,16
 533 457 533 457 551 413 c 128,-1,17
 569 369 569 369 569 313 c 0,18,19
 569 242 569 242 547.5 182.5 c 128,-1,20
 526 123 526 123 485.5 79.5 c 128,-1,21
 445 36 445 36 385 12 c 128,-1,22
 325 -12 325 -12 249 -12 c 0,23,24
 192 -12 192 -12 146.5 -3 c 128,-1,25
 101 6 101 6 68.5 20.5 c 128,-1,26
 36 35 36 35 17 49 c 1,27,-1
 45 168 l 1,28,-1
 176 168 l 1,29,-1
 148 47 l 1,30,31
 138 47 138 47 130.5 54.5 c 128,-1,32
 123 62 123 62 119 73.5 c 128,-1,33
 115 85 115 85 114.5 96.5 c 128,-1,34
 114 108 114 108 117 117 c 1,35,36
 125 103 125 103 139.5 91 c 128,-1,37
 154 79 154 79 176.5 72 c 128,-1,38
 199 65 199 65 229 65 c 0,39,40
 262 65 262 65 288 80 c 128,-1,41
 314 95 314 95 333 121 c 128,-1,42
 352 147 352 147 364.5 181.5 c 128,-1,43
 377 216 377 216 383 257.5 c 128,-1,44
 389 299 389 299 389 344 c 0,45,46
 389 385 389 385 378 413 c 128,-1,47
 367 441 367 441 344.5 455 c 128,-1,48
 322 469 322 469 286 469 c 0,4,5
EndSplineSet
EndChar

StartChar: ordfeminine
Encoding: 170 170 130
Width: 682
GlyphClass: 1
Flags: W
LayerCount: 2
Fore
SplineSet
457 299 m 0,0,1
 423 299 423 299 404.5 313.5 c 128,-1,2
 386 328 386 328 386 356 c 0,3,4
 386 363 386 363 386.5 377 c 128,-1,5
 387 391 387 391 389 411 c 1,6,-1
 383 418 l 1,7,-1
 428 598 l 1,8,-1
 436 615 l 1,9,-1
 502 722 l 1,10,-1
 598 722 l 1,11,-1
 541 496 l 2,12,13
 532 463 532 463 527 443.5 c 128,-1,14
 522 424 522 424 520 415 c 128,-1,15
 518 406 518 406 518 401 c 0,16,17
 518 394 518 394 523 390 c 128,-1,18
 528 386 528 386 537 386 c 0,19,20
 549 386 549 386 559.5 386 c 128,-1,21
 570 386 570 386 581 386 c 1,22,-1
 564 299 l 1,23,24
 547 299 547 299 529 299 c 128,-1,25
 511 299 511 299 493 299 c 128,-1,26
 475 299 475 299 457 299 c 0,0,1
232 290 m 0,27,28
 189 290 189 290 160 308 c 128,-1,29
 131 326 131 326 116.5 360.5 c 128,-1,30
 102 395 102 395 102 442 c 0,31,32
 102 492 102 492 117.5 542.5 c 128,-1,33
 133 593 133 593 161.5 635.5 c 128,-1,34
 190 678 190 678 230.5 704 c 128,-1,35
 271 730 271 730 321 730 c 0,36,37
 367 730 367 730 395 711 c 128,-1,38
 423 692 423 692 437 657 c 128,-1,39
 451 622 451 622 454 573 c 1,40,-1
 434 528 l 1,41,42
 426 558 426 558 416.5 581.5 c 128,-1,43
 407 605 407 605 392.5 618.5 c 128,-1,44
 378 632 378 632 352 632 c 0,45,46
 327 632 327 632 306.5 614.5 c 128,-1,47
 286 597 286 597 271.5 569 c 128,-1,48
 257 541 257 541 249.5 509.5 c 128,-1,49
 242 478 242 478 242 450 c 0,50,51
 242 430 242 430 246.5 416 c 128,-1,52
 251 402 251 402 261.5 394.5 c 128,-1,53
 272 387 272 387 289 387 c 0,54,55
 311 387 311 387 329 396.5 c 128,-1,56
 347 406 347 406 367 427 c 128,-1,57
 387 448 387 448 414 482 c 1,58,-1
 425 444 l 1,59,60
 394 395 394 395 365 360 c 128,-1,61
 336 325 336 325 304 307.5 c 128,-1,62
 272 290 272 290 232 290 c 0,27,28
EndSplineSet
EndChar

StartChar: ordmasculine
Encoding: 186 186 131
Width: 614
GlyphClass: 1
Flags: W
LayerCount: 2
Fore
SplineSet
301 291 m 0,0,1
 241 291 241 291 195.5 310.5 c 128,-1,2
 150 330 150 330 125.5 368.5 c 128,-1,3
 101 407 101 407 101 460 c 0,4,5
 101 508 101 508 114.5 555.5 c 128,-1,6
 128 603 128 603 158.5 642.5 c 128,-1,7
 189 682 189 682 238.5 706 c 128,-1,8
 288 730 288 730 361 730 c 0,9,10
 422 730 422 730 466.5 710 c 128,-1,11
 511 690 511 690 536 652.5 c 128,-1,12
 561 615 561 615 561 560 c 0,13,14
 561 513 561 513 547.5 465.5 c 128,-1,15
 534 418 534 418 503.5 378.5 c 128,-1,16
 473 339 473 339 423 315 c 128,-1,17
 373 291 373 291 301 291 c 0,0,1
353 644 m 0,18,19
 332 644 332 644 316.5 636.5 c 128,-1,20
 301 629 301 629 290 616 c 128,-1,21
 279 603 279 603 271 585 c 128,-1,22
 263 567 263 567 256 547 c 0,23,24
 250 529 250 529 245.5 509 c 128,-1,25
 241 489 241 489 239 471 c 128,-1,26
 237 453 237 453 237 437 c 0,27,28
 237 420 237 420 244.5 406 c 128,-1,29
 252 392 252 392 268 384.5 c 128,-1,30
 284 377 284 377 310 377 c 0,31,32
 331 377 331 377 346.5 384 c 128,-1,33
 362 391 362 391 373 404 c 128,-1,34
 384 417 384 417 392 434 c 128,-1,35
 400 451 400 451 407 471 c 256,36,37
 414 491 414 491 417.5 510.5 c 128,-1,38
 421 530 421 530 423.5 549 c 128,-1,39
 426 568 426 568 426 584 c 0,40,41
 426 602 426 602 418.5 616 c 128,-1,42
 411 630 411 630 395 637 c 128,-1,43
 379 644 379 644 353 644 c 0,18,19
EndSplineSet
EndChar

StartChar: arrowright
Encoding: 785 34196 132
Width: 790
GlyphClass: 1
Flags: W
LayerCount: 2
Fore
SplineSet
341 587 m 1,0,-1
 730 367 l 1,1,-1
 730 340 l 1,2,-1
 341 119 l 1,3,-1
 322 145 l 1,4,-1
 489 317 l 1,5,-1
 60 317 l 1,6,-1
 60 389 l 1,7,-1
 489 389 l 1,8,-1
 322 561 l 1,9,-1
 341 587 l 1,0,-1
EndSplineSet
EndChar

StartChar: zero
Encoding: 48 48 133
Width: 560
GlyphClass: 1
Flags: W
LayerCount: 2
Fore
SplineSet
222 -11 m 0,0,1
 185 -11 185 -11 153.5 -1.5 c 128,-1,2
 122 8 122 8 97.5 26 c 128,-1,3
 73 44 73 44 56 71 c 128,-1,4
 39 98 39 98 30 133 c 128,-1,5
 21 168 21 168 21 210 c 0,6,7
 21 267 21 267 32.5 332.5 c 128,-1,8
 44 398 44 398 68 461 c 128,-1,9
 92 524 92 524 129 575.5 c 128,-1,10
 166 627 166 627 219 658 c 128,-1,11
 272 689 272 689 341 689 c 0,12,13
 379 689 379 689 410 679.5 c 128,-1,14
 441 670 441 670 465.5 652 c 128,-1,15
 490 634 490 634 507 607 c 128,-1,16
 524 580 524 580 533 545 c 128,-1,17
 542 510 542 510 542 468 c 0,18,19
 542 411 542 411 530.5 345.5 c 128,-1,20
 519 280 519 280 495 217 c 128,-1,21
 471 154 471 154 434 102.5 c 128,-1,22
 397 51 397 51 344 20 c 128,-1,23
 291 -11 291 -11 222 -11 c 0,0,1
232 90 m 0,24,25
 251 90 251 90 268.5 100.5 c 128,-1,26
 286 111 286 111 302 137 c 128,-1,27
 318 163 318 163 334 207 c 128,-1,28
 350 251 350 251 367 318 c 0,29,30
 380 369 380 369 387 406.5 c 128,-1,31
 394 444 394 444 396.5 470.5 c 128,-1,32
 399 497 399 497 399 515 c 0,33,34
 399 540 399 540 392.5 556 c 128,-1,35
 386 572 386 572 371.5 580 c 128,-1,36
 357 588 357 588 334 588 c 0,37,38
 314 588 314 588 296 577 c 128,-1,39
 278 566 278 566 261.5 540.5 c 128,-1,40
 245 515 245 515 229 471.5 c 128,-1,41
 213 428 213 428 196 361 c 0,42,43
 183 308 183 308 176 269.5 c 128,-1,44
 169 231 169 231 166.5 204.5 c 128,-1,45
 164 178 164 178 164 162 c 0,46,47
 164 137 164 137 171.5 121 c 128,-1,48
 179 105 179 105 194 97.5 c 128,-1,49
 209 90 209 90 232 90 c 0,24,25
EndSplineSet
Substitution2: "'zero' Slashed Zero in Latin lookup 63 subtable" zero.slash
Substitution2: "'pnum' Proportional Numbers in Latin lookup 55 subtable" zero.midprop
Substitution2: "'lnum' Lining Figures in Latin lookup 54 subtable" zero.lintab
Substitution2: "'onum' Oldstyle Figures in Latin lookup 53 subtable" zero.oldtab
Substitution2: "'sinf' Scientific Inferiors in Latin lookup 52 subtable" zero.sub
Substitution2: "'subs' Subscript in Latin lookup 51 subtable" zero.sub
Substitution2: "'sups' Superscript in Latin lookup 50 subtable" zero.sup
Substitution2: "'numr' Numerators in Latin lookup 49 subtable" zero.num
Substitution2: "'dnom' Denominators in Latin lookup 48 subtable" zero.den
Substitution2: "Single Substitution lookup 35 subtable" zero.den
Substitution2: "Single Substitution lookup 33 subtable" zero.num
Substitution2: "Single Substitution lookup 31 subtable" zero.num
Substitution2: "Single Substitution lookup 29 subtable" zero.num
Substitution2: "Single Substitution lookup 27 subtable" zero.num
Substitution2: "Single Substitution lookup 25 subtable" zero.num
Substitution2: "Single Substitution lookup 23 subtable" zero.num
Substitution2: "Single Substitution lookup 21 subtable" zero.num
Substitution2: "Single Substitution lookup 19 subtable" zero.num
Substitution2: "Single Substitution lookup 17 subtable" zero.num
Substitution2: "Single Substitution lookup 15 subtable" zero.num
EndChar

StartChar: one
Encoding: 49 49 134
Width: 560
GlyphClass: 1
Flags: W
LayerCount: 2
Fore
SplineSet
336 137 m 2,0,1
 333 120 333 120 343 111 c 128,-1,2
 353 102 353 102 376 98.5 c 128,-1,3
 399 95 399 95 431 95 c 2,4,-1
 461 95 l 1,5,-1
 439 0 l 1,6,-1
 -14 0 l 1,7,-1
 8 95 l 1,8,-1
 53 95 l 2,9,10
 85 95 85 95 108.5 98.5 c 128,-1,11
 132 102 132 102 147 111 c 128,-1,12
 162 120 162 120 166 137 c 2,13,-1
 293 634 l 1,14,-1
 312 628 l 1,15,16
 294 592 294 592 272 567 c 128,-1,17
 250 542 250 542 223 527 c 128,-1,18
 196 512 196 512 163.5 505.5 c 128,-1,19
 131 499 131 499 92 499 c 1,20,-1
 123 631 l 1,21,22
 168 631 168 631 201 636 c 128,-1,23
 234 641 234 641 259.5 651 c 128,-1,24
 285 661 285 661 305.5 675.5 c 128,-1,25
 326 690 326 690 344 710 c 1,26,-1
 482 710 l 1,27,-1
 336 137 l 2,0,1
EndSplineSet
Substitution2: "'pnum' Proportional Numbers in Latin lookup 55 subtable" one.midprop
Substitution2: "'lnum' Lining Figures in Latin lookup 54 subtable" one.lintab
Substitution2: "'onum' Oldstyle Figures in Latin lookup 53 subtable" one.oldtab
Substitution2: "'sinf' Scientific Inferiors in Latin lookup 52 subtable" one.sub
Substitution2: "'subs' Subscript in Latin lookup 51 subtable" one.sub
Substitution2: "'sups' Superscript in Latin lookup 50 subtable" one.sup
Substitution2: "'numr' Numerators in Latin lookup 49 subtable" one.num
Substitution2: "'dnom' Denominators in Latin lookup 48 subtable" one.den
Substitution2: "Single Substitution lookup 35 subtable" one.den
Substitution2: "Single Substitution lookup 33 subtable" one.num
Substitution2: "Single Substitution lookup 31 subtable" one.num
Substitution2: "Single Substitution lookup 29 subtable" one.num
Substitution2: "Single Substitution lookup 27 subtable" one.num
Substitution2: "Single Substitution lookup 25 subtable" one.num
Substitution2: "Single Substitution lookup 23 subtable" one.num
Substitution2: "Single Substitution lookup 21 subtable" one.num
Substitution2: "Single Substitution lookup 19 subtable" one.num
Substitution2: "Single Substitution lookup 17 subtable" one.num
Substitution2: "Single Substitution lookup 15 subtable" one.num
EndChar

StartChar: two
Encoding: 50 50 135
Width: 560
GlyphClass: 1
Flags: W
LayerCount: 2
Fore
SplineSet
374 552 m 0,0,1
 374 583 374 583 365.5 600 c 128,-1,2
 357 617 357 617 338 623.5 c 128,-1,3
 319 630 319 630 289 630 c 0,4,5
 267 630 267 630 246.5 626 c 128,-1,6
 226 622 226 622 209 615 c 128,-1,7
 192 608 192 608 180 597 c 1,8,9
 178 608 178 608 181 618.5 c 128,-1,10
 184 629 184 629 191 637.5 c 128,-1,11
 198 646 198 646 209 652.5 c 128,-1,12
 220 659 220 659 235 659 c 1,13,-1
 197 507 l 1,14,-1
 62 507 l 1,15,-1
 104 675 l 1,16,17
 123 687 123 687 153 701 c 128,-1,18
 183 715 183 715 223.5 725 c 128,-1,19
 264 735 264 735 312 735 c 0,20,21
 368 735 368 735 411 725 c 128,-1,22
 454 715 454 715 483 694.5 c 128,-1,23
 512 674 512 674 526.5 641 c 128,-1,24
 541 608 541 608 541 562 c 0,25,26
 541 499 541 499 515.5 447.5 c 128,-1,27
 490 396 490 396 443 351.5 c 128,-1,28
 396 307 396 307 331 265 c 128,-1,29
 266 223 266 223 187.5 180.5 c 128,-1,30
 109 138 109 138 21 90 c 1,31,-1
 15 121 l 1,32,-1
 255 121 l 2,33,34
 295 121 295 121 318.5 124 c 128,-1,35
 342 127 342 127 355 135 c 128,-1,36
 368 143 368 143 375 161 c 2,37,-1
 403 234 l 1,38,-1
 501 234 l 1,39,-1
 447 0 l 1,40,-1
 -50 0 l 1,41,-1
 -9 166 l 1,42,43
 73 215 73 215 136 255 c 128,-1,44
 199 295 199 295 244 330.5 c 128,-1,45
 289 366 289 366 318 400.5 c 128,-1,46
 347 435 347 435 360.5 471.5 c 128,-1,47
 374 508 374 508 374 552 c 0,0,1
EndSplineSet
Substitution2: "'pnum' Proportional Numbers in Latin lookup 55 subtable" two.midprop
Substitution2: "'lnum' Lining Figures in Latin lookup 54 subtable" two.lintab
Substitution2: "'onum' Oldstyle Figures in Latin lookup 53 subtable" two.oldtab
Substitution2: "'sinf' Scientific Inferiors in Latin lookup 52 subtable" two.sub
Substitution2: "'subs' Subscript in Latin lookup 51 subtable" two.sub
Substitution2: "'sups' Superscript in Latin lookup 50 subtable" two.sup
Substitution2: "'numr' Numerators in Latin lookup 49 subtable" two.num
Substitution2: "'dnom' Denominators in Latin lookup 48 subtable" two.den
Substitution2: "Single Substitution lookup 35 subtable" two.den
Substitution2: "Single Substitution lookup 33 subtable" two.num
Substitution2: "Single Substitution lookup 31 subtable" two.num
Substitution2: "Single Substitution lookup 29 subtable" two.num
Substitution2: "Single Substitution lookup 27 subtable" two.num
Substitution2: "Single Substitution lookup 25 subtable" two.num
Substitution2: "Single Substitution lookup 23 subtable" two.num
Substitution2: "Single Substitution lookup 21 subtable" two.num
Substitution2: "Single Substitution lookup 19 subtable" two.num
Substitution2: "Single Substitution lookup 17 subtable" two.num
Substitution2: "Single Substitution lookup 15 subtable" two.num
EndChar

StartChar: three
Encoding: 51 51 136
Width: 560
GlyphClass: 1
Flags: W
LayerCount: 2
Fore
SplineSet
212 -10 m 0,0,1
 135 -10 135 -10 86.5 13.5 c 128,-1,2
 38 37 38 37 11.5 77.5 c 128,-1,3
 -15 118 -15 118 -29 168 c 1,4,-1
 78 211 l 1,5,6
 92 180 92 180 108 153.5 c 128,-1,7
 124 127 124 127 149.5 111 c 128,-1,8
 175 95 175 95 217 95 c 0,9,10
 257 95 257 95 281.5 110.5 c 128,-1,11
 306 126 306 126 317 153.5 c 128,-1,12
 328 181 328 181 328 216 c 0,13,14
 328 249 328 249 317 271.5 c 128,-1,15
 306 294 306 294 282 306.5 c 128,-1,16
 258 319 258 319 219 319 c 2,17,-1
 134 319 l 1,18,-1
 159 427 l 1,19,-1
 251 427 l 2,20,21
 302 427 302 427 331 445 c 128,-1,22
 360 463 360 463 373 492.5 c 128,-1,23
 386 522 386 522 386 555 c 0,24,25
 386 584 386 584 377 601 c 128,-1,26
 368 618 368 618 348.5 626 c 128,-1,27
 329 634 329 634 297 634 c 0,28,29
 275 634 275 634 256.5 630.5 c 128,-1,30
 238 627 238 627 222.5 621.5 c 128,-1,31
 207 616 207 616 195 609 c 1,32,33
 197 617 197 617 201.5 627.5 c 128,-1,34
 206 638 206 638 213 648 c 128,-1,35
 220 658 220 658 229.5 664 c 128,-1,36
 239 670 239 670 251 671 c 1,37,-1
 217 526 l 1,38,-1
 91 526 l 1,39,-1
 131 695 l 1,40,41
 150 703 150 703 178 712.5 c 128,-1,42
 206 722 206 722 241.5 728.5 c 128,-1,43
 277 735 277 735 321 735 c 0,44,45
 393 735 393 735 442 716.5 c 128,-1,46
 491 698 491 698 516 662.5 c 128,-1,47
 541 627 541 627 541 573 c 0,48,49
 541 509 541 509 511 465 c 128,-1,50
 481 421 481 421 424.5 398.5 c 128,-1,51
 368 376 368 376 287 374 c 1,52,-1
 319 395 l 1,53,-1
 308 350 l 1,54,-1
 283 373 l 1,55,56
 354 368 354 368 399 347 c 128,-1,57
 444 326 444 326 466 291 c 128,-1,58
 488 256 488 256 488 207 c 0,59,60
 488 139 488 139 456 90 c 128,-1,61
 424 41 424 41 362.5 15.5 c 128,-1,62
 301 -10 301 -10 212 -10 c 0,0,1
EndSplineSet
Substitution2: "'pnum' Proportional Numbers in Latin lookup 55 subtable" three.midprop
Substitution2: "'lnum' Lining Figures in Latin lookup 54 subtable" three.lintab
Substitution2: "'onum' Oldstyle Figures in Latin lookup 53 subtable" three.oldtab
Substitution2: "'sinf' Scientific Inferiors in Latin lookup 52 subtable" three.sub
Substitution2: "'subs' Subscript in Latin lookup 51 subtable" three.sub
Substitution2: "'sups' Superscript in Latin lookup 50 subtable" three.sup
Substitution2: "'numr' Numerators in Latin lookup 49 subtable" three.num
Substitution2: "'dnom' Denominators in Latin lookup 48 subtable" three.den
Substitution2: "Single Substitution lookup 35 subtable" three.den
Substitution2: "Single Substitution lookup 33 subtable" three.num
Substitution2: "Single Substitution lookup 31 subtable" three.num
Substitution2: "Single Substitution lookup 29 subtable" three.num
Substitution2: "Single Substitution lookup 27 subtable" three.num
Substitution2: "Single Substitution lookup 25 subtable" three.num
Substitution2: "Single Substitution lookup 23 subtable" three.num
Substitution2: "Single Substitution lookup 21 subtable" three.num
Substitution2: "Single Substitution lookup 19 subtable" three.num
Substitution2: "Single Substitution lookup 17 subtable" three.num
Substitution2: "Single Substitution lookup 15 subtable" three.num
EndChar

StartChar: four
Encoding: 52 52 137
Width: 560
GlyphClass: 1
Flags: W
LayerCount: 2
Fore
SplineSet
-13 201 m 1,0,-1
 20 332 l 1,1,-1
 334 710 l 1,2,-1
 409 710 l 1,3,-1
 417 667 l 1,4,-1
 79 261 l 1,5,-1
 70 318 l 1,6,-1
 535 318 l 1,7,-1
 506 201 l 1,8,-1
 -13 201 l 1,0,-1
400 143 m 2,9,10
 394 121 394 121 411 114 c 128,-1,11
 428 107 428 107 455 107 c 2,12,-1
 471 107 l 1,13,-1
 446 0 l 1,14,-1
 129 0 l 1,15,-1
 154 107 l 1,16,-1
 170 107 l 2,17,18
 189 107 189 107 203.5 110 c 128,-1,19
 218 113 218 113 228.5 121 c 128,-1,20
 239 129 239 129 242 143 c 2,21,-1
 381 690 l 1,22,-1
 385 710 l 1,23,-1
 543 710 l 1,24,-1
 400 143 l 2,9,10
EndSplineSet
Substitution2: "'pnum' Proportional Numbers in Latin lookup 55 subtable" four.midprop
Substitution2: "'lnum' Lining Figures in Latin lookup 54 subtable" four.lintab
Substitution2: "'onum' Oldstyle Figures in Latin lookup 53 subtable" four.oldtab
Substitution2: "'sinf' Scientific Inferiors in Latin lookup 52 subtable" four.sub
Substitution2: "'subs' Subscript in Latin lookup 51 subtable" four.sub
Substitution2: "'sups' Superscript in Latin lookup 50 subtable" four.sup
Substitution2: "'numr' Numerators in Latin lookup 49 subtable" four.num
Substitution2: "'dnom' Denominators in Latin lookup 48 subtable" four.den
Substitution2: "Single Substitution lookup 35 subtable" four.den
Substitution2: "Single Substitution lookup 33 subtable" four.num
Substitution2: "Single Substitution lookup 31 subtable" four.num
Substitution2: "Single Substitution lookup 29 subtable" four.num
Substitution2: "Single Substitution lookup 27 subtable" four.num
Substitution2: "Single Substitution lookup 25 subtable" four.num
Substitution2: "Single Substitution lookup 23 subtable" four.num
Substitution2: "Single Substitution lookup 21 subtable" four.num
Substitution2: "Single Substitution lookup 19 subtable" four.num
Substitution2: "Single Substitution lookup 17 subtable" four.num
Substitution2: "Single Substitution lookup 15 subtable" four.num
EndChar

StartChar: five
Encoding: 53 53 138
Width: 560
GlyphClass: 1
Flags: W
LayerCount: 2
Fore
SplineSet
206 -11 m 0,0,1
 136 -11 136 -11 90 10.5 c 128,-1,2
 44 32 44 32 18.5 70 c 128,-1,3
 -7 108 -7 108 -19 158 c 1,4,-1
 94 194 l 1,5,6
 100 175 100 175 108.5 157.5 c 128,-1,7
 117 140 117 140 130 126.5 c 128,-1,8
 143 113 143 113 163 105.5 c 128,-1,9
 183 98 183 98 211 98 c 0,10,11
 247 98 247 98 270.5 114.5 c 128,-1,12
 294 131 294 131 307.5 159.5 c 128,-1,13
 321 188 321 188 326.5 222 c 128,-1,14
 332 256 332 256 332 290 c 0,15,16
 332 317 332 317 325 333.5 c 128,-1,17
 318 350 318 350 304 358.5 c 128,-1,18
 290 367 290 367 267 367 c 0,19,20
 243 367 243 367 222.5 359.5 c 128,-1,21
 202 352 202 352 185 338 c 128,-1,22
 168 324 168 324 152 302 c 1,23,-1
 63 302 l 1,24,-1
 165 710 l 1,25,-1
 547 710 l 1,26,-1
 496 582 l 1,27,-1
 195 582 l 1,28,-1
 268 690 l 1,29,-1
 186 365 l 1,30,-1
 138 353 l 1,31,32
 159 391 159 391 183.5 418.5 c 128,-1,33
 208 446 208 446 240.5 460.5 c 128,-1,34
 273 475 273 475 319 475 c 0,35,36
 375 475 375 475 414.5 453.5 c 128,-1,37
 454 432 454 432 475 391 c 128,-1,38
 496 350 496 350 496 290 c 0,39,40
 496 225 496 225 476.5 170 c 128,-1,41
 457 115 457 115 419.5 74.5 c 128,-1,42
 382 34 382 34 328.5 11.5 c 128,-1,43
 275 -11 275 -11 206 -11 c 0,0,1
EndSplineSet
Substitution2: "'pnum' Proportional Numbers in Latin lookup 55 subtable" five.midprop
Substitution2: "'lnum' Lining Figures in Latin lookup 54 subtable" five.lintab
Substitution2: "'onum' Oldstyle Figures in Latin lookup 53 subtable" five.oldtab
Substitution2: "'sinf' Scientific Inferiors in Latin lookup 52 subtable" five.sub
Substitution2: "'subs' Subscript in Latin lookup 51 subtable" five.sub
Substitution2: "'sups' Superscript in Latin lookup 50 subtable" five.sup
Substitution2: "'numr' Numerators in Latin lookup 49 subtable" five.num
Substitution2: "'dnom' Denominators in Latin lookup 48 subtable" five.den
Substitution2: "Single Substitution lookup 35 subtable" five.den
Substitution2: "Single Substitution lookup 33 subtable" five.num
Substitution2: "Single Substitution lookup 31 subtable" five.num
Substitution2: "Single Substitution lookup 29 subtable" five.num
Substitution2: "Single Substitution lookup 27 subtable" five.num
Substitution2: "Single Substitution lookup 25 subtable" five.num
Substitution2: "Single Substitution lookup 23 subtable" five.num
Substitution2: "Single Substitution lookup 21 subtable" five.num
Substitution2: "Single Substitution lookup 19 subtable" five.num
Substitution2: "Single Substitution lookup 17 subtable" five.num
Substitution2: "Single Substitution lookup 15 subtable" five.num
EndChar

StartChar: six
Encoding: 54 54 139
Width: 560
GlyphClass: 1
Flags: W
LayerCount: 2
Fore
SplineSet
244 -10 m 0,0,1
 189 -10 189 -10 147 4.5 c 128,-1,2
 105 19 105 19 76.5 47.5 c 128,-1,3
 48 76 48 76 33.5 117 c 128,-1,4
 19 158 19 158 19 210 c 0,5,6
 19 280 19 280 36 353.5 c 128,-1,7
 53 427 53 427 92 496 c 128,-1,8
 131 565 131 565 194.5 620.5 c 128,-1,9
 258 676 258 676 351.5 709.5 c 128,-1,10
 445 743 445 743 571 746 c 1,11,-1
 561 636 l 1,12,13
 495 633 495 633 442 620 c 128,-1,14
 389 607 389 607 349 583 c 128,-1,15
 309 559 309 559 278.5 524 c 128,-1,16
 248 489 248 489 227 442 c 128,-1,17
 206 395 206 395 191 335 c 0,18,19
 181 294 181 294 175.5 264 c 128,-1,20
 170 234 170 234 167.5 211.5 c 128,-1,21
 165 189 165 189 165 168 c 0,22,23
 165 142 165 142 174 125 c 128,-1,24
 183 108 183 108 199.5 100 c 128,-1,25
 216 92 216 92 240 92 c 0,26,27
 267 92 267 92 285 102.5 c 128,-1,28
 303 113 303 113 316.5 139.5 c 128,-1,29
 330 166 330 166 343 214 c 0,30,31
 348 230 348 230 350.5 243.5 c 128,-1,32
 353 257 353 257 355 268.5 c 128,-1,33
 357 280 357 280 358 290 c 128,-1,34
 359 300 359 300 359 308 c 0,35,36
 359 331 359 331 350.5 344 c 128,-1,37
 342 357 342 357 328.5 363 c 128,-1,38
 315 369 315 369 299 369 c 0,39,40
 277 369 277 369 256.5 361.5 c 128,-1,41
 236 354 236 354 214.5 332.5 c 128,-1,42
 193 311 193 311 164 267 c 1,43,-1
 161 334 l 1,44,45
 190 376 190 376 220 407 c 128,-1,46
 250 438 250 438 286 454.5 c 128,-1,47
 322 471 322 471 370 471 c 0,48,49
 417 471 417 471 449.5 452.5 c 128,-1,50
 482 434 482 434 499 399 c 128,-1,51
 516 364 516 364 516 316 c 0,52,53
 516 255 516 255 501 197 c 128,-1,54
 486 139 486 139 453.5 92 c 128,-1,55
 421 45 421 45 369.5 17.5 c 128,-1,56
 318 -10 318 -10 244 -10 c 0,0,1
EndSplineSet
Substitution2: "'pnum' Proportional Numbers in Latin lookup 55 subtable" six.midprop
Substitution2: "'lnum' Lining Figures in Latin lookup 54 subtable" six.lintab
Substitution2: "'onum' Oldstyle Figures in Latin lookup 53 subtable" six.oldtab
Substitution2: "'sinf' Scientific Inferiors in Latin lookup 52 subtable" six.sub
Substitution2: "'subs' Subscript in Latin lookup 51 subtable" six.sub
Substitution2: "'sups' Superscript in Latin lookup 50 subtable" six.sup
Substitution2: "'numr' Numerators in Latin lookup 49 subtable" six.num
Substitution2: "'dnom' Denominators in Latin lookup 48 subtable" six.den
Substitution2: "Single Substitution lookup 35 subtable" six.den
Substitution2: "Single Substitution lookup 33 subtable" six.num
Substitution2: "Single Substitution lookup 31 subtable" six.num
Substitution2: "Single Substitution lookup 29 subtable" six.num
Substitution2: "Single Substitution lookup 27 subtable" six.num
Substitution2: "Single Substitution lookup 25 subtable" six.num
Substitution2: "Single Substitution lookup 23 subtable" six.num
Substitution2: "Single Substitution lookup 21 subtable" six.num
Substitution2: "Single Substitution lookup 19 subtable" six.num
Substitution2: "Single Substitution lookup 17 subtable" six.num
Substitution2: "Single Substitution lookup 15 subtable" six.num
EndChar

StartChar: seven
Encoding: 55 55 140
Width: 560
GlyphClass: 1
Flags: W
LayerCount: 2
Fore
SplineSet
294 576 m 2,0,-1
 519 576 l 1,1,-1
 492 601 l 1,2,3
 458 581 458 581 413.5 543.5 c 128,-1,4
 369 506 369 506 320 452 c 128,-1,5
 271 398 271 398 223 329 c 128,-1,6
 175 260 175 260 134.5 177.5 c 128,-1,7
 94 95 94 95 67 0 c 1,8,-1
 233 0 l 1,9,10
 265 122 265 122 298 208 c 128,-1,11
 331 294 331 294 370 357 c 128,-1,12
 409 420 409 420 456.5 470.5 c 128,-1,13
 504 521 504 521 563 573 c 1,14,-1
 597 710 l 1,15,-1
 121 710 l 1,16,-1
 55 445 l 1,17,-1
 149 445 l 1,18,-1
 181 533 l 2,19,20
 188 551 188 551 200 560 c 128,-1,21
 212 569 212 569 234.5 572.5 c 128,-1,22
 257 576 257 576 294 576 c 2,0,-1
EndSplineSet
Substitution2: "'pnum' Proportional Numbers in Latin lookup 55 subtable" seven.midprop
Substitution2: "'lnum' Lining Figures in Latin lookup 54 subtable" seven.lintab
Substitution2: "'onum' Oldstyle Figures in Latin lookup 53 subtable" seven.oldtab
Substitution2: "'sinf' Scientific Inferiors in Latin lookup 52 subtable" seven.sub
Substitution2: "'subs' Subscript in Latin lookup 51 subtable" seven.sub
Substitution2: "'sups' Superscript in Latin lookup 50 subtable" seven.sup
Substitution2: "'numr' Numerators in Latin lookup 49 subtable" seven.num
Substitution2: "'dnom' Denominators in Latin lookup 48 subtable" seven.den
Substitution2: "Single Substitution lookup 35 subtable" seven.den
Substitution2: "Single Substitution lookup 33 subtable" seven.num
Substitution2: "Single Substitution lookup 31 subtable" seven.num
Substitution2: "Single Substitution lookup 29 subtable" seven.num
Substitution2: "Single Substitution lookup 27 subtable" seven.num
Substitution2: "Single Substitution lookup 25 subtable" seven.num
Substitution2: "Single Substitution lookup 23 subtable" seven.num
Substitution2: "Single Substitution lookup 21 subtable" seven.num
Substitution2: "Single Substitution lookup 19 subtable" seven.num
Substitution2: "Single Substitution lookup 17 subtable" seven.num
Substitution2: "Single Substitution lookup 15 subtable" seven.num
EndChar

StartChar: eight
Encoding: 56 56 141
Width: 560
GlyphClass: 1
Flags: W
LayerCount: 2
Fore
SplineSet
239 86 m 0,0,1
 266 86 266 86 284.5 97 c 128,-1,2
 303 108 303 108 316.5 132.5 c 128,-1,3
 330 157 330 157 339 196 c 0,4,5
 345 218 345 218 347.5 237.5 c 128,-1,6
 350 257 350 257 350 270 c 0,7,8
 350 293 350 293 340.5 307.5 c 128,-1,9
 331 322 331 322 313 329 c 128,-1,10
 295 336 295 336 268 336 c 256,11,12
 241 336 241 336 221 326.5 c 128,-1,13
 201 317 201 317 187.5 294.5 c 128,-1,14
 174 272 174 272 163 231 c 0,15,16
 157 210 157 210 155 191.5 c 128,-1,17
 153 173 153 173 153 160 c 0,18,19
 153 135 153 135 162.5 118.5 c 128,-1,20
 172 102 172 102 191 94 c 128,-1,21
 210 86 210 86 239 86 c 0,0,1
324 430 m 0,22,23
 347 430 347 430 363 436.5 c 128,-1,24
 379 443 379 443 390 460.5 c 128,-1,25
 401 478 401 478 410 510 c 0,26,27
 415 528 415 528 417 544.5 c 128,-1,28
 419 561 419 561 419 572 c 0,29,30
 419 593 419 593 411 608.5 c 128,-1,31
 403 624 403 624 386 632 c 128,-1,32
 369 640 369 640 342 640 c 0,33,34
 316 640 316 640 298.5 631 c 128,-1,35
 281 622 281 622 270 601.5 c 128,-1,36
 259 581 259 581 250 548 c 0,37,38
 246 532 246 532 244 519.5 c 128,-1,39
 242 507 242 507 242 499 c 0,40,41
 242 475 242 475 252 460 c 128,-1,42
 262 445 262 445 280 437.5 c 128,-1,43
 298 430 298 430 324 430 c 0,22,23
248 -10 m 0,44,45
 169 -10 169 -10 112 13 c 128,-1,46
 55 36 55 36 25 79 c 128,-1,47
 -5 122 -5 122 -5 184 c 256,48,49
 -5 246 -5 246 23 291.5 c 128,-1,50
 51 337 51 337 106.5 362.5 c 128,-1,51
 162 388 162 388 245 390 c 1,52,-1
 204 372 l 1,53,-1
 215 410 l 1,54,-1
 245 385 l 1,55,56
 200 398 200 398 168 418.5 c 128,-1,57
 136 439 136 439 119.5 469.5 c 128,-1,58
 103 500 103 500 103 540 c 256,59,60
 103 580 103 580 117 615.5 c 128,-1,61
 131 651 131 651 160 677.5 c 128,-1,62
 189 704 189 704 233.5 719.5 c 128,-1,63
 278 735 278 735 338 735 c 0,64,65
 411 735 411 735 460.5 714.5 c 128,-1,66
 510 694 510 694 535.5 657.5 c 128,-1,67
 561 621 561 621 561 570 c 0,68,69
 561 506 561 506 534 464 c 128,-1,70
 507 422 507 422 459 401.5 c 128,-1,71
 411 381 411 381 348 379 c 1,72,-1
 387 395 l 1,73,-1
 377 358 l 1,74,-1
 344 381 l 1,75,76
 393 370 393 370 429.5 348 c 128,-1,77
 466 326 466 326 486 291.5 c 128,-1,78
 506 257 506 257 506 210 c 0,79,80
 506 146 506 146 477 96 c 128,-1,81
 448 46 448 46 391 18 c 128,-1,82
 334 -10 334 -10 248 -10 c 0,44,45
EndSplineSet
Substitution2: "'pnum' Proportional Numbers in Latin lookup 55 subtable" eight.midprop
Substitution2: "'lnum' Lining Figures in Latin lookup 54 subtable" eight.lintab
Substitution2: "'onum' Oldstyle Figures in Latin lookup 53 subtable" eight.oldtab
Substitution2: "'sinf' Scientific Inferiors in Latin lookup 52 subtable" eight.sub
Substitution2: "'subs' Subscript in Latin lookup 51 subtable" eight.sub
Substitution2: "'sups' Superscript in Latin lookup 50 subtable" eight.sup
Substitution2: "'numr' Numerators in Latin lookup 49 subtable" eight.num
Substitution2: "'dnom' Denominators in Latin lookup 48 subtable" eight.den
Substitution2: "Single Substitution lookup 35 subtable" eight.den
Substitution2: "Single Substitution lookup 33 subtable" eight.num
Substitution2: "Single Substitution lookup 31 subtable" eight.num
Substitution2: "Single Substitution lookup 29 subtable" eight.num
Substitution2: "Single Substitution lookup 27 subtable" eight.num
Substitution2: "Single Substitution lookup 25 subtable" eight.num
Substitution2: "Single Substitution lookup 23 subtable" eight.num
Substitution2: "Single Substitution lookup 21 subtable" eight.num
Substitution2: "Single Substitution lookup 19 subtable" eight.num
Substitution2: "Single Substitution lookup 17 subtable" eight.num
Substitution2: "Single Substitution lookup 15 subtable" eight.num
EndChar

StartChar: nine
Encoding: 57 57 142
Width: 560
GlyphClass: 1
Flags: W
LayerCount: 2
Fore
SplineSet
324 735 m 0,0,1
 249 735 249 735 195.5 707.5 c 128,-1,2
 142 680 142 680 109 633.5 c 128,-1,3
 76 587 76 587 60 530.5 c 128,-1,4
 44 474 44 474 44 415 c 0,5,6
 44 369 44 369 61 335 c 128,-1,7
 78 301 78 301 110 282 c 128,-1,8
 142 263 142 263 188 263 c 0,9,10
 238 263 238 263 274.5 282 c 128,-1,11
 311 301 311 301 341.5 333 c 128,-1,12
 372 365 372 365 401 405 c 1,13,-1
 396 460 l 1,14,15
 368 423 368 423 345 402 c 128,-1,16
 322 381 322 381 301.5 373 c 128,-1,17
 281 365 281 365 258 365 c 0,18,19
 241 365 241 365 228.5 371.5 c 128,-1,20
 216 378 216 378 209 391 c 128,-1,21
 202 404 202 404 202 424 c 0,22,23
 202 437 202 437 203.5 450.5 c 128,-1,24
 205 464 205 464 209 481 c 128,-1,25
 213 498 213 498 218 519 c 0,26,27
 226 550 226 550 236 572 c 128,-1,28
 246 594 246 594 258.5 607.5 c 128,-1,29
 271 621 271 621 286 627 c 128,-1,30
 301 633 301 633 319 633 c 0,31,32
 345 633 345 633 360.5 625 c 128,-1,33
 376 617 376 617 384 599 c 128,-1,34
 392 581 392 581 392 551 c 0,35,36
 392 530 392 530 389.5 501 c 128,-1,37
 387 472 387 472 380.5 436 c 128,-1,38
 374 400 374 400 362 355 c 0,39,40
 346 295 346 295 323.5 252.5 c 128,-1,41
 301 210 301 210 271 180.5 c 128,-1,42
 241 151 241 151 202 133 c 128,-1,43
 163 115 163 115 112.5 105.5 c 128,-1,44
 62 96 62 96 -1 93 c 1,45,-1
 -13 -17 l 1,46,47
 112 -15 112 -15 205 15.5 c 128,-1,48
 298 46 298 46 362 97.5 c 128,-1,49
 426 149 426 149 465 216.5 c 128,-1,50
 504 284 504 284 521.5 361 c 128,-1,51
 539 438 539 438 539 518 c 0,52,53
 539 572 539 572 526 612.5 c 128,-1,54
 513 653 513 653 486.5 680 c 128,-1,55
 460 707 460 707 419 721 c 128,-1,56
 378 735 378 735 324 735 c 0,0,1
EndSplineSet
Substitution2: "'pnum' Proportional Numbers in Latin lookup 55 subtable" nine.midprop
Substitution2: "'lnum' Lining Figures in Latin lookup 54 subtable" nine.lintab
Substitution2: "'onum' Oldstyle Figures in Latin lookup 53 subtable" nine.oldtab
Substitution2: "'sinf' Scientific Inferiors in Latin lookup 52 subtable" nine.sub
Substitution2: "'subs' Subscript in Latin lookup 51 subtable" nine.sub
Substitution2: "'sups' Superscript in Latin lookup 50 subtable" nine.sup
Substitution2: "'numr' Numerators in Latin lookup 49 subtable" nine.num
Substitution2: "'dnom' Denominators in Latin lookup 48 subtable" nine.den
Substitution2: "Single Substitution lookup 35 subtable" nine.den
Substitution2: "Single Substitution lookup 33 subtable" nine.num
Substitution2: "Single Substitution lookup 31 subtable" nine.num
Substitution2: "Single Substitution lookup 29 subtable" nine.num
Substitution2: "Single Substitution lookup 27 subtable" nine.num
Substitution2: "Single Substitution lookup 25 subtable" nine.num
Substitution2: "Single Substitution lookup 23 subtable" nine.num
Substitution2: "Single Substitution lookup 21 subtable" nine.num
Substitution2: "Single Substitution lookup 19 subtable" nine.num
Substitution2: "Single Substitution lookup 17 subtable" nine.num
Substitution2: "Single Substitution lookup 15 subtable" nine.num
EndChar

StartChar: underscore
Encoding: 95 95 146
Width: 549
GlyphClass: 1
Flags: W
LayerCount: 2
Fore
SplineSet
-1 -89 m 1,0,-1
 570 -89 l 1,1,-1
 553 -192 l 1,2,-1
 -18 -192 l 1,3,-1
 -1 -89 l 1,0,-1
EndSplineSet
EndChar

StartChar: hyphen
Encoding: 45 45 147
Width: 519
GlyphClass: 1
Flags: W
LayerCount: 2
Fore
SplineSet
97 364 m 1,0,-1
 464 364 l 1,1,-1
 429 215 l 1,2,-1
 62 215 l 1,3,-1
 97 364 l 1,0,-1
EndSplineSet
EndChar

StartChar: endash
Encoding: 150 8211 148
Width: 677
GlyphClass: 1
Flags: W
LayerCount: 2
Fore
SplineSet
94 376 m 1,0,-1
 620 376 l 1,1,-1
 591 254 l 1,2,-1
 65 254 l 1,3,-1
 94 376 l 1,0,-1
EndSplineSet
EndChar

StartChar: emdash
Encoding: 151 8212 149
Width: 1030
GlyphClass: 1
Flags: W
LayerCount: 2
Fore
SplineSet
93 379 m 1,0,-1
 971 379 l 1,1,-1
 943 257 l 1,2,-1
 65 257 l 1,3,-1
 93 379 l 1,0,-1
EndSplineSet
EndChar

StartChar: parenleft
Encoding: 40 40 150
Width: 442
GlyphClass: 1
Flags: W
LayerCount: 2
Fore
SplineSet
211 199 m 0,0,1
 211 299 211 299 238 381.5 c 128,-1,2
 265 464 265 464 312 531 c 128,-1,3
 359 598 359 598 419.5 651.5 c 128,-1,4
 480 705 480 705 548 747 c 1,5,-1
 549 750 l 1,6,-1
 401 750 l 1,7,8
 340 721 340 721 279 672 c 128,-1,9
 218 623 218 623 167.5 555.5 c 128,-1,10
 117 488 117 488 87 402.5 c 128,-1,11
 57 317 57 317 57 214 c 0,12,13
 57 140 57 140 76 76 c 128,-1,14
 95 12 95 12 126.5 -39.5 c 128,-1,15
 158 -91 158 -91 195 -130 c 1,16,-1
 331 -130 l 1,17,-1
 332 -127 l 1,18,19
 302 -93 302 -93 274.5 -47 c 128,-1,20
 247 -1 247 -1 229 59.5 c 128,-1,21
 211 120 211 120 211 199 c 0,0,1
EndSplineSet
EndChar

StartChar: parenright
Encoding: 41 41 151
Width: 435
GlyphClass: 1
Flags: W
LayerCount: 2
Fore
SplineSet
226 421 m 0,0,1
 226 321 226 321 199.5 238.5 c 128,-1,2
 173 156 173 156 126 89 c 128,-1,3
 79 22 79 22 18.5 -31.5 c 128,-1,4
 -42 -85 -42 -85 -110 -127 c 1,5,-1
 -111 -130 l 1,6,-1
 36 -130 l 1,7,8
 98 -101 98 -101 159 -52 c 128,-1,9
 220 -3 220 -3 270 64.5 c 128,-1,10
 320 132 320 132 350.5 218 c 128,-1,11
 381 304 381 304 381 406 c 0,12,13
 381 481 381 481 362 544.5 c 128,-1,14
 343 608 343 608 311.5 660 c 128,-1,15
 280 712 280 712 242 750 c 1,16,-1
 107 750 l 1,17,-1
 106 747 l 1,18,19
 135 713 135 713 163 667 c 128,-1,20
 191 621 191 621 208.5 560.5 c 128,-1,21
 226 500 226 500 226 421 c 0,0,1
EndSplineSet
EndChar

StartChar: bracketleft
Encoding: 91 91 152
Width: 401
GlyphClass: 1
Flags: W
LayerCount: 2
Fore
SplineSet
298 -24 m 1,0,-1
 273 -130 l 1,1,-1
 -34 -130 l 1,2,-1
 186 750 l 1,3,-1
 485 750 l 1,4,-1
 461 644 l 1,5,-1
 304 644 l 1,6,-1
 133 -24 l 1,7,-1
 298 -24 l 1,0,-1
EndSplineSet
EndChar

StartChar: bracketright
Encoding: 93 93 153
Width: 401
GlyphClass: 1
Flags: W
LayerCount: 2
Fore
SplineSet
109 644 m 1,0,-1
 134 750 l 1,1,-1
 441 750 l 1,2,-1
 221 -130 l 1,3,-1
 -78 -130 l 1,4,-1
 -54 -24 l 1,5,-1
 103 -24 l 1,6,-1
 274 644 l 1,7,-1
 109 644 l 1,0,-1
EndSplineSet
EndChar

StartChar: braceleft
Encoding: 123 123 154
Width: 465
GlyphClass: 1
Flags: W
LayerCount: 2
Fore
SplineSet
369 207 m 0,0,1
 369 182 369 182 353 161.5 c 128,-1,2
 337 141 337 141 313.5 124 c 128,-1,3
 290 107 290 107 266.5 90 c 128,-1,4
 243 73 243 73 227.5 54.5 c 128,-1,5
 212 36 212 36 212 12 c 0,6,7
 212 -5 212 -5 221 -15.5 c 128,-1,8
 230 -26 230 -26 248.5 -30 c 128,-1,9
 267 -34 267 -34 293 -34 c 0,10,11
 313 -34 313 -34 332 -32.5 c 128,-1,12
 351 -31 351 -31 367 -28 c 1,13,-1
 334 -122 l 1,14,15
 319 -127 319 -127 287 -130 c 128,-1,16
 255 -133 255 -133 224 -133 c 0,17,18
 168 -133 168 -133 126.5 -121.5 c 128,-1,19
 85 -110 85 -110 62 -83 c 128,-1,20
 39 -56 39 -56 39 -11 c 0,21,22
 39 24 39 24 53 51.5 c 128,-1,23
 67 79 67 79 91 101.5 c 128,-1,24
 115 124 115 124 143.5 146 c 128,-1,25
 172 168 172 168 201.5 190.5 c 128,-1,26
 231 213 231 213 256 239 c 1,27,-1
 242 192 l 1,28,-1
 39 266 l 1,29,-1
 65 379 l 1,30,-1
 289 441 l 1,31,-1
 279 389 l 1,32,33
 267 419 267 419 250 445 c 128,-1,34
 233 471 233 471 215.5 497.5 c 128,-1,35
 198 524 198 524 186.5 551 c 128,-1,36
 175 578 175 578 175 608 c 0,37,38
 175 654 175 654 199 686 c 128,-1,39
 223 718 223 718 271.5 735 c 128,-1,40
 320 752 320 752 393 752 c 0,41,42
 424 752 424 752 454.5 749 c 128,-1,43
 485 746 485 746 511 739 c 1,44,-1
 504 646 l 1,45,46
 489 650 489 650 466.5 652 c 128,-1,47
 444 654 444 654 420 654 c 0,48,49
 392 654 392 654 374.5 647.5 c 128,-1,50
 357 641 357 641 348.5 628 c 128,-1,51
 340 615 340 615 340 594 c 0,52,53
 340 576 340 576 347 558.5 c 128,-1,54
 354 541 354 541 364 523.5 c 128,-1,55
 374 506 374 506 383.5 489 c 128,-1,56
 393 472 393 472 399.5 456 c 128,-1,57
 406 440 406 440 406 424 c 0,58,59
 406 404 406 404 396.5 388.5 c 128,-1,60
 387 373 387 373 362.5 361 c 128,-1,61
 338 349 338 349 292 340 c 128,-1,62
 246 331 246 331 174 324 c 1,63,-1
 170 309 l 1,64,65
 225 299 225 299 263 289 c 128,-1,66
 301 279 301 279 324.5 267.5 c 128,-1,67
 348 256 348 256 358.5 241 c 128,-1,68
 369 226 369 226 369 207 c 0,0,1
EndSplineSet
EndChar

StartChar: braceright
Encoding: 125 125 155
Width: 465
GlyphClass: 1
Flags: W
LayerCount: 2
Fore
SplineSet
112 411 m 0,0,1
 112 436 112 436 128 456.5 c 128,-1,2
 144 477 144 477 167.5 494 c 128,-1,3
 191 511 191 511 214.5 527.5 c 128,-1,4
 238 544 238 544 253.5 563 c 128,-1,5
 269 582 269 582 269 606 c 0,6,7
 269 624 269 624 260 634 c 128,-1,8
 251 644 251 644 232.5 648 c 128,-1,9
 214 652 214 652 188 652 c 0,10,11
 169 652 169 652 149 650.5 c 128,-1,12
 129 649 129 649 113 646 c 1,13,-1
 147 740 l 1,14,15
 162 745 162 745 194 748 c 128,-1,16
 226 751 226 751 257 751 c 0,17,18
 313 751 313 751 354.5 739.5 c 128,-1,19
 396 728 396 728 419 701 c 128,-1,20
 442 674 442 674 442 629 c 0,21,22
 442 594 442 594 428 566.5 c 128,-1,23
 414 539 414 539 390 516 c 128,-1,24
 366 493 366 493 337.5 471.5 c 128,-1,25
 309 450 309 450 279.5 427.5 c 128,-1,26
 250 405 250 405 225 378 c 1,27,-1
 238 426 l 1,28,-1
 442 352 l 1,29,-1
 416 239 l 1,30,-1
 192 177 l 1,31,-1
 202 229 l 1,32,33
 214 200 214 200 231 173.5 c 128,-1,34
 248 147 248 147 265.5 120.5 c 128,-1,35
 283 94 283 94 294.5 67 c 128,-1,36
 306 40 306 40 306 10 c 0,37,38
 306 -36 306 -36 281.5 -68 c 128,-1,39
 257 -100 257 -100 209 -117 c 128,-1,40
 161 -134 161 -134 88 -134 c 0,41,42
 57 -134 57 -134 26.5 -131 c 128,-1,43
 -4 -128 -4 -128 -30 -121 c 1,44,-1
 -23 -28 l 1,45,46
 -7 -31 -7 -31 15 -33.5 c 128,-1,47
 37 -36 37 -36 60 -36 c 0,48,49
 89 -36 89 -36 106.5 -29.5 c 128,-1,50
 124 -23 124 -23 132.5 -9.5 c 128,-1,51
 141 4 141 4 141 24 c 0,52,53
 141 41 141 41 134 59 c 128,-1,54
 127 77 127 77 117.5 94.5 c 128,-1,55
 108 112 108 112 98 129 c 128,-1,56
 88 146 88 146 81.5 162 c 128,-1,57
 75 178 75 178 75 194 c 0,58,59
 75 214 75 214 84.5 229.5 c 128,-1,60
 94 245 94 245 118.5 257 c 128,-1,61
 143 269 143 269 189 278 c 128,-1,62
 235 287 235 287 307 294 c 1,63,-1
 311 309 l 1,64,65
 256 319 256 319 218 329 c 128,-1,66
 180 339 180 339 156.5 350.5 c 128,-1,67
 133 362 133 362 122.5 377 c 128,-1,68
 112 392 112 392 112 411 c 0,0,1
EndSplineSet
EndChar

StartChar: numbersign
Encoding: 35 35 156
Width: 757
GlyphClass: 1
Flags: W
LayerCount: 2
Fore
SplineSet
95 0 m 1,0,-1
 376 780 l 1,1,-1
 486 780 l 1,2,-1
 205 0 l 1,3,-1
 95 0 l 1,0,-1
36 198 m 1,4,-1
 55 319 l 1,5,-1
 676 319 l 1,6,-1
 657 198 l 1,7,-1
 36 198 l 1,4,-1
134 487 m 1,8,-1
 155 608 l 1,9,-1
 776 608 l 1,10,-1
 755 487 l 1,11,-1
 134 487 l 1,8,-1
322 0 m 1,12,-1
 601 780 l 1,13,-1
 713 780 l 1,14,-1
 432 0 l 1,15,-1
 322 0 l 1,12,-1
EndSplineSet
EndChar

StartChar: percent
Encoding: 37 37 157
Width: 779
GlyphClass: 1
Flags: W
LayerCount: 2
Fore
SplineSet
292 616 m 256,0,1
 292 634 292 634 288.5 645 c 128,-1,2
 285 656 285 656 276.5 661 c 128,-1,3
 268 666 268 666 253 666 c 0,4,5
 235 666 235 666 221.5 654 c 128,-1,6
 208 642 208 642 197.5 622 c 128,-1,7
 187 602 187 602 180.5 578.5 c 128,-1,8
 174 555 174 555 170.5 532 c 128,-1,9
 167 509 167 509 167 490 c 0,10,11
 167 474 167 474 170 462.5 c 128,-1,12
 173 451 173 451 181.5 445.5 c 128,-1,13
 190 440 190 440 205 440 c 0,14,15
 221 440 221 440 235 452.5 c 128,-1,16
 249 465 249 465 259.5 484.5 c 128,-1,17
 270 504 270 504 277 527.5 c 128,-1,18
 284 551 284 551 288 574.5 c 128,-1,19
 292 598 292 598 292 616 c 256,0,1
61 494 m 0,20,21
 61 535 61 535 72.5 579.5 c 128,-1,22
 84 624 84 624 108 663 c 128,-1,23
 132 702 132 702 169.5 727 c 128,-1,24
 207 752 207 752 258 752 c 0,25,26
 303 752 303 752 334 735 c 128,-1,27
 365 718 365 718 381.5 686.5 c 128,-1,28
 398 655 398 655 398 612 c 0,29,30
 398 572 398 572 386.5 527.5 c 128,-1,31
 375 483 375 483 350.5 443.5 c 128,-1,32
 326 404 326 404 289 379.5 c 128,-1,33
 252 355 252 355 200 355 c 0,34,35
 155 355 155 355 124 372 c 128,-1,36
 93 389 93 389 77 420 c 128,-1,37
 61 451 61 451 61 494 c 0,20,21
628 239 m 256,38,39
 628 257 628 257 624.5 268 c 128,-1,40
 621 279 621 279 613 284.5 c 128,-1,41
 605 290 605 290 589 290 c 0,42,43
 572 290 572 290 558.5 277.5 c 128,-1,44
 545 265 545 265 534.5 245 c 128,-1,45
 524 225 524 225 517 201.5 c 128,-1,46
 510 178 510 178 506.5 155 c 128,-1,47
 503 132 503 132 503 114 c 0,48,49
 503 97 503 97 506.5 86 c 128,-1,50
 510 75 510 75 518 69.5 c 128,-1,51
 526 64 526 64 541 64 c 0,52,53
 558 64 558 64 572 76 c 128,-1,54
 586 88 586 88 596.5 108 c 128,-1,55
 607 128 607 128 614 151.5 c 128,-1,56
 621 175 621 175 624.5 198 c 128,-1,57
 628 221 628 221 628 239 c 256,38,39
397 117 m 0,58,59
 397 158 397 158 408.5 203 c 128,-1,60
 420 248 420 248 444 287 c 128,-1,61
 468 326 468 326 505.5 350.5 c 128,-1,62
 543 375 543 375 595 375 c 0,63,64
 639 375 639 375 670 358 c 128,-1,65
 701 341 701 341 717.5 310 c 128,-1,66
 734 279 734 279 734 236 c 0,67,68
 734 196 734 196 722.5 151 c 128,-1,69
 711 106 711 106 687 66.5 c 128,-1,70
 663 27 663 27 625.5 2.5 c 128,-1,71
 588 -22 588 -22 536 -22 c 0,72,73
 492 -22 492 -22 460.5 -5 c 128,-1,74
 429 12 429 12 413 43.5 c 128,-1,75
 397 75 397 75 397 117 c 0,58,59
662 710 m 1,76,-1
 770 710 l 1,77,-1
 113 0 l 1,78,-1
 4 0 l 1,79,-1
 662 710 l 1,76,-1
EndSplineSet
EndChar

StartChar: perthousand
Encoding: 137 8240 158
Width: 1150
GlyphClass: 1
Flags: W
LayerCount: 2
Fore
SplineSet
202 440 m 0,0,1
 187 440 187 440 179 445.5 c 128,-1,2
 171 451 171 451 167.5 462.5 c 128,-1,3
 164 474 164 474 164 490 c 0,4,5
 164 509 164 509 167.5 532 c 128,-1,6
 171 555 171 555 178 578.5 c 128,-1,7
 185 602 185 602 195 622 c 128,-1,8
 205 642 205 642 219 654 c 128,-1,9
 233 666 233 666 250 666 c 0,10,11
 266 666 266 666 274 661 c 128,-1,12
 282 656 282 656 285.5 645 c 128,-1,13
 289 634 289 634 289 616 c 256,14,15
 289 598 289 598 285.5 575 c 128,-1,16
 282 552 282 552 275 528.5 c 128,-1,17
 268 505 268 505 257.5 485 c 128,-1,18
 247 465 247 465 233 452.5 c 128,-1,19
 219 440 219 440 202 440 c 0,0,1
538 64 m 0,20,21
 556 64 556 64 569.5 76 c 128,-1,22
 583 88 583 88 593.5 108 c 128,-1,23
 604 128 604 128 611 151.5 c 128,-1,24
 618 175 618 175 621.5 198 c 128,-1,25
 625 221 625 221 625 239 c 256,26,27
 625 257 625 257 621.5 268 c 128,-1,28
 618 279 618 279 610 284.5 c 128,-1,29
 602 290 602 290 586 290 c 0,30,31
 569 290 569 290 555.5 277.5 c 128,-1,32
 542 265 542 265 531.5 245 c 128,-1,33
 521 225 521 225 514 201.5 c 128,-1,34
 507 178 507 178 503.5 155 c 128,-1,35
 500 132 500 132 500 114 c 0,36,37
 500 97 500 97 503.5 86 c 128,-1,38
 507 75 507 75 515 69.5 c 128,-1,39
 523 64 523 64 538 64 c 0,20,21
533 -22 m 0,40,41
 489 -22 489 -22 458 -5 c 128,-1,42
 427 12 427 12 410.5 43.5 c 128,-1,43
 394 75 394 75 394 117 c 0,44,45
 394 158 394 158 405.5 203 c 128,-1,46
 417 248 417 248 441 287 c 128,-1,47
 465 326 465 326 502.5 350.5 c 128,-1,48
 540 375 540 375 592 375 c 0,49,50
 636 375 636 375 667.5 358 c 128,-1,51
 699 341 699 341 715 310 c 128,-1,52
 731 279 731 279 731 236 c 0,53,54
 731 196 731 196 719.5 151 c 128,-1,55
 708 106 708 106 684 66.5 c 128,-1,56
 660 27 660 27 622.5 2.5 c 128,-1,57
 585 -22 585 -22 533 -22 c 0,40,41
197 355 m 0,58,59
 249 355 249 355 286.5 379.5 c 128,-1,60
 324 404 324 404 348 443.5 c 128,-1,61
 372 483 372 483 383.5 527.5 c 128,-1,62
 395 572 395 572 395 612 c 0,63,64
 395 655 395 655 378.5 686.5 c 128,-1,65
 362 718 362 718 331 735 c 128,-1,66
 300 752 300 752 256 752 c 0,67,68
 204 752 204 752 166.5 727 c 128,-1,69
 129 702 129 702 105 663 c 128,-1,70
 81 624 81 624 69.5 579.5 c 128,-1,71
 58 535 58 535 58 494 c 0,72,73
 58 451 58 451 74 420 c 128,-1,74
 90 389 90 389 121.5 372 c 128,-1,75
 153 355 153 355 197 355 c 0,58,59
915 64 m 0,76,77
 932 64 932 64 945.5 76 c 128,-1,78
 959 88 959 88 969.5 108 c 128,-1,79
 980 128 980 128 987 151.5 c 128,-1,80
 994 175 994 175 997.5 198 c 128,-1,81
 1001 221 1001 221 1001 239 c 256,82,83
 1001 257 1001 257 997.5 268 c 128,-1,84
 994 279 994 279 986 284.5 c 128,-1,85
 978 290 978 290 963 290 c 0,86,87
 946 290 946 290 932 277.5 c 128,-1,88
 918 265 918 265 907.5 245 c 128,-1,89
 897 225 897 225 890 201.5 c 128,-1,90
 883 178 883 178 880 155 c 128,-1,91
 877 132 877 132 877 114 c 0,92,93
 877 97 877 97 880 86 c 128,-1,94
 883 75 883 75 891.5 69.5 c 128,-1,95
 900 64 900 64 915 64 c 0,76,77
909 -22 m 0,96,97
 865 -22 865 -22 834 -5 c 128,-1,98
 803 12 803 12 787 43.5 c 128,-1,99
 771 75 771 75 771 117 c 0,100,101
 771 158 771 158 782.5 203 c 128,-1,102
 794 248 794 248 818 287 c 128,-1,103
 842 326 842 326 879.5 350.5 c 128,-1,104
 917 375 917 375 968 375 c 0,105,106
 1013 375 1013 375 1044 358 c 128,-1,107
 1075 341 1075 341 1091.5 310 c 128,-1,108
 1108 279 1108 279 1108 236 c 0,109,110
 1108 196 1108 196 1096 151 c 128,-1,111
 1084 106 1084 106 1060 66.5 c 128,-1,112
 1036 27 1036 27 999 2.5 c 128,-1,113
 962 -22 962 -22 909 -22 c 0,96,97
659 710 m 1,114,-1
 768 710 l 1,115,-1
 110 0 l 1,116,-1
 2 0 l 1,117,-1
 659 710 l 1,114,-1
EndSplineSet
EndChar

StartChar: quotesingle
Encoding: 39 39 159
Width: 273
GlyphClass: 1
Flags: W
LayerCount: 2
Fore
SplineSet
320 769 m 1,0,-1
 147 769 l 1,1,2
 138 732 138 732 134.5 699 c 128,-1,3
 131 666 131 666 128 631 c 128,-1,4
 125 596 125 596 119 554 c 128,-1,5
 113 512 113 512 99 456 c 1,6,-1
 212 456 l 1,7,8
 226 512 226 512 241 554 c 128,-1,9
 256 596 256 596 270.5 631 c 128,-1,10
 285 666 285 666 298 699.5 c 128,-1,11
 311 733 311 733 320 769 c 1,0,-1
EndSplineSet
EndChar

StartChar: quoteleft
Encoding: 145 8216 161
Width: 339
GlyphClass: 1
Flags: W
LayerCount: 2
Fore
SplineSet
84 549 m 0,0,1
 84 584 84 584 92 618 c 128,-1,2
 100 652 100 652 117.5 681.5 c 128,-1,3
 135 711 135 711 164 735 c 128,-1,4
 193 759 193 759 233 775.5 c 128,-1,5
 273 792 273 792 327 798 c 1,6,-1
 374 712 l 1,7,8
 311 703 311 703 265 687 c 128,-1,9
 219 671 219 671 193.5 641.5 c 128,-1,10
 168 612 168 612 165 562 c 1,11,-1
 152 572 l 1,12,13
 165 583 165 583 182 587 c 128,-1,14
 199 591 199 591 215 591 c 0,15,16
 253 591 253 591 277 571.5 c 128,-1,17
 301 552 301 552 301 517 c 0,18,19
 301 479 301 479 274 454 c 128,-1,20
 247 429 247 429 198 429 c 0,21,22
 161 429 161 429 135 442.5 c 128,-1,23
 109 456 109 456 96.5 483 c 128,-1,24
 84 510 84 510 84 549 c 0,0,1
EndSplineSet
EndChar

StartChar: quoteright
Encoding: 146 8217 162
Width: 339
GlyphClass: 1
Flags: W
LayerCount: 2
Fore
SplineSet
354 669 m 0,0,1
 354 634 354 634 345.5 600 c 128,-1,2
 337 566 337 566 319.5 536.5 c 128,-1,3
 302 507 302 507 274 483 c 128,-1,4
 246 459 246 459 205.5 442.5 c 128,-1,5
 165 426 165 426 111 420 c 1,6,-1
 64 507 l 1,7,8
 128 516 128 516 173.5 532 c 128,-1,9
 219 548 219 548 244.5 577.5 c 128,-1,10
 270 607 270 607 273 656 c 1,11,-1
 286 646 l 1,12,13
 273 635 273 635 256 631.5 c 128,-1,14
 239 628 239 628 223 628 c 0,15,16
 185 628 185 628 161 647.5 c 128,-1,17
 137 667 137 667 137 701 c 0,18,19
 137 739 137 739 163.5 764 c 128,-1,20
 190 789 190 789 240 789 c 0,21,22
 278 789 278 789 303.5 775.5 c 128,-1,23
 329 762 329 762 341.5 735.5 c 128,-1,24
 354 709 354 709 354 669 c 0,0,1
EndSplineSet
EndChar

StartChar: quotedblleft
Encoding: 147 8220 163
Width: 618
GlyphClass: 1
Flags: W
LayerCount: 2
Fore
SplineSet
359 549 m 0,0,1
 359 584 359 584 367 618 c 128,-1,2
 375 652 375 652 392.5 681.5 c 128,-1,3
 410 711 410 711 439 735 c 128,-1,4
 468 759 468 759 508 775.5 c 128,-1,5
 548 792 548 792 602 798 c 1,6,-1
 649 712 l 1,7,8
 586 703 586 703 540 687 c 128,-1,9
 494 671 494 671 468.5 641.5 c 128,-1,10
 443 612 443 612 440 562 c 1,11,-1
 427 572 l 1,12,13
 440 583 440 583 456.5 587 c 128,-1,14
 473 591 473 591 490 591 c 0,15,16
 528 591 528 591 552 571.5 c 128,-1,17
 576 552 576 552 576 517 c 0,18,19
 576 479 576 479 549 454 c 128,-1,20
 522 429 522 429 473 429 c 0,21,22
 436 429 436 429 410 442.5 c 128,-1,23
 384 456 384 456 371.5 483 c 128,-1,24
 359 510 359 510 359 549 c 0,0,1
75 549 m 0,25,26
 75 584 75 584 83 618 c 128,-1,27
 91 652 91 652 108.5 681.5 c 128,-1,28
 126 711 126 711 154.5 735 c 128,-1,29
 183 759 183 759 223.5 775.5 c 128,-1,30
 264 792 264 792 318 798 c 1,31,-1
 365 712 l 1,32,33
 301 703 301 703 255 687 c 128,-1,34
 209 671 209 671 184 641.5 c 128,-1,35
 159 612 159 612 155 562 c 1,36,-1
 143 572 l 1,37,38
 156 583 156 583 172.5 587 c 128,-1,39
 189 591 189 591 206 591 c 0,40,41
 243 591 243 591 267 571.5 c 128,-1,42
 291 552 291 552 291 517 c 0,43,44
 291 479 291 479 264.5 454 c 128,-1,45
 238 429 238 429 189 429 c 0,46,47
 152 429 152 429 126 442.5 c 128,-1,48
 100 456 100 456 87.5 483 c 128,-1,49
 75 510 75 510 75 549 c 0,25,26
EndSplineSet
EndChar

StartChar: guilsinglleft
Encoding: 139 8249 167
Width: 430
GlyphClass: 1
Flags: W
LayerCount: 2
Fore
SplineSet
191 248 m 1,0,-1
 207 308 l 1,1,-1
 319 63 l 1,2,-1
 195 63 l 1,3,-1
 53 245 l 1,4,-1
 74 334 l 1,5,-1
 307 513 l 1,6,-1
 432 513 l 1,7,-1
 191 248 l 1,0,-1
EndSplineSet
EndChar

StartChar: guilsinglright
Encoding: 155 8250 168
Width: 430
GlyphClass: 1
Flags: W
LayerCount: 2
Fore
SplineSet
241 322 m 1,0,-1
 225 262 l 1,1,-1
 113 507 l 1,2,-1
 237 507 l 1,3,-1
 380 325 l 1,4,-1
 359 236 l 1,5,-1
 126 57 l 1,6,-1
 0 57 l 1,7,-1
 241 322 l 1,0,-1
EndSplineSet
EndChar

StartChar: guillemotright
Encoding: 187 187 170
Width: 722
GlyphClass: 1
Flags: W
LayerCount: 2
Fore
SplineSet
530 322 m 1,0,-1
 514 262 l 1,1,-1
 402 507 l 1,2,-1
 526 507 l 1,3,-1
 668 325 l 1,4,-1
 647 236 l 1,5,-1
 414 57 l 1,6,-1
 289 57 l 1,7,-1
 530 322 l 1,0,-1
238 322 m 1,8,-1
 222 262 l 1,9,-1
 110 507 l 1,10,-1
 234 507 l 1,11,-1
 376 325 l 1,12,-1
 355 236 l 1,13,-1
 122 57 l 1,14,-1
 -3 57 l 1,15,-1
 238 322 l 1,8,-1
EndSplineSet
EndChar

StartChar: asterisk
Encoding: 42 42 171
Width: 604
GlyphClass: 1
Flags: W
LayerCount: 2
Fore
SplineSet
112 638 m 1,0,1
 137 619 137 619 159.5 608 c 128,-1,2
 182 597 182 597 203 589 c 128,-1,3
 224 581 224 581 246.5 571 c 128,-1,4
 269 561 269 561 294 543 c 1,5,-1
 336 598 l 1,6,7
 314 616 314 616 299.5 633.5 c 128,-1,8
 285 651 285 651 272 669 c 128,-1,9
 259 687 259 687 242 705.5 c 128,-1,10
 225 724 225 724 200 744 c 1,11,-1
 112 638 l 1,0,1
121 394 m 1,12,13
 152 407 152 407 175.5 420.5 c 128,-1,14
 199 434 199 434 220.5 448.5 c 128,-1,15
 242 463 242 463 265 476.5 c 128,-1,16
 288 490 288 490 318 502 c 1,17,-1
 296 563 l 1,18,19
 267 552 267 552 241 547 c 128,-1,20
 215 542 215 542 189.5 539 c 128,-1,21
 164 536 164 536 136.5 530.5 c 128,-1,22
 109 525 109 525 78 514 c 1,23,-1
 121 394 l 1,12,13
354 302 m 1,24,25
 362 332 362 332 363.5 357 c 128,-1,26
 365 382 365 382 364 405 c 128,-1,27
 363 428 363 428 364 452.5 c 128,-1,28
 365 477 365 477 371 507 c 1,29,-1
 303 514 l 1,30,31
 295 485 295 485 284.5 462 c 128,-1,32
 274 439 274 439 262 416.5 c 128,-1,33
 250 394 250 394 239 367.5 c 128,-1,34
 228 341 228 341 221 305 c 1,35,-1
 354 302 l 1,24,25
336 794 m 1,36,37
 328 763 328 763 327 738 c 128,-1,38
 326 713 326 713 326.5 690 c 128,-1,39
 327 667 327 667 326.5 642.5 c 128,-1,40
 326 618 326 618 320 588 c 1,41,-1
 388 582 l 1,42,43
 395 611 395 611 406 634 c 128,-1,44
 417 657 417 657 429 679 c 128,-1,45
 441 701 441 701 452 728 c 128,-1,46
 463 755 463 755 470 791 c 1,47,-1
 336 794 l 1,36,37
490 352 m 1,48,-1
 578 460 l 1,49,50
 553 479 553 479 531 489.5 c 128,-1,51
 509 500 509 500 487 508 c 128,-1,52
 465 516 465 516 442.5 526.5 c 128,-1,53
 420 537 420 537 396 554 c 1,54,-1
 354 500 l 1,55,56
 376 482 376 482 391 463.5 c 128,-1,57
 406 445 406 445 419 427 c 128,-1,58
 432 409 432 409 448.5 390.5 c 128,-1,59
 465 372 465 372 490 352 c 1,48,-1
615 588 m 1,60,-1
 571 705 l 1,61,62
 539 693 539 693 515.5 678.5 c 128,-1,63
 492 664 492 664 470.5 649 c 128,-1,64
 449 634 449 634 426 620 c 128,-1,65
 403 606 403 606 373 594 c 1,66,-1
 394 532 l 1,67,68
 424 544 424 544 450 549.5 c 128,-1,69
 476 555 476 555 502 559 c 128,-1,70
 528 563 528 563 555.5 569.5 c 128,-1,71
 583 576 583 576 615 588 c 1,60,-1
EndSplineSet
EndChar

StartChar: dagger
Encoding: 134 8224 172
Width: 624
GlyphClass: 1
Flags: W
LayerCount: 2
Fore
SplineSet
310 458 m 1,0,-1
 93 391 l 1,1,-1
 48 391 l 1,2,-1
 92 564 l 1,3,-1
 137 564 l 1,4,-1
 318 512 l 1,5,-1
 377 512 l 1,6,-1
 589 564 l 1,7,-1
 634 564 l 1,8,-1
 590 391 l 1,9,-1
 545 391 l 1,10,-1
 370 458 l 1,11,-1
 310 458 l 1,0,-1
525 710 m 1,12,-1
 514 664 l 2,13,14
 510 651 510 651 498.5 637 c 128,-1,15
 487 623 487 623 471 607.5 c 128,-1,16
 455 592 455 592 438 573.5 c 128,-1,17
 421 555 421 555 407.5 532.5 c 128,-1,18
 394 510 394 510 388 483 c 0,19,20
 378 443 378 443 381.5 415 c 128,-1,21
 385 387 385 387 394 369 c 128,-1,22
 403 351 403 351 413.5 340 c 128,-1,23
 424 329 424 329 429 322 c 1,24,-1
 422 295 l 2,25,26
 418 280 418 280 402.5 256 c 128,-1,27
 387 232 387 232 364 194 c 128,-1,28
 341 156 341 156 312.5 97.5 c 128,-1,29
 284 39 284 39 253 -46 c 1,30,-1
 169 -46 l 1,31,32
 180 38 180 38 180 96.5 c 128,-1,33
 180 155 180 155 175.5 193.5 c 128,-1,34
 171 232 171 232 168 256 c 128,-1,35
 165 280 165 280 169 295 c 2,36,-1
 176 322 l 1,37,38
 184 329 184 329 200.5 341 c 128,-1,39
 217 353 217 353 236 371.5 c 128,-1,40
 255 390 255 390 271.5 418 c 128,-1,41
 288 446 288 446 297 486 c 0,42,43
 304 513 304 513 301 535 c 128,-1,44
 298 557 298 557 290.5 575 c 128,-1,45
 283 593 283 593 275 608.5 c 128,-1,46
 267 624 267 624 262.5 637.5 c 128,-1,47
 258 651 258 651 261 664 c 2,48,-1
 272 710 l 1,49,-1
 525 710 l 1,12,-1
EndSplineSet
EndChar

StartChar: daggerdbl
Encoding: 135 8225 173
Width: 624
GlyphClass: 1
Flags: W
LayerCount: 2
Fore
SplineSet
-19 84 m 1,0,-1
 21 242 l 1,1,-1
 66 242 l 1,2,-1
 249 191 l 1,3,-1
 308 191 l 1,4,-1
 518 242 l 1,5,-1
 563 242 l 1,6,-1
 523 84 l 1,7,-1
 478 84 l 1,8,-1
 296 138 l 1,9,-1
 237 138 l 1,10,-1
 26 84 l 1,11,-1
 -19 84 l 1,0,-1
184 305 m 1,12,-1
 197 358 l 1,13,14
 205 364 205 364 220 373 c 128,-1,15
 235 382 235 382 252.5 397.5 c 128,-1,16
 270 413 270 413 286 437.5 c 128,-1,17
 302 462 302 462 311 499 c 0,18,19
 317 525 317 525 314 545.5 c 128,-1,20
 311 566 311 566 303 582.5 c 128,-1,21
 295 599 295 599 286.5 612.5 c 128,-1,22
 278 626 278 626 272.5 638.5 c 128,-1,23
 267 651 267 651 271 664 c 2,24,-1
 282 710 l 1,25,-1
 534 710 l 1,26,-1
 523 664 l 2,27,28
 520 651 520 651 508.5 639 c 128,-1,29
 497 627 497 627 481.5 614 c 128,-1,30
 466 601 466 601 450 585 c 128,-1,31
 434 569 434 569 421 548.5 c 128,-1,32
 408 528 408 528 401 502 c 0,33,34
 392 465 392 465 395.5 440 c 128,-1,35
 399 415 399 415 409 399 c 128,-1,36
 419 383 419 383 429 373.5 c 128,-1,37
 439 364 439 364 444 358 c 1,38,-1
 431 305 l 1,39,40
 423 299 423 299 408.5 290.5 c 128,-1,41
 394 282 394 282 376 266.5 c 128,-1,42
 358 251 358 251 342 226.5 c 128,-1,43
 326 202 326 202 318 165 c 0,44,45
 311 138 311 138 314 117.5 c 128,-1,46
 317 97 317 97 325 81 c 128,-1,47
 333 65 333 65 342 51.5 c 128,-1,48
 351 38 351 38 356 25.5 c 128,-1,49
 361 13 361 13 358 0 c 2,50,-1
 346 -46 l 1,51,-1
 94 -46 l 1,52,-1
 105 0 l 2,53,54
 109 13 109 13 120 25 c 128,-1,55
 131 37 131 37 146 50 c 128,-1,56
 161 63 161 63 177.5 79 c 128,-1,57
 194 95 194 95 207 115 c 128,-1,58
 220 135 220 135 227 162 c 0,59,60
 236 199 236 199 232.5 223.5 c 128,-1,61
 229 248 229 248 219 264 c 128,-1,62
 209 280 209 280 199 289.5 c 128,-1,63
 189 299 189 299 184 305 c 1,12,-1
65 422 m 1,64,-1
 105 579 l 1,65,-1
 150 579 l 1,66,-1
 332 526 l 1,67,-1
 391 526 l 1,68,-1
 602 579 l 1,69,-1
 647 579 l 1,70,-1
 607 422 l 1,71,-1
 562 422 l 1,72,-1
 379 473 l 1,73,-1
 320 473 l 1,74,-1
 110 422 l 1,75,-1
 65 422 l 1,64,-1
EndSplineSet
EndChar

StartChar: period
Encoding: 46 46 174
Width: 394
GlyphClass: 1
Flags: W
LayerCount: 2
Fore
SplineSet
295 89 m 0,0,1
 295 37 295 37 262.5 8.5 c 128,-1,2
 230 -20 230 -20 177 -20 c 0,3,4
 125 -20 125 -20 92.5 8.5 c 128,-1,5
 60 37 60 37 60 89 c 0,6,7
 60 142 60 142 92.5 170 c 128,-1,8
 125 198 125 198 177 198 c 0,9,10
 230 198 230 198 262.5 170 c 128,-1,11
 295 142 295 142 295 89 c 0,0,1
EndSplineSet
Substitution2: "Single Substitution lookup 57 subtable" period.tab
EndChar

StartChar: comma
Encoding: 44 44 175
Width: 409
GlyphClass: 1
Flags: W
LayerCount: 2
Fore
SplineSet
48 -219 m 1,0,-1
 -19 -122 l 1,1,2
 51 -114 51 -114 95 -99.5 c 128,-1,3
 139 -85 139 -85 165 -57 c 128,-1,4
 191 -29 191 -29 204 18 c 0,5,6
 211 33 211 33 218 40 c 128,-1,7
 225 47 225 47 231.5 43.5 c 128,-1,8
 238 40 238 40 240 25 c 1,9,10
 222 11 222 11 199.5 4.5 c 128,-1,11
 177 -2 177 -2 154 -2 c 0,12,13
 109 -2 109 -2 78 20.5 c 128,-1,14
 47 43 47 43 47 84 c 0,15,16
 47 134 47 134 81 164.5 c 128,-1,17
 115 195 115 195 178 195 c 0,18,19
 243 195 243 195 278.5 164.5 c 128,-1,20
 314 134 314 134 314 74 c 0,21,22
 314 27 314 27 298 -19.5 c 128,-1,23
 282 -66 282 -66 249.5 -107 c 128,-1,24
 217 -148 217 -148 167 -177.5 c 128,-1,25
 117 -207 117 -207 48 -219 c 1,0,-1
EndSplineSet
Substitution2: "Single Substitution lookup 57 subtable" comma.tab
EndChar

StartChar: exclam
Encoding: 33 33 179
Width: 403
GlyphClass: 1
Flags: W
LayerCount: 2
Fore
SplineSet
417 761 m 1,0,-1
 196 761 l 1,1,2
 182 705 182 705 175 658 c 128,-1,3
 168 611 168 611 164.5 567.5 c 128,-1,4
 161 524 161 524 156.5 479 c 128,-1,5
 152 434 152 434 144.5 384 c 128,-1,6
 137 334 137 334 122 273 c 1,7,-1
 247 273 l 1,8,9
 262 334 262 334 279.5 383.5 c 128,-1,10
 297 433 297 433 315 476.5 c 128,-1,11
 333 520 333 520 351 563 c 128,-1,12
 369 606 369 606 386 654 c 128,-1,13
 403 702 403 702 417 761 c 1,0,-1
270 89 m 0,14,15
 270 37 270 37 237.5 8.5 c 128,-1,16
 205 -20 205 -20 152 -20 c 256,17,18
 99 -20 99 -20 66.5 8.5 c 128,-1,19
 34 37 34 37 34 89 c 0,20,21
 34 142 34 142 66.5 170 c 128,-1,22
 99 198 99 198 152 198 c 256,23,24
 205 198 205 198 237.5 170 c 128,-1,25
 270 142 270 142 270 89 c 0,14,15
EndSplineSet
EndChar

StartChar: exclamdown
Encoding: 161 161 180
Width: 386
GlyphClass: 1
Flags: W
LayerCount: 2
Fore
SplineSet
-15 -179 m 1,0,-1
 206 -179 l 1,1,2
 220 -123 220 -123 226.5 -76 c 128,-1,3
 233 -29 233 -29 237 14.5 c 128,-1,4
 241 58 241 58 245 102.5 c 128,-1,5
 249 147 249 147 257 197.5 c 128,-1,6
 265 248 265 248 279 309 c 1,7,-1
 154 309 l 1,8,9
 139 248 139 248 122 198.5 c 128,-1,10
 105 149 105 149 86.5 105.5 c 128,-1,11
 68 62 68 62 50 19 c 128,-1,12
 32 -24 32 -24 15.5 -72 c 128,-1,13
 -1 -120 -1 -120 -15 -179 c 1,0,-1
131 493 m 256,14,15
 131 546 131 546 164 574 c 128,-1,16
 197 602 197 602 250 602 c 0,17,18
 302 602 302 602 334.5 574 c 128,-1,19
 367 546 367 546 367 493 c 256,20,21
 367 440 367 440 334.5 412 c 128,-1,22
 302 384 302 384 250 384 c 0,23,24
 197 384 197 384 164 412 c 128,-1,25
 131 440 131 440 131 493 c 256,14,15
EndSplineSet
EndChar

StartChar: question
Encoding: 63 63 181
Width: 638
GlyphClass: 1
Flags: W
LayerCount: 2
Fore
SplineSet
228 438 m 1,0,1
 287 442 287 442 331.5 452.5 c 128,-1,2
 376 463 376 463 405.5 480.5 c 128,-1,3
 435 498 435 498 450 524.5 c 128,-1,4
 465 551 465 551 465 587 c 0,5,6
 465 614 465 614 454 629.5 c 128,-1,7
 443 645 443 645 421 652.5 c 128,-1,8
 399 660 399 660 366 660 c 256,9,10
 333 660 333 660 306 653.5 c 128,-1,11
 279 647 279 647 260 639.5 c 128,-1,12
 241 632 241 632 233 627 c 1,13,14
 234 632 234 632 237.5 643 c 128,-1,15
 241 654 241 654 248.5 666.5 c 128,-1,16
 256 679 256 679 268 688 c 128,-1,17
 280 697 280 697 298 698 c 1,18,-1
 260 550 l 1,19,-1
 112 550 l 1,20,-1
 155 719 l 1,21,22
 170 726 170 726 203.5 736 c 128,-1,23
 237 746 237 746 283 754 c 128,-1,24
 329 762 329 762 380 762 c 0,25,26
 468 762 468 762 526.5 744.5 c 128,-1,27
 585 727 585 727 614.5 691 c 128,-1,28
 644 655 644 655 644 599 c 0,29,30
 644 539 644 539 622 498.5 c 128,-1,31
 600 458 600 458 562 434.5 c 128,-1,32
 524 411 524 411 475.5 399.5 c 128,-1,33
 427 388 427 388 373 385 c 1,34,-1
 344 269 l 1,35,-1
 186 269 l 1,36,-1
 228 438 l 1,0,1
357 88 m 0,37,38
 357 36 357 36 324.5 7.5 c 128,-1,39
 292 -21 292 -21 239 -21 c 0,40,41
 187 -21 187 -21 154.5 7.5 c 128,-1,42
 122 36 122 36 122 88 c 0,43,44
 122 141 122 141 154.5 169 c 128,-1,45
 187 197 187 197 239 197 c 0,46,47
 292 197 292 197 324.5 169 c 128,-1,48
 357 141 357 141 357 88 c 0,37,38
EndSplineSet
EndChar

StartChar: questiondown
Encoding: 191 191 182
Width: 609
GlyphClass: 1
Flags: W
LayerCount: 2
Fore
SplineSet
410 142 m 1,0,1
 351 139 351 139 306.5 128.5 c 128,-1,2
 262 118 262 118 232.5 100.5 c 128,-1,3
 203 83 203 83 188 56.5 c 128,-1,4
 173 30 173 30 173 -7 c 0,5,6
 173 -33 173 -33 184 -49 c 128,-1,7
 195 -65 195 -65 217 -72 c 128,-1,8
 239 -79 239 -79 272 -79 c 256,9,10
 305 -79 305 -79 332 -73 c 128,-1,11
 359 -67 359 -67 378.5 -58.5 c 128,-1,12
 398 -50 398 -50 405 -46 c 1,13,14
 404 -51 404 -51 400.5 -62 c 128,-1,15
 397 -73 397 -73 389.5 -85.5 c 128,-1,16
 382 -98 382 -98 370 -107.5 c 128,-1,17
 358 -117 358 -117 340 -118 c 1,18,-1
 378 30 l 1,19,-1
 526 30 l 1,20,-1
 483 -139 l 1,21,22
 469 -144 469 -144 435 -154.5 c 128,-1,23
 401 -165 401 -165 355.5 -173 c 128,-1,24
 310 -181 310 -181 258 -181 c 0,25,26
 170 -181 170 -181 111.5 -163.5 c 128,-1,27
 53 -146 53 -146 23.5 -109.5 c 128,-1,28
 -6 -73 -6 -73 -6 -18 c 0,29,30
 -6 41 -6 41 16 81.5 c 128,-1,31
 38 122 38 122 76 146 c 128,-1,32
 114 170 114 170 162.5 181.5 c 128,-1,33
 211 193 211 193 264 196 c 1,34,-1
 294 312 l 1,35,-1
 452 312 l 1,36,-1
 410 142 l 1,0,1
281 493 m 256,37,38
 281 546 281 546 314 574 c 128,-1,39
 347 602 347 602 399 602 c 0,40,41
 452 602 452 602 484 574 c 128,-1,42
 516 546 516 546 516 493 c 256,43,44
 516 440 516 440 484 412 c 128,-1,45
 452 384 452 384 399 384 c 0,46,47
 347 384 347 384 314 412 c 128,-1,48
 281 440 281 440 281 493 c 256,37,38
EndSplineSet
EndChar

StartChar: slash
Encoding: 47 47 183
Width: 591
GlyphClass: 1
Flags: W
LayerCount: 2
Fore
SplineSet
547 780 m 1,0,-1
 675 780 l 1,1,-1
 44 -158 l 1,2,-1
 -84 -158 l 1,3,-1
 547 780 l 1,0,-1
EndSplineSet
Substitution2: "Single Substitution lookup 13 subtable" fraction
EndChar

StartChar: backslash
Encoding: 92 92 184
Width: 480
GlyphClass: 1
Flags: W
LayerCount: 2
Fore
SplineSet
134 780 m 1,0,-1
 461 -158 l 1,1,-1
 336 -158 l 1,2,-1
 9 780 l 1,3,-1
 134 780 l 1,0,-1
EndSplineSet
EndChar

StartChar: fraction
Encoding: 818 8260 185
Width: 282
GlyphClass: 1
Flags: W
LayerCount: 2
Fore
SplineSet
432 710 m 1,0,-1
 532 710 l 1,1,-1
 -146 0 l 1,2,-1
 -246 0 l 1,3,-1
 432 710 l 1,0,-1
EndSplineSet
EndChar

StartChar: bar
Encoding: 124 124 186
Width: 374
GlyphClass: 1
Flags: W
LayerCount: 2
Fore
SplineSet
125 762 m 1,0,-1
 250 762 l 1,1,-1
 250 -158 l 1,2,-1
 125 -158 l 1,3,-1
 125 762 l 1,0,-1
EndSplineSet
EndChar

StartChar: brokenbar
Encoding: 166 166 187
Width: 374
GlyphClass: 1
Flags: W
LayerCount: 2
Fore
SplineSet
125 762 m 1,0,-1
 250 762 l 1,1,-1
 250 395 l 1,2,-1
 125 395 l 1,3,-1
 125 762 l 1,0,-1
125 209 m 1,4,-1
 250 209 l 1,5,-1
 250 -158 l 1,6,-1
 125 -158 l 1,7,-1
 125 209 l 1,4,-1
EndSplineSet
EndChar

StartChar: at
Encoding: 64 64 188
Width: 1030
GlyphClass: 1
Flags: W
LayerCount: 2
Fore
SplineSet
461 -163 m 0,0,1
 361 -163 361 -163 283.5 -138 c 128,-1,2
 206 -113 206 -113 153 -66 c 128,-1,3
 100 -19 100 -19 72.5 46 c 128,-1,4
 45 111 45 111 45 192 c 0,5,6
 45 277 45 277 71 352 c 128,-1,7
 97 427 97 427 145 489 c 128,-1,8
 193 551 193 551 259.5 595.5 c 128,-1,9
 326 640 326 640 407 664 c 128,-1,10
 488 688 488 688 581 688 c 0,11,12
 686 688 686 688 764 666 c 128,-1,13
 842 644 842 644 893.5 603.5 c 128,-1,14
 945 563 945 563 970 506.5 c 128,-1,15
 995 450 995 450 995 379 c 0,16,17
 995 311 995 311 976.5 252.5 c 128,-1,18
 958 194 958 194 922 150.5 c 128,-1,19
 886 107 886 107 835.5 83 c 128,-1,20
 785 59 785 59 722 59 c 0,21,22
 675 59 675 59 642.5 69.5 c 128,-1,23
 610 80 610 80 589 100 c 128,-1,24
 568 120 568 120 554 148 c 1,25,-1
 539 155 l 1,26,-1
 625 385 l 1,27,-1
 624 387 l 1,28,-1
 694 472 l 1,29,-1
 784 472 l 1,30,-1
 695 237 l 2,31,32
 687 218 687 218 684 206.5 c 128,-1,33
 681 195 681 195 681 187 c 0,34,35
 681 168 681 168 696 157.5 c 128,-1,36
 711 147 711 147 748 147 c 0,37,38
 786 147 786 147 812.5 167 c 128,-1,39
 839 187 839 187 855.5 221 c 128,-1,40
 872 255 872 255 879 296 c 128,-1,41
 886 337 886 337 886 379 c 0,42,43
 886 447 886 447 854 496.5 c 128,-1,44
 822 546 822 546 755 573 c 128,-1,45
 688 600 688 600 581 600 c 0,46,47
 485 600 485 600 407.5 570 c 128,-1,48
 330 540 330 540 274.5 485 c 128,-1,49
 219 430 219 430 189 355.5 c 128,-1,50
 159 281 159 281 159 192 c 0,51,52
 159 130 159 130 179 80.5 c 128,-1,53
 199 31 199 31 238 -4 c 128,-1,54
 277 -39 277 -39 334.5 -58 c 128,-1,55
 392 -77 392 -77 466 -77 c 0,56,57
 514 -77 514 -77 556.5 -70 c 128,-1,58
 599 -63 599 -63 635 -53 c 128,-1,59
 671 -43 671 -43 696 -33 c 1,60,-1
 710 -117 l 1,61,62
 681 -129 681 -129 641.5 -139.5 c 128,-1,63
 602 -150 602 -150 556 -156.5 c 128,-1,64
 510 -163 510 -163 461 -163 c 0,0,1
427 53 m 0,65,66
 381 53 381 53 350.5 70 c 128,-1,67
 320 87 320 87 305.5 117.5 c 128,-1,68
 291 148 291 148 291 188 c 0,69,70
 291 237 291 237 307.5 288 c 128,-1,71
 324 339 324 339 355 382 c 128,-1,72
 386 425 386 425 429 451.5 c 128,-1,73
 472 478 472 478 525 478 c 0,74,75
 572 478 572 478 598.5 461.5 c 128,-1,76
 625 445 625 445 636.5 415.5 c 128,-1,77
 648 386 648 386 651 345 c 1,78,-1
 623 309 l 1,79,80
 617 338 617 338 607.5 356 c 128,-1,81
 598 374 598 374 583 383 c 128,-1,82
 568 392 568 392 544 392 c 0,83,84
 517 392 517 392 496.5 375 c 128,-1,85
 476 358 476 358 461 332 c 128,-1,86
 446 306 446 306 436 277 c 128,-1,87
 426 248 426 248 421.5 222.5 c 128,-1,88
 417 197 417 197 417 181 c 0,89,90
 417 167 417 167 421.5 157.5 c 128,-1,91
 426 148 426 148 436 143.5 c 128,-1,92
 446 139 446 139 461 139 c 0,93,94
 480 139 480 139 496.5 147.5 c 128,-1,95
 513 156 513 156 530.5 173 c 128,-1,96
 548 190 548 190 569 213 c 1,97,-1
 595 178 l 1,98,99
 560 136 560 136 535 108 c 128,-1,100
 510 80 510 80 485.5 66.5 c 128,-1,101
 461 53 461 53 427 53 c 0,65,66
EndSplineSet
EndChar

StartChar: ampersand
Encoding: 38 38 189
Width: 838
GlyphClass: 1
Flags: W
LayerCount: 2
Fore
SplineSet
727 0 m 1,0,-1
 534 0 l 1,1,2
 480 72 480 72 432.5 132 c 128,-1,3
 385 192 385 192 347 243.5 c 128,-1,4
 309 295 309 295 282 341 c 128,-1,5
 255 387 255 387 240 430 c 128,-1,6
 225 473 225 473 225 515 c 0,7,8
 225 577 225 577 251 622.5 c 128,-1,9
 277 668 277 668 331.5 693 c 128,-1,10
 386 718 386 718 470 718 c 0,11,12
 547 718 547 718 592.5 701 c 128,-1,13
 638 684 638 684 658 654.5 c 128,-1,14
 678 625 678 625 678 584 c 0,15,16
 678 525 678 525 639.5 486.5 c 128,-1,17
 601 448 601 448 530.5 423.5 c 128,-1,18
 460 399 460 399 362 382 c 1,19,-1
 352 437 l 1,20,21
 418 450 418 450 457 466 c 128,-1,22
 496 482 496 482 513 507 c 128,-1,23
 530 532 530 532 530 569 c 0,24,25
 530 587 530 587 524.5 600 c 128,-1,26
 519 613 519 613 505.5 620 c 128,-1,27
 492 627 492 627 466 627 c 0,28,29
 433 627 433 627 414.5 615.5 c 128,-1,30
 396 604 396 604 389.5 584 c 128,-1,31
 383 564 383 564 383 536 c 0,32,33
 383 512 383 512 392.5 486 c 128,-1,34
 402 460 402 460 421.5 429 c 128,-1,35
 441 398 441 398 470.5 359 c 128,-1,36
 500 320 500 320 540 270 c 128,-1,37
 580 220 580 220 630 155 c 0,38,39
 646 135 646 135 660.5 124 c 128,-1,40
 675 113 675 113 691 108.5 c 128,-1,41
 707 104 707 104 725 103 c 2,42,-1
 751 102 l 1,43,-1
 727 0 l 1,0,-1
328 86 m 0,44,45
 375 86 375 86 419 100.5 c 128,-1,46
 463 115 463 115 501 139.5 c 128,-1,47
 539 164 539 164 568.5 193.5 c 128,-1,48
 598 223 598 223 617 252.5 c 128,-1,49
 636 282 636 282 641 306 c 0,50,51
 641 311 641 311 635 313.5 c 128,-1,52
 629 316 629 316 618.5 318.5 c 128,-1,53
 608 321 608 321 595 321 c 2,54,-1
 587 321 l 1,55,-1
 610 422 l 1,56,-1
 835 422 l 1,57,-1
 812 321 l 1,58,-1
 801 321 l 2,59,60
 769 321 769 321 753 309.5 c 128,-1,61
 737 298 737 298 724 272 c 0,62,63
 709 239 709 239 680 201 c 128,-1,64
 651 163 651 163 610.5 125.5 c 128,-1,65
 570 88 570 88 518.5 57 c 128,-1,66
 467 26 467 26 406 8 c 128,-1,67
 345 -10 345 -10 275 -10 c 0,68,69
 186 -10 186 -10 127 12.5 c 128,-1,70
 68 35 68 35 38.5 78.5 c 128,-1,71
 9 122 9 122 9 185 c 0,72,73
 9 244 9 244 29.5 286 c 128,-1,74
 50 328 50 328 88.5 356.5 c 128,-1,75
 127 385 127 385 181 401 c 128,-1,76
 235 417 235 417 302 424 c 1,77,-1
 316 357 l 1,78,79
 271 348 271 348 242 328.5 c 128,-1,80
 213 309 213 309 199 278 c 128,-1,81
 185 247 185 247 185 203 c 0,82,83
 185 164 185 164 199 138 c 128,-1,84
 213 112 213 112 245 99 c 128,-1,85
 277 86 277 86 328 86 c 0,44,45
EndSplineSet
EndChar

StartChar: section
Encoding: 167 167 190
Width: 631
GlyphClass: 1
Flags: W
LayerCount: 2
Fore
SplineSet
189 -236 m 0,0,1
 124 -236 124 -236 77.5 -227.5 c 128,-1,2
 31 -219 31 -219 -1 -206.5 c 128,-1,3
 -33 -194 -33 -194 -54 -184 c 1,4,-1
 -19 -36 l 1,5,-1
 115 -36 l 1,6,-1
 81 -175 l 1,7,8
 72 -166 72 -166 66 -155.5 c 128,-1,9
 60 -145 60 -145 56 -134.5 c 128,-1,10
 52 -124 52 -124 51.5 -116 c 128,-1,11
 51 -108 51 -108 53 -105 c 0,12,13
 70 -115 70 -115 87.5 -122.5 c 128,-1,14
 105 -130 105 -130 129 -134.5 c 128,-1,15
 153 -139 153 -139 187 -139 c 0,16,17
 229 -139 229 -139 256.5 -128.5 c 128,-1,18
 284 -118 284 -118 297.5 -99.5 c 128,-1,19
 311 -81 311 -81 311 -53 c 0,20,21
 311 -33 311 -33 300 -15.5 c 128,-1,22
 289 2 289 2 269.5 17 c 128,-1,23
 250 32 250 32 225 47.5 c 128,-1,24
 200 63 200 63 171 79 c 0,25,26
 138 98 138 98 111 116.5 c 128,-1,27
 84 135 84 135 65 156 c 128,-1,28
 46 177 46 177 36 202 c 128,-1,29
 26 227 26 227 26 259 c 0,30,31
 26 299 26 299 39 331.5 c 128,-1,32
 52 364 52 364 79 387 c 128,-1,33
 106 410 106 410 145 422.5 c 128,-1,34
 184 435 184 435 235 435 c 1,35,-1
 298 366 l 1,36,37
 252 365 252 365 224.5 357.5 c 128,-1,38
 197 350 197 350 185 334 c 128,-1,39
 173 318 173 318 173 292 c 0,40,41
 173 269 173 269 190.5 249.5 c 128,-1,42
 208 230 208 230 240 211.5 c 128,-1,43
 272 193 272 193 314 169 c 0,44,45
 355 146 355 146 390 117.5 c 128,-1,46
 425 89 425 89 446 52.5 c 128,-1,47
 467 16 467 16 467 -29 c 0,48,49
 467 -94 467 -94 432.5 -140.5 c 128,-1,50
 398 -187 398 -187 335.5 -211.5 c 128,-1,51
 273 -236 273 -236 189 -236 c 0,0,1
373 73 m 1,52,-1
 322 149 l 1,53,54
 368 150 368 150 397 156.5 c 128,-1,55
 426 163 426 163 439.5 177 c 128,-1,56
 453 191 453 191 453 214 c 0,57,58
 453 232 453 232 442.5 247 c 128,-1,59
 432 262 432 262 412.5 276.5 c 128,-1,60
 393 291 393 291 367.5 307 c 128,-1,61
 342 323 342 323 310 342 c 0,62,63
 272 366 272 366 239.5 394.5 c 128,-1,64
 207 423 207 423 187.5 458.5 c 128,-1,65
 168 494 168 494 168 539 c 0,66,67
 168 578 168 578 183.5 610.5 c 128,-1,68
 199 643 199 643 229.5 667.5 c 128,-1,69
 260 692 260 692 306.5 706 c 128,-1,70
 353 720 353 720 417 720 c 0,71,72
 476 720 476 720 520.5 712 c 128,-1,73
 565 704 565 704 594.5 694 c 128,-1,74
 624 684 624 684 638 678 c 1,75,-1
 602 529 l 1,76,-1
 474 529 l 1,77,-1
 507 665 l 1,78,79
 522 664 522 664 533 649.5 c 128,-1,80
 544 635 544 635 551 618 c 128,-1,81
 558 601 558 601 558 593 c 1,82,83
 543 605 543 605 522 612.5 c 128,-1,84
 501 620 501 620 475.5 624 c 128,-1,85
 450 628 450 628 420 628 c 0,86,87
 383 628 383 628 359.5 620.5 c 128,-1,88
 336 613 336 613 325.5 597.5 c 128,-1,89
 315 582 315 582 315 560 c 0,90,91
 315 536 315 536 331.5 517 c 128,-1,92
 348 498 348 498 376 480 c 128,-1,93
 404 462 404 462 439 441 c 0,94,95
 485 415 485 415 521 390 c 128,-1,96
 557 365 557 365 578.5 333.5 c 128,-1,97
 600 302 600 302 600 255 c 0,98,99
 600 210 600 210 584 176.5 c 128,-1,100
 568 143 568 143 538 120.5 c 128,-1,101
 508 98 508 98 466 86.5 c 128,-1,102
 424 75 424 75 373 73 c 1,52,-1
EndSplineSet
EndChar

StartChar: paragraph
Encoding: 182 182 191
Width: 668
GlyphClass: 1
Flags: W
LayerCount: 2
Fore
SplineSet
729 710 m 1,0,-1
 553 710 l 1,1,-1
 375 0 l 1,2,-1
 484 0 l 1,3,-1
 627 567 l 2,4,5
 631 582 631 582 639.5 589.5 c 128,-1,6
 648 597 648 597 661 600 c 128,-1,7
 674 603 674 603 692 603 c 2,8,-1
 703 603 l 1,9,-1
 729 710 l 1,0,-1
577 710 m 1,10,-1
 390 710 l 1,11,-1
 365 606 l 1,12,-1
 552 606 l 1,13,-1
 577 710 l 1,10,-1
286 0 m 1,14,-1
 464 710 l 1,15,-1
 343 710 l 2,16,17
 252 710 252 710 192 677.5 c 128,-1,18
 132 645 132 645 102.5 591.5 c 128,-1,19
 73 538 73 538 73 475 c 0,20,21
 73 423 73 423 94 384 c 128,-1,22
 115 345 115 345 154.5 323 c 128,-1,23
 194 301 194 301 249 301 c 2,24,-1
 252 301 l 1,25,-1
 178 0 l 1,26,-1
 286 0 l 1,14,-1
EndSplineSet
EndChar

StartChar: bullet
Encoding: 149 8226 193
Width: 487
GlyphClass: 1
Flags: W
LayerCount: 2
Fore
SplineSet
68 342 m 0,0,1
 68 395 68 395 91.5 434 c 128,-1,2
 115 473 115 473 157 495 c 128,-1,3
 199 517 199 517 252 517 c 0,4,5
 306 517 306 517 347.5 495 c 128,-1,6
 389 473 389 473 412.5 434 c 128,-1,7
 436 395 436 395 436 342 c 0,8,9
 436 291 436 291 412.5 251.5 c 128,-1,10
 389 212 389 212 347.5 189.5 c 128,-1,11
 306 167 306 167 252 167 c 256,12,13
 198 167 198 167 156.5 189.5 c 128,-1,14
 115 212 115 212 91.5 252 c 128,-1,15
 68 292 68 292 68 342 c 0,0,1
EndSplineSet
EndChar

StartChar: plus
Encoding: 43 43 194
Width: 560
GlyphClass: 1
Flags: W
LayerCount: 2
Fore
SplineSet
273 578 m 1,0,-1
 412 578 l 1,1,-1
 291 92 l 1,2,-1
 152 92 l 1,3,-1
 273 578 l 1,0,-1
532 400 m 1,4,-1
 502 270 l 1,5,-1
 32 270 l 1,6,-1
 63 400 l 1,7,-1
 532 400 l 1,4,-1
EndSplineSet
Substitution2: "'subs' Subscript in Latin lookup 51 subtable" plus.sub
Substitution2: "'sups' Superscript in Latin lookup 50 subtable" plus.sup
EndChar

StartChar: minus
Encoding: 823 8722 195
Width: 560
GlyphClass: 1
Flags: W
LayerCount: 2
Fore
SplineSet
519 394 m 1,0,-1
 496 282 l 1,1,-1
 43 282 l 1,2,-1
 67 394 l 1,3,-1
 519 394 l 1,0,-1
EndSplineSet
Substitution2: "'subs' Subscript in Latin lookup 51 subtable" minus.sub
Substitution2: "'sups' Superscript in Latin lookup 50 subtable" minus.sup
EndChar

StartChar: divide
Encoding: 247 247 197
Width: 560
GlyphClass: 1
Flags: W
LayerCount: 2
Fore
SplineSet
450 600 m 0,0,1
 450 552 450 552 420 525.5 c 128,-1,2
 390 499 390 499 340 499 c 0,3,4
 292 499 292 499 262 525.5 c 128,-1,5
 232 552 232 552 232 600 c 0,6,7
 232 650 232 650 262 675.5 c 128,-1,8
 292 701 292 701 341 701 c 256,9,10
 390 701 390 701 420 675.5 c 128,-1,11
 450 650 450 650 450 600 c 0,0,1
342 114 m 0,12,13
 342 66 342 66 312 40 c 128,-1,14
 282 14 282 14 233 14 c 256,15,16
 184 14 184 14 154 40 c 128,-1,17
 124 66 124 66 124 114 c 0,18,19
 124 164 124 164 154 190 c 128,-1,20
 184 216 184 216 233 216 c 256,21,22
 282 216 282 216 312 190 c 128,-1,23
 342 164 342 164 342 114 c 0,12,13
534 423 m 1,24,-1
 503 293 l 1,25,-1
 34 293 l 1,26,-1
 65 423 l 1,27,-1
 534 423 l 1,24,-1
EndSplineSet
EndChar

StartChar: multiply
Encoding: 215 215 198
Width: 560
GlyphClass: 1
Flags: W
LayerCount: 2
Fore
SplineSet
101 115 m 1,0,-1
 22 217 l 1,1,-1
 463 565 l 1,2,-1
 542 463 l 1,3,-1
 101 115 l 1,0,-1
353 115 m 1,4,-1
 90 476 l 1,5,-1
 207 565 l 1,6,-1
 470 204 l 1,7,-1
 353 115 l 1,4,-1
EndSplineSet
EndChar

StartChar: less
Encoding: 60 60 200
Width: 560
GlyphClass: 1
Flags: W
LayerCount: 2
Fore
SplineSet
415 70 m 1,0,-1
 449 209 l 1,1,-1
 171 359 l 1,2,-1
 158 304 l 1,3,-1
 513 453 l 1,4,-1
 546 600 l 1,5,-1
 95 401 l 1,6,-1
 63 269 l 1,7,-1
 415 70 l 1,0,-1
EndSplineSet
EndChar

StartChar: greater
Encoding: 62 62 201
Width: 560
GlyphClass: 1
Flags: W
LayerCount: 2
Fore
SplineSet
156 600 m 1,0,-1
 122 461 l 1,1,-1
 400 311 l 1,2,-1
 413 366 l 1,3,-1
 59 217 l 1,4,-1
 25 70 l 1,5,-1
 477 269 l 1,6,-1
 508 401 l 1,7,-1
 156 600 l 1,0,-1
EndSplineSet
EndChar

StartChar: logicalnot
Encoding: 172 172 202
Width: 560
GlyphClass: 1
Flags: W
LayerCount: 2
Fore
SplineSet
387 393 m 1,0,-1
 477 316 l 1,1,-1
 52 316 l 1,2,-1
 83 443 l 1,3,-1
 529 443 l 1,4,-1
 456 155 l 1,5,-1
 327 155 l 1,6,-1
 387 393 l 1,0,-1
EndSplineSet
EndChar

StartChar: infinity
Encoding: 836 8734 204
Width: 792
GlyphClass: 1
Flags: W
LayerCount: 2
Fore
SplineSet
339 332 m 0,0,1
 351 292 351 292 366.5 256.5 c 128,-1,2
 382 221 382 221 405 194 c 128,-1,3
 428 167 428 167 461.5 152.5 c 128,-1,4
 495 138 495 138 542 138 c 0,5,6
 590 138 590 138 629 157 c 128,-1,7
 668 176 668 176 696.5 210 c 128,-1,8
 725 244 725 244 740 288.5 c 128,-1,9
 755 333 755 333 755 384 c 0,10,11
 755 438 755 438 737 479 c 128,-1,12
 719 520 719 520 685.5 543 c 128,-1,13
 652 566 652 566 606 566 c 0,14,15
 572 566 572 566 542.5 551 c 128,-1,16
 513 536 513 536 488 508 c 128,-1,17
 463 480 463 480 441.5 444 c 128,-1,18
 420 408 420 408 401 366 c 1,19,-1
 447 361 l 1,20,21
 459 380 459 380 472.5 398.5 c 128,-1,22
 486 417 486 417 502.5 432 c 128,-1,23
 519 447 519 447 539.5 455.5 c 128,-1,24
 560 464 560 464 584 464 c 0,25,26
 615 464 615 464 636 452.5 c 128,-1,27
 657 441 657 441 668 420 c 128,-1,28
 679 399 679 399 679 368 c 0,29,30
 679 335 679 335 667.5 305.5 c 128,-1,31
 656 276 656 276 633.5 258.5 c 128,-1,32
 611 241 611 241 577 241 c 0,33,34
 547 241 547 241 527.5 254 c 128,-1,35
 508 267 508 267 494 295.5 c 128,-1,36
 480 324 480 324 465 369 c 0,37,38
 454 407 454 407 438.5 442 c 128,-1,39
 423 477 423 477 401 505 c 128,-1,40
 379 533 379 533 346 549.5 c 128,-1,41
 313 566 313 566 265 566 c 0,42,43
 216 566 216 566 176 546.5 c 128,-1,44
 136 527 136 527 107.5 493 c 128,-1,45
 79 459 79 459 64 415.5 c 128,-1,46
 49 372 49 372 49 324 c 0,47,48
 49 267 49 267 68 225 c 128,-1,49
 87 183 87 183 120.5 160.5 c 128,-1,50
 154 138 154 138 199 138 c 0,51,52
 233 138 233 138 262 152.5 c 128,-1,53
 291 167 291 167 315.5 194 c 128,-1,54
 340 221 340 221 361 257.5 c 128,-1,55
 382 294 382 294 402 336 c 1,56,-1
 356 341 l 1,57,58
 344 322 344 322 330.5 303.5 c 128,-1,59
 317 285 317 285 301 270.5 c 128,-1,60
 285 256 285 256 265 247.5 c 128,-1,61
 245 239 245 239 220 239 c 0,62,63
 191 239 191 239 169.5 251 c 128,-1,64
 148 263 148 263 136.5 284.5 c 128,-1,65
 125 306 125 306 125 338 c 0,66,67
 125 371 125 371 136 399.5 c 128,-1,68
 147 428 147 428 169.5 445.5 c 128,-1,69
 192 463 192 463 227 463 c 0,70,71
 259 463 259 463 278.5 449 c 128,-1,72
 298 435 298 435 312 406.5 c 128,-1,73
 326 378 326 378 339 332 c 0,0,1
EndSplineSet
EndChar

StartChar: dollar
Encoding: 36 36 205
Width: 560
GlyphClass: 1
Flags: W
LayerCount: 2
Fore
SplineSet
238 6 m 0,0,1
 169 6 169 6 117 17.5 c 128,-1,2
 65 29 65 29 30 45 c 128,-1,3
 -5 61 -5 61 -25 73 c 1,4,-1
 11 217 l 1,5,-1
 131 217 l 1,6,-1
 96 80 l 1,7,8
 84 80 84 80 76 87.5 c 128,-1,9
 68 95 68 95 63 105.5 c 128,-1,10
 58 116 58 116 56 126 c 128,-1,11
 54 136 54 136 54 141 c 1,12,13
 71 130 71 130 97 118.5 c 128,-1,14
 123 107 123 107 159.5 99.5 c 128,-1,15
 196 92 196 92 242 92 c 0,16,17
 278 92 278 92 305.5 98 c 128,-1,18
 333 104 333 104 351.5 115.5 c 128,-1,19
 370 127 370 127 379.5 145 c 128,-1,20
 389 163 389 163 389 187 c 0,21,22
 389 210 389 210 377.5 225.5 c 128,-1,23
 366 241 366 241 346 253 c 128,-1,24
 326 265 326 265 299.5 276 c 128,-1,25
 273 287 273 287 243 300 c 0,26,27
 194 323 194 323 157 346 c 128,-1,28
 120 369 120 369 99.5 404 c 128,-1,29
 79 439 79 439 79 495 c 0,30,31
 79 538 79 538 94.5 576 c 128,-1,32
 110 614 110 614 141.5 642 c 128,-1,33
 173 670 173 670 221.5 685.5 c 128,-1,34
 270 701 270 701 336 701 c 0,35,36
 396 701 396 701 445 691.5 c 128,-1,37
 494 682 494 682 528.5 669.5 c 128,-1,38
 563 657 563 657 578 645 c 1,39,-1
 544 508 l 1,40,-1
 431 508 l 1,41,-1
 463 633 l 1,42,43
 474 628 474 628 481 622.5 c 128,-1,44
 488 617 488 617 492.5 609.5 c 128,-1,45
 497 602 497 602 500 593.5 c 128,-1,46
 503 585 503 585 505 574 c 1,47,48
 492 585 492 585 469.5 594 c 128,-1,49
 447 603 447 603 415 609 c 128,-1,50
 383 615 383 615 337 615 c 0,51,52
 301 615 301 615 275.5 610.5 c 128,-1,53
 250 606 250 606 233.5 597 c 128,-1,54
 217 588 217 588 209 574 c 128,-1,55
 201 560 201 560 201 541 c 0,56,57
 201 514 201 514 218 496 c 128,-1,58
 235 478 235 478 264 464 c 128,-1,59
 293 450 293 450 329 434 c 0,60,61
 371 416 371 416 405 397.5 c 128,-1,62
 439 379 439 379 463.5 356 c 128,-1,63
 488 333 488 333 501 302.5 c 128,-1,64
 514 272 514 272 514 231 c 0,65,66
 514 176 514 176 494 134 c 128,-1,67
 474 92 474 92 437.5 63.5 c 128,-1,68
 401 35 401 35 350.5 20.5 c 128,-1,69
 300 6 300 6 238 6 c 0,0,1
104 -132 m 1,70,-1
 148 44 l 1,71,-1
 175 61 l 1,72,-1
 321 646 l 1,73,-1
 302 661 l 1,74,-1
 337 802 l 1,75,-1
 454 802 l 1,76,-1
 421 668 l 1,77,-1
 393 651 l 1,78,-1
 247 63 l 1,79,-1
 265 43 l 1,80,-1
 222 -132 l 1,81,-1
 104 -132 l 1,70,-1
EndSplineSet
Substitution2: "'pnum' Proportional Numbers in Latin lookup 55 subtable" dollar.proportional
EndChar

StartChar: cent
Encoding: 162 162 206
Width: 560
GlyphClass: 1
Flags: W
LayerCount: 2
Fore
SplineSet
286 -12 m 0,0,1
 225 -12 225 -12 175 4.5 c 128,-1,2
 125 21 125 21 89.5 52.5 c 128,-1,3
 54 84 54 84 34.5 128.5 c 128,-1,4
 15 173 15 173 15 228 c 0,5,6
 15 298 15 298 36.5 361 c 128,-1,7
 58 424 58 424 101.5 473.5 c 128,-1,8
 145 523 145 523 210 551 c 128,-1,9
 275 579 275 579 362 579 c 0,10,11
 421 579 421 579 466.5 570 c 128,-1,12
 512 561 512 561 543 549 c 128,-1,13
 574 537 574 537 587 529 c 1,14,-1
 544 355 l 1,15,-1
 417 355 l 1,16,-1
 458 522 l 1,17,18
 471 520 471 520 480.5 511.5 c 128,-1,19
 490 503 490 503 496 490.5 c 128,-1,20
 502 478 502 478 505.5 466.5 c 128,-1,21
 509 455 509 455 510 448 c 1,22,23
 495 459 495 459 473.5 467 c 128,-1,24
 452 475 452 475 424 479.5 c 128,-1,25
 396 484 396 484 357 484 c 0,26,27
 308 484 308 484 274 466.5 c 128,-1,28
 240 449 240 449 218 418.5 c 128,-1,29
 196 388 196 388 183.5 351.5 c 128,-1,30
 171 315 171 315 166.5 276 c 128,-1,31
 162 237 162 237 162 204 c 0,32,33
 162 159 162 159 176 133 c 128,-1,34
 190 107 190 107 219 96 c 128,-1,35
 248 85 248 85 291 85 c 0,36,37
 327 85 327 85 352.5 95.5 c 128,-1,38
 378 106 378 106 397.5 125.5 c 128,-1,39
 417 145 417 145 438 172 c 1,40,-1
 517 118 l 1,41,42
 493 80 493 80 461 50.5 c 128,-1,43
 429 21 429 21 386 4.5 c 128,-1,44
 343 -12 343 -12 286 -12 c 0,0,1
133 -166 m 1,45,-1
 178 15 l 1,46,-1
 205 28 l 1,47,-1
 331 534 l 1,48,-1
 310 546 l 1,49,-1
 348 703 l 1,50,-1
 470 703 l 1,51,-1
 434 555 l 1,52,-1
 405 536 l 1,53,-1
 279 33 l 1,54,-1
 300 20 l 1,55,-1
 254 -166 l 1,56,-1
 133 -166 l 1,45,-1
EndSplineSet
Substitution2: "'pnum' Proportional Numbers in Latin lookup 55 subtable" cent.proportional
EndChar

StartChar: sterling
Encoding: 163 163 207
Width: 560
GlyphClass: 1
Flags: W
LayerCount: 2
Fore
SplineSet
381 627 m 0,0,1
 340 627 340 627 317 613.5 c 128,-1,2
 294 600 294 600 285 575 c 128,-1,3
 276 550 276 550 276 515 c 0,4,5
 276 492 276 492 278 471 c 128,-1,6
 280 450 280 450 283.5 429 c 128,-1,7
 287 408 287 408 289.5 383 c 128,-1,8
 292 358 292 358 292 328 c 0,9,10
 292 264 292 264 269.5 208.5 c 128,-1,11
 247 153 247 153 203.5 108.5 c 128,-1,12
 160 64 160 64 96.5 33.5 c 128,-1,13
 33 3 33 3 -50 -13 c 1,14,-1
 -16 130 l 1,15,16
 32 141 32 141 64.5 158.5 c 128,-1,17
 97 176 97 176 117 201 c 128,-1,18
 137 226 137 226 146 258.5 c 128,-1,19
 155 291 155 291 155 331 c 0,20,21
 155 355 155 355 149.5 376.5 c 128,-1,22
 144 398 144 398 136 418 c 128,-1,23
 128 438 128 438 119.5 458.5 c 128,-1,24
 111 479 111 479 105.5 500.5 c 128,-1,25
 100 522 100 522 100 549 c 0,26,27
 100 605 100 605 129 646.5 c 128,-1,28
 158 688 158 688 216.5 711.5 c 128,-1,29
 275 735 275 735 364 735 c 0,30,31
 406 735 406 735 441 730.5 c 128,-1,32
 476 726 476 726 503 719.5 c 128,-1,33
 530 713 530 713 550 705 c 128,-1,34
 570 697 570 697 582 690 c 1,35,-1
 537 513 l 1,36,-1
 402 513 l 1,37,-1
 442 662 l 1,38,39
 454 661 454 661 464 653.5 c 128,-1,40
 474 646 474 646 482.5 635 c 128,-1,41
 491 624 491 624 497 612 c 128,-1,42
 503 600 503 600 506 591 c 1,43,44
 492 602 492 602 473 610 c 128,-1,45
 454 618 454 618 431.5 622.5 c 128,-1,46
 409 627 409 627 381 627 c 0,0,1
46 413 m 1,47,-1
 453 413 l 1,48,-1
 428 306 l 1,49,-1
 21 306 l 1,50,-1
 46 413 l 1,47,-1
344 -10 m 0,51,52
 306 -10 306 -10 281.5 -0.5 c 128,-1,53
 257 9 257 9 240.5 29.5 c 128,-1,54
 224 50 224 50 211 83 c 128,-1,55
 198 116 198 116 184 163 c 1,56,-1
 234 233 l 1,57,58
 248 203 248 203 261 182.5 c 128,-1,59
 274 162 274 162 292.5 152.5 c 128,-1,60
 311 143 311 143 342 143 c 0,61,62
 370 143 370 143 386 150 c 128,-1,63
 402 157 402 157 413 176.5 c 128,-1,64
 424 196 424 196 437 231 c 1,65,-1
 532 200 l 1,66,67
 517 149 517 149 499 110 c 128,-1,68
 481 71 481 71 459.5 44 c 128,-1,69
 438 17 438 17 409.5 3.5 c 128,-1,70
 381 -10 381 -10 344 -10 c 0,51,52
EndSplineSet
Substitution2: "'ss05' Style Set 5 in Latin lookup 62 subtable" sterling.alt
Substitution2: "'pnum' Proportional Numbers in Latin lookup 55 subtable" sterling.proportional
EndChar

StartChar: currency
Encoding: 164 164 208
Width: 564
GlyphClass: 1
Flags: W
LayerCount: 2
Fore
SplineSet
39 98 m 1,0,-1
 -26 183 l 1,1,-1
 116 294 l 1,2,-1
 189 216 l 1,3,-1
 39 98 l 1,0,-1
67 585 m 1,4,-1
 165 658 l 1,5,-1
 259 531 l 1,6,-1
 158 462 l 1,7,-1
 67 585 l 1,4,-1
288 265 m 0,8,9
 328 265 328 265 353 283.5 c 128,-1,10
 378 302 378 302 389 333 c 128,-1,11
 400 364 400 364 400 398 c 0,12,13
 400 426 400 426 390.5 444.5 c 128,-1,14
 381 463 381 463 361 472.5 c 128,-1,15
 341 482 341 482 308 482 c 0,16,17
 269 482 269 482 244 463.5 c 128,-1,18
 219 445 219 445 207.5 415 c 128,-1,19
 196 385 196 385 196 349 c 0,20,21
 196 321 196 321 205.5 302.5 c 128,-1,22
 215 284 215 284 235.5 274.5 c 128,-1,23
 256 265 256 265 288 265 c 0,8,9
271 159 m 0,24,25
 228 159 228 159 192.5 176.5 c 128,-1,26
 157 194 157 194 132 223.5 c 128,-1,27
 107 253 107 253 93 288.5 c 128,-1,28
 79 324 79 324 79 359 c 0,29,30
 79 402 79 402 100.5 442.5 c 128,-1,31
 122 483 122 483 157.5 516 c 128,-1,32
 193 549 193 549 237 568.5 c 128,-1,33
 281 588 281 588 325 588 c 0,34,35
 368 588 368 588 403 570.5 c 128,-1,36
 438 553 438 553 463.5 523.5 c 128,-1,37
 489 494 489 494 503 458.5 c 128,-1,38
 517 423 517 423 517 388 c 0,39,40
 517 345 517 345 495.5 304.5 c 128,-1,41
 474 264 474 264 438.5 231 c 128,-1,42
 403 198 403 198 359 178.5 c 128,-1,43
 315 159 315 159 271 159 c 0,24,25
429 88 m 1,44,-1
 334 215 l 1,45,-1
 435 284 l 1,46,-1
 528 161 l 1,47,-1
 429 88 l 1,44,-1
619 561 m 1,48,-1
 477 450 l 1,49,-1
 404 528 l 1,50,-1
 554 646 l 1,51,-1
 619 561 l 1,48,-1
EndSplineSet
EndChar

StartChar: yen
Encoding: 165 165 209
Width: 560
GlyphClass: 1
Flags: W
LayerCount: 2
Fore
SplineSet
18 242 m 1,0,-1
 484 242 l 1,1,-1
 464 163 l 1,2,-1
 -1 163 l 1,3,-1
 18 242 l 1,0,-1
60 411 m 1,4,-1
 525 411 l 1,5,-1
 506 332 l 1,6,-1
 41 332 l 1,7,-1
 60 411 l 1,4,-1
208 379 m 1,8,-1
 364 379 l 1,9,-1
 303 143 l 2,10,11
 298 121 298 121 315.5 114 c 128,-1,12
 333 107 333 107 361 107 c 2,13,-1
 384 107 l 1,14,-1
 358 0 l 1,15,-1
 24 0 l 1,16,-1
 49 107 l 1,17,-1
 71 107 l 2,18,19
 99 107 99 107 120.5 114 c 128,-1,20
 142 121 142 121 147 143 c 2,21,-1
 208 379 l 1,8,-1
340 333 m 1,22,-1
 205 334 l 1,23,-1
 125 569 l 2,24,25
 118 591 118 591 108 597 c 128,-1,26
 98 603 98 603 78 603 c 2,27,-1
 72 603 l 1,28,-1
 97 710 l 1,29,-1
 352 710 l 1,30,-1
 326 603 l 1,31,-1
 316 603 l 2,32,33
 304 603 304 603 294.5 601.5 c 128,-1,34
 285 600 285 600 280 598 c 128,-1,35
 275 596 275 596 274 592 c 2,36,-1
 340 380 l 1,37,-1
 281 379 l 1,38,-1
 458 580 l 2,39,40
 460 587 460 587 455.5 592 c 128,-1,41
 451 597 451 597 442 600 c 128,-1,42
 433 603 433 603 421 603 c 2,43,-1
 416 603 l 1,44,-1
 442 710 l 1,45,-1
 640 710 l 1,46,-1
 614 603 l 1,47,-1
 608 603 l 2,48,49
 588 603 588 603 573 591.5 c 128,-1,50
 558 580 558 580 537 556 c 2,51,-1
 340 333 l 1,22,-1
EndSplineSet
Substitution2: "'pnum' Proportional Numbers in Latin lookup 55 subtable" yen.proportional
EndChar

